{
.appVersion = "3091";
copyright = "Copyright 2021 The Urbanist Project Authors (https://github.com/coreyhu/Urbanist)";
customParameters = (
{
name = fsType;
value = (
);
},
{
name = "Enforce Compatibility Check";
value = 1;
},
{
name = "Variable Font Origin";
value = "81BB4A08-F3DE-40E2-9BD9-52E47EDF5C1E";
},
{
name = "GASP Table";
value = {
};
},
{
name = "Axis Mappings";
value = {
ital = {
0 = 0;
1 = 1;
};
wght = {
100 = 30;
200 = 43;
300 = 54;
400 = 70;
500 = 84;
600 = 104;
700 = 122;
800 = 138;
900 = 150;
};
};
},
{
name = panose;
value = (
2,
11,
10,
4,
4,
2,
0,
0,
2,
3
);
},
{
name = "Use Typo Metrics";
value = 1;
},
{
name = licenseURL;
value = "https://scripts.sil.org/OFL";
},
{
name = vendorID;
value = KERN;
},
{
name = license;
value = "This Font Software is licensed under the SIL Open Font License, Version 1.1. This license is available with a FAQ at: https://scripts.sil.org/OFL";
},
{
name = description;
value = "Urbanist is an open source low-contrast, geometric sans serif inspired by Modernist typography.";
},
{
name = Axes;
value = (
{
Name = Weight;
Tag = wght;
},
{
Name = Italic;
Tag = ital;
}
);
}
);
date = "2020-03-28 06:10:06 +0000";
designer = "Corey Hu";
designerURL = "https://www.coreyhu.com";
familyName = Urbanist;
featurePrefixes = (
{
automatic = 1;
code = "languagesystem DFLT dflt;\012";
name = Languagesystems;
}
);
features = (
{
automatic = 1;
code = "feature subs;\012feature sinf;\012feature sups;\012feature frac;\012feature ordn;\012";
name = aalt;
},
{
automatic = 1;
code = "lookup ccmp_Other_1 {\012	@CombiningTopAccents = [acutecomb circumflexcomb dieresiscomb dotaccentcomb gravecomb ringcomb tildecomb];\012	@CombiningNonTopAccents = [cedillacomb];\012	sub [i]' @CombiningTopAccents by [idotless];\012	sub [i]' @CombiningNonTopAccents @CombiningTopAccents by [idotless];\012} ccmp_Other_1;\012";
name = ccmp;
},
{
automatic = 1;

glyphs = (
{
glyphname = A;
lastChange = "2021-08-26 03:05:31 +0000";
layers = (
{
anchors = (
{
name = bottom;
position = "{757, 0}";
},
{
name = ogonek;
position = "{1424, 0}";
},
{
name = top;
position = "{757, 1400}";
}
);
hints = (
{
horizontal = 1;
origin = "{0, 0}";
target = up;
type = BottomGhost;
},
{
horizontal = 1;
origin = "{0, 2}";
target = "{1, 2}";
type = Stem;
},
{
horizontal = 1;
origin = "{0, 7}";
target = down;
type = TopGhost;
}
);
layerId = "10BC12B3-5274-42E3-B5BC-F74F362F0DF4";
paths = (
{
closed = 1;
nodes = (
"80 0 LINE",
"398 0 LINE",
"478 220 LINE",
"1036 220 LINE",
"1116 0 LINE",
"1434 0 LINE",
"926 1400 LINE",
"588 1400 LINE"
);
},
{
closed = 1;
nodes = (
"756 984 LINE",
"926 520 LINE",
"588 520 LINE"
);
}
);
width = 1514;
},
{
anchors = (
{
name = bottom;
position = "{636, 0}";
},
{
name = ogonek;
position = "{1192, 0}";
},
{
name = top;
position = "{636, 1400}";
}
);
hints = (
{
horizontal = 1;
origin = "{0, 0}";
target = up;
type = BottomGhost;
},
{
horizontal = 1;
origin = "{0, 2}";
target = "{1, 2}";
type = Stem;
},
{
horizontal = 1;
origin = "{0, 7}";
target = "{1, 0}";
type = Stem;
}
);
layerId = "9AF1F7D9-E035-453E-B2A8-46DE370997D0";
paths = (
{
closed = 1;
nodes = (
"80 0 LINE",
"144 0 LINE",
"268 340 LINE",
"1004 340 LINE",
"1128 0 LINE",
"1192 0 LINE",
"682 1400 LINE",
"590 1400 LINE"
);
},
{
closed = 1;
nodes = (
"636 1350 LINE",
"982 400 LINE",
"290 400 LINE"
);
}
);
width = 1272;
},
{
anchors = (
{
name = bottom;
position = "{439, 0}";
},
{
name = ogonek;
position = "{995, 0}";
},
{
name = top;
position = "{636, 1400}";
}
);
hints = (
{
horizontal = 1;
origin = "{0, 0}";
target = up;
type = BottomGhost;
},
{
horizontal = 1;
origin = "{0, 2}";
target = "{1, 2}";
type = Stem;
},
{
horizontal = 1;
origin = "{0, 7}";
target = "{1, 0}";
type = Stem;
}
);
layerId = m003;
paths = (
{
closed = 1;
nodes = (
"-117 0 LINE",
"-53 0 LINE",
"119 340 LINE",
"855 340 LINE",
"931 0 LINE",
"995 0 LINE",
"682 1400 LINE",
"590 1400 LINE"
);
},
{
closed = 1;
nodes = (
"629 1350 LINE",
"841 400 LINE",
"149 400 LINE"
);
}
);
width = 1272;
},
{
anchors = (
{
name = bottom;
position = "{560, 0}";
},
{
name = ogonek;
position = "{1227, 0}";
},
{
name = top;
position = "{757, 1400}";
}
);
hints = (
{
horizontal = 1;
origin = "{0, 0}";
target = up;
type = BottomGhost;
},
{
horizontal = 1;
origin = "{0, 2}";
target = "{1, 2}";
type = Stem;
},
{
horizontal = 1;
origin = "{0, 7}";
target = down;
type = TopGhost;
}
);
layerId = m004;
paths = (
{
closed = 1;
nodes = (
"-117 0 LINE",
"201 0 LINE",
"312 220 LINE",
"870 220 LINE",
"919 0 LINE",
"1237 0 LINE",
"926 1400 LINE",
"588 1400 LINE"
);
},
{
closed = 1;
nodes = (
"698 984 LINE",
"802 520 LINE",
"464 520 LINE"
);
}
);
width = 1514;
},
{
anchors = (
{
name = bottom;
position = "{676, 0}";
},
{
name = ogonek;
position = "{1269, 0}";
},
{
name = top;
position = "{676, 1400}";
}
);
hints = (
{
horizontal = 1;
origin = "{0, 0}";
target = up;
type = BottomGhost;
},
{
horizontal = 1;
origin = "{0, 2}";
target = "{1, 2}";
type = Stem;
},
{
horizontal = 1;
origin = "{0, 7}";
target = "{1, 0}";
type = Stem;
}
);
layerId = "81BB4A08-F3DE-40E2-9BD9-52E47EDF5C1E";
paths = (
{
closed = 1;
nodes = (
"80 0 LINE",
"229 0 LINE",
"338 300 LINE",
"1015 300 LINE",
"1124 0 LINE",
"1273 0 LINE",
"763 1400 LINE",
"589 1400 LINE"
);
},
{
closed = 1;
nodes = (
"676 1228 LINE",
"963 440 LINE",
"389 440 LINE"
);
}
);
width = 1352.66667;
},
{
anchors = (
{
name = bottom;
position = "{479, 0}";
},
{
name = ogonek;
position = "{1072, 0}";
},
{
name = top;
position = "{676, 1400}";
}
);
hints = (
{
horizontal = 1;
origin = "{0, 0}";
target = up;
type = BottomGhost;
},
{
horizontal = 1;
origin = "{0, 2}";
target = "{1, 2}";
type = Stem;
},
{
horizontal = 1;
origin = "{0, 7}";
target = "{1, 0}";
type = Stem;
}
);
layerId = "6C2B4A57-296A-49E8-ACE5-0BEFCC4AFC9C";
paths = (
{
closed = 1;
nodes = (
"-117 0 LINE",
"32 0 LINE",
"183 300 LINE",
"860 300 LINE",
"927 0 LINE",
"1076 0 LINE",
"763 1400 LINE",
"589 1400 LINE"
);
},
{
closed = 1;
nodes = (
"652 1228 LINE",
"828 440 LINE",
"254 440 LINE"
);
}
);
width = 1352.66667;
}
);
leftKerningGroup = A;
rightKerningGroup = A;
unicode = 0041;
},
{
glyphname = AE;
lastChange = "2021-08-26 03:05:31 +0000";
layers = (
{
anchors = (
{
name = bottom;
position = "{855, 0}";
},
{
name = top;
position = "{1099, 1400}";
}
);
hints = (
{
horizontal = 1;
origin = "{0, 15}";
target = "{0, 6}";
type = Stem;
},
{
horizontal = 1;
origin = "{0, 7}";
target = "{0, 10}";
type = Stem;
},
{
horizontal = 1;
origin = "{0, 14}";
target = "{1, 0}";
type = Stem;
},
{
horizontal = 1;
origin = "{0, 1}";
target = "{1, 3}";
type = Stem;
},
{
origin = "{0, 3}";
target = "{0, 6}";
type = Stem;
}
);
layerId = "10BC12B3-5274-42E3-B5BC-F74F362F0DF4";
paths = (
{
closed = 1;
nodes = (
"398 0 LINE",
"478 220 LINE",
"858 220 LINE",
"858 0 LINE",
"1610 0 LINE",
"1610 300 LINE",
"1158 300 LINE",
"1158 550 LINE",
"1514 550 LINE",
"1514 850 LINE",
"1158 850 LINE",
"1158 1100 LINE",
"1610 1100 LINE",
"1610 1400 LINE",
"588 1400 LINE",
"80 0 LINE"
);
},
{
closed = 1;
nodes = (
"798 1100 LINE",
"858 1100 LINE",
"858 520 LINE",
"588 520 LINE"
);
}
);
width = 1710;
},
{
anchors = (
{
name = bottom;
position = "{787, 0}";
},
{
name = top;
position = "{1032, 1400}";
}
);
hints = (
{
horizontal = 1;
origin = "{0, 15}";
target = "{0, 6}";
type = Stem;
},
{
horizontal = 1;
origin = "{0, 1}";
target = "{1, 3}";
type = Stem;
},
{
horizontal = 1;
origin = "{0, 7}";
target = "{0, 10}";
type = Stem;
},
{
horizontal = 1;
origin = "{0, 14}";
target = "{1, 0}";
type = Stem;
},
{
origin = "{0, 3}";
target = "{0, 6}";
type = Stem;
}
);
layerId = "9AF1F7D9-E035-453E-B2A8-46DE370997D0";
paths = (
{
closed = 1;
nodes = (
"144 0 LINE",
"268 340 LINE",
"782 340 LINE",
"782 0 LINE",
"1474 0 LINE",
"1474 60 LINE",
"842 60 LINE",
"842 670 LINE",
"1378 670 LINE",
"1378 730 LINE",
"842 730 LINE",
"842 1340 LINE",
"1474 1340 LINE",
"1474 1400 LINE",
"590 1400 LINE",
"80 0 LINE"
);
},
{
closed = 1;
nodes = (
"634 1340 LINE",
"782 1340 LINE",
"782 400 LINE",
"290 400 LINE"
);
}
);
width = 1574;
},
{
anchors = (
{
name = bottom;
position = "{590, 0}";
},
{
name = top;
position = "{1032, 1400}";
}
);
hints = (
{
horizontal = 1;
origin = "{0, 15}";
target = "{0, 6}";
type = Stem;
},
{
horizontal = 1;
origin = "{0, 1}";
target = "{1, 3}";
type = Stem;
},
{
horizontal = 1;
origin = "{0, 7}";
target = "{0, 10}";
type = Stem;
},
{
horizontal = 1;
origin = "{0, 14}";
target = "{1, 0}";
type = Stem;
},
{
origin = "{0, 3}";
target = "{0, 6}";
type = Stem;
}
);
layerId = m003;
paths = (
{
closed = 1;
nodes = (
"-53 0 LINE",
"119 340 LINE",
"633 340 LINE",
"585 0 LINE",
"1277 0 LINE",
"1286 60 LINE",
"654 60 LINE",
"739 670 LINE",
"1275 670 LINE",
"1284 730 LINE",
"748 730 LINE",
"834 1340 LINE",
"1466 1340 LINE",
"1474 1400 LINE",
"590 1400 LINE",
"-117 0 LINE"
);
},
{
closed = 1;
nodes = (
"626 1340 LINE",
"774 1340 LINE",
"641 400 LINE",
"149 400 LINE"
);
}
);
width = 1574;
},
{
anchors = (
{
name = bottom;
position = "{658, 0}";
},
{
name = top;
position = "{1099, 1400}";
}
);
hints = (
{
horizontal = 1;
origin = "{0, 15}";
target = "{0, 6}";
type = Stem;
},
{
horizontal = 1;
origin = "{0, 7}";
target = "{0, 10}";
type = Stem;
},
{
horizontal = 1;
origin = "{0, 14}";
target = "{1, 0}";
type = Stem;
},
{
horizontal = 1;
origin = "{0, 1}";
target = "{1, 3}";
type = Stem;
},
{
origin = "{0, 3}";
target = "{0, 6}";
type = Stem;
}
);
layerId = m004;
paths = (
{
closed = 1;
nodes = (
"201 0 LINE",
"312 220 LINE",
"692 220 LINE",
"661 0 LINE",
"1413 0 LINE",
"1455 300 LINE",
"1003 300 LINE",
"1039 550 LINE",
"1395 550 LINE",
"1437 850 LINE",
"1081 850 LINE",
"1116 1100 LINE",
"1568 1100 LINE",
"1610 1400 LINE",
"588 1400 LINE",
"-117 0 LINE"
);
},
{
closed = 1;
nodes = (
"756 1100 LINE",
"816 1100 LINE",
"734 520 LINE",
"464 520 LINE"
);
}
);
width = 1710;
},
{
anchors = (
{
name = bottom;
position = "{810, 0}";
},
{
name = top;
position = "{1054, 1400}";
}
);
hints = (
{
horizontal = 1;
origin = "{0, 15}";
target = "{0, 6}";
type = Stem;
},
{
horizontal = 1;
origin = "{0, 1}";
target = "{1, 3}";
type = Stem;
},
{
horizontal = 1;
origin = "{0, 7}";
target = "{0, 10}";
type = Stem;
},
{
horizontal = 1;
origin = "{0, 14}";
target = "{1, 0}";
type = Stem;
},
{
origin = "{0, 3}";
target = "{0, 6}";
type = Stem;
}
);
layerId = "81BB4A08-F3DE-40E2-9BD9-52E47EDF5C1E";
paths = (
{
closed = 1;
nodes = (
"229 0 LINE",
"338 300 LINE",
"807 300 LINE",
"807 0 LINE",
"1519 0 LINE",
"1519 140 LINE",
"947 140 LINE",
"947 630 LINE",
"1423 630 LINE",
"1423 770 LINE",
"947 770 LINE",
"947 1260 LINE",
"1519 1260 LINE",
"1519 1400 LINE",
"589 1400 LINE",
"80 0 LINE"
);
},
{
closed = 1;
nodes = (
"689 1260 LINE",
"807 1260 LINE",
"807 440 LINE",
"389 440 LINE"
);
}
);
width = 1619.33333;
},
{
anchors = (
{
name = bottom;
position = "{613, 0}";
},
{
name = top;
position = "{1054, 1400}";
}
);
hints = (
{
horizontal = 1;
origin = "{0, 15}";
target = "{0, 6}";
type = Stem;
},
{
horizontal = 1;
origin = "{0, 1}";
target = "{1, 3}";
type = Stem;
},
{
horizontal = 1;
origin = "{0, 7}";
target = "{0, 10}";
type = Stem;
},
{
horizontal = 1;
origin = "{0, 14}";
target = "{1, 0}";
type = Stem;
},
{
origin = "{0, 3}";
target = "{0, 6}";
type = Stem;
}
);
layerId = "6C2B4A57-296A-49E8-ACE5-0BEFCC4AFC9C";
paths = (
{
closed = 1;
nodes = (
"32 0 LINE",
"183 300 LINE",
"653 300 LINE",
"610 0 LINE",
"1322 0 LINE",
"1342 140 LINE",
"770 140 LINE",
"839 630 LINE",
"1315 630 LINE",
"1335 770 LINE",
"859 770 LINE",
"928 1260 LINE",
"1500 1260 LINE",
"1519 1400 LINE",
"589 1400 LINE",
"-117 0 LINE"
);
},
{
closed = 1;
nodes = (
"669 1260 LINE",
"788 1260 LINE",
"672 440 LINE",
"254 440 LINE"
);
}
);
width = 1619.33333;
}
);
leftKerningGroup = A;
leftMetricsKey = A;
rightKerningGroup = E;
rightMetricsKey = E;
unicode = 00C6;
},
{
glyphname = B;
lastChange = "2021-08-26 03:05:31 +0000";
layers = (
{
anchors = (
{
name = bottom;
position = "{603, 0}";
},
{
name = top;
position = "{603, 1400}";
}
);
hints = (
{
horizontal = 1;
origin = "{0, 14}";
target = "{1, 8}";
type = Stem;
},
{
horizontal = 1;
origin = "{1, 0}";
target = "{2, 8}";
type = Stem;
},
{
horizontal = 1;
origin = "{0, 13}";
target = "{2, 0}";
type = Stem;
},
{
origin = "{0, 14}";
target = "{1, 8}";
type = Stem;
},
{
origin = "{2, 4}";
target = "{0, 9}";
type = Stem;
},
{
origin = "{1, 4}";
target = "{0, 3}";
type = Stem;
}
);
layerId = "10BC12B3-5274-42E3-B5BC-F74F362F0DF4";
paths = (
{
closed = 1;
nodes = (
"704 0 LINE SMOOTH",
"936 0 OFFCURVE",
"1126 170 OFFCURVE",
"1126 382 CURVE SMOOTH",
"1126 506 OFFCURVE",
"1108 721 OFFCURVE",
"930 765 CURVE",
"1034 813 OFFCURVE",
"1060 926 OFFCURVE",
"1060 1014 CURVE SMOOTH",
"1060 1248 OFFCURVE",
"880 1400 OFFCURVE",
"650 1400 CURVE SMOOTH",
"120 1400 LINE",
"120 0 LINE"
);
},
{
closed = 1;
nodes = (
"420 625 LINE",
"672 625 LINE SMOOTH",
"776 625 OFFCURVE",
"860 536 OFFCURVE",
"860 444 CURVE SMOOTH",
"860 334 OFFCURVE",
"776 254 OFFCURVE",
"672 254 CURVE SMOOTH",
"420 254 LINE"
);
},
{
closed = 1;
nodes = (
"420 1144 LINE",
"614 1144 LINE SMOOTH",
"694 1144 OFFCURVE",
"760 1098 OFFCURVE",
"760 1016 CURVE SMOOTH",
"760 934 OFFCURVE",
"694 875 OFFCURVE",
"614 875 CURVE SMOOTH",
"420 875 LINE"
);
}
);
width = 1206;
},
{
anchors = (
{
name = bottom;
position = "{535, 0}";
},
{
name = top;
position = "{535, 1400}";
}
);
hints = (
{
horizontal = 1;
origin = "{0, 14}";
target = "{1, 8}";
type = Stem;
},
{
horizontal = 1;
origin = "{1, 0}";
target = "{2, 8}";
type = Stem;
},
{
horizontal = 1;
origin = "{2, 0}";
target = "{0, 13}";
type = Stem;
},
{
origin = "{0, 14}";
target = "{1, 8}";
type = Stem;
},
{
origin = "{1, 4}";
target = "{0, 3}";
type = Stem;
},
{
origin = "{2, 4}";
target = "{0, 9}";
type = Stem;
}
);
layerId = "9AF1F7D9-E035-453E-B2A8-46DE370997D0";
paths = (
{
closed = 1;
nodes = (
"630 0 LINE SMOOTH",
"828 0 OFFCURVE",
"990 152 OFFCURVE",
"990 402 CURVE SMOOTH",
"990 566 OFFCURVE",
"892 731 OFFCURVE",
"732 776 CURVE",
"808 788 OFFCURVE",
"912 913 OFFCURVE",
"912 1061 CURVE SMOOTH",
"912 1283 OFFCURVE",
"756 1400 OFFCURVE",
"564 1400 CURVE SMOOTH",
"120 1400 LINE",
"120 0 LINE"
);
},
{
closed = 1;
nodes = (
"180 740 LINE",
"630 740 LINE SMOOTH",
"796 740 OFFCURVE",
"930 578 OFFCURVE",
"930 402 CURVE SMOOTH",
"930 206 OFFCURVE",
"796 60 OFFCURVE",
"630 60 CURVE SMOOTH",
"180 60 LINE"
);
},
{
closed = 1;
nodes = (
"180 1340 LINE",
"564 1340 LINE SMOOTH",
"722 1340 OFFCURVE",
"852 1251 OFFCURVE",
"852 1061 CURVE SMOOTH",
"852 891 OFFCURVE",
"722 800 OFFCURVE",
"564 800 CURVE SMOOTH",
"180 800 LINE"
);
}
);
width = 1070;
},
{
anchors = (
{
name = bottom;
position = "{338, 0}";
},
{
name = top;
position = "{535, 1400}";
}
);
hints = (
{
horizontal = 1;
origin = "{0, 14}";
target = "{1, 8}";
type = Stem;
},
{
horizontal = 1;
origin = "{1, 0}";
target = "{2, 8}";
type = Stem;
},
{
horizontal = 1;
origin = "{2, 0}";
target = "{0, 13}";
type = Stem;
},
{
origin = "{0, 14}";
target = "{1, 8}";
type = Stem;
},
{
origin = "{1, 4}";
target = "{0, 3}";
type = Stem;
},
{
origin = "{2, 4}";
target = "{0, 9}";
type = Stem;
}
);
layerId = m003;
paths = (
{
closed = 1;
nodes = (
"433 0 LINE SMOOTH",
"631 0 OFFCURVE",
"815 152 OFFCURVE",
"850 402 CURVE SMOOTH",
"873 566 OFFCURVE",
"798 731 OFFCURVE",
"644 776 CURVE",
"722 788 OFFCURVE",
"844 913 OFFCURVE",
"864 1061 CURVE SMOOTH",
"896 1283 OFFCURVE",
"756 1400 OFFCURVE",
"564 1400 CURVE SMOOTH",
"120 1400 LINE",
"-77 0 LINE"
);
},
{
closed = 1;
nodes = (
"87 740 LINE",
"537 740 LINE SMOOTH",
"703 740 OFFCURVE",
"814 578 OFFCURVE",
"790 402 CURVE SMOOTH",
"762 206 OFFCURVE",
"608 60 OFFCURVE",
"442 60 CURVE SMOOTH",
"-8 60 LINE"
);
},
{
closed = 1;
nodes = (
"172 1340 LINE",
"556 1340 LINE SMOOTH",
"714 1340 OFFCURVE",
"831 1251 OFFCURVE",
"804 1061 CURVE SMOOTH",
"780 891 OFFCURVE",
"638 800 OFFCURVE",
"480 800 CURVE SMOOTH",
"96 800 LINE"
);
}
);
width = 1070;
},
{
anchors = (
{
name = bottom;
position = "{406, 0}";
},
{
name = top;
position = "{603, 1400}";
}
);
hints = (
{
horizontal = 1;
origin = "{0, 14}";
target = "{1, 8}";
type = Stem;
},
{
horizontal = 1;
origin = "{1, 0}";
target = "{2, 8}";
type = Stem;
},
{
horizontal = 1;
origin = "{0, 13}";
target = "{2, 0}";
type = Stem;
},
{
origin = "{0, 14}";
target = "{1, 8}";
type = Stem;
},
{
origin = "{2, 4}";
target = "{0, 9}";
type = Stem;
},
{
origin = "{1, 4}";
target = "{0, 3}";
type = Stem;
}
);
layerId = m004;
paths = (
{
closed = 1;
nodes = (
"507 0 LINE SMOOTH",
"739 0 OFFCURVE",
"953 170 OFFCURVE",
"983 382 CURVE SMOOTH",
"1000 506 OFFCURVE",
"1013 721 OFFCURVE",
"841 765 CURVE",
"952 813 OFFCURVE",
"993 926 OFFCURVE",
"1006 1014 CURVE SMOOTH",
"1039 1248 OFFCURVE",
"880 1400 OFFCURVE",
"650 1400 CURVE SMOOTH",
"120 1400 LINE",
"-77 0 LINE"
);
},
{
closed = 1;
nodes = (
"311 625 LINE",
"563 625 LINE SMOOTH",
"667 625 OFFCURVE",
"739 536 OFFCURVE",
"726 444 CURVE SMOOTH",
"710 334 OFFCURVE",
"615 254 OFFCURVE",
"511 254 CURVE SMOOTH",
"259 254 LINE"
);
},
{
closed = 1;
nodes = (
"384 1144 LINE",
"578 1144 LINE SMOOTH",
"658 1144 OFFCURVE",
"718 1098 OFFCURVE",
"706 1016 CURVE SMOOTH",
"695 934 OFFCURVE",
"620 875 OFFCURVE",
"540 875 CURVE SMOOTH",
"346 875 LINE"
);
}
);
width = 1206;
},
{
anchors = (
{
name = bottom;
position = "{558, 0}";
},
{
name = top;
position = "{558, 1400}";
}
);
hints = (
{
horizontal = 1;
origin = "{0, 14}";
target = "{1, 8}";
type = Stem;
},
{
horizontal = 1;
origin = "{1, 0}";
target = "{2, 8}";
type = Stem;
},
{
horizontal = 1;
origin = "{2, 0}";
target = "{0, 13}";
type = Stem;
},
{
origin = "{0, 14}";
target = "{1, 8}";
type = Stem;
},
{
origin = "{1, 4}";
target = "{0, 3}";
type = Stem;
},
{
origin = "{2, 4}";
target = "{0, 9}";
type = Stem;
}
);
layerId = "81BB4A08-F3DE-40E2-9BD9-52E47EDF5C1E";
paths = (
{
closed = 1;
nodes = (
"655 0 LINE SMOOTH",
"864 0 OFFCURVE",
"1035 158 OFFCURVE",
"1035 395 CURVE SMOOTH",
"1035 546 OFFCURVE",
"964 728 OFFCURVE",
"798 772 CURVE",
"883 796 OFFCURVE",
"961 917 OFFCURVE",
"961 1045 CURVE SMOOTH",
"961 1271 OFFCURVE",
"797 1400 OFFCURVE",
"593 1400 CURVE SMOOTH",
"120 1400 LINE",
"120 0 LINE"
);
},
{
closed = 1;
nodes = (
"260 702 LINE",
"644 702 LINE SMOOTH",
"789 702 OFFCURVE",
"907 564 OFFCURVE",
"907 416 CURVE SMOOTH",
"907 249 OFFCURVE",
"789 125 OFFCURVE",
"644 125 CURVE SMOOTH",
"260 125 LINE"
);
},
{
closed = 1;
nodes = (
"260 1275 LINE",
"581 1275 LINE SMOOTH",
"713 1275 OFFCURVE",
"821 1200 OFFCURVE",
"821 1046 CURVE SMOOTH",
"821 905 OFFCURVE",
"713 825 OFFCURVE",
"581 825 CURVE SMOOTH",
"260 825 LINE"
);
}
);
width = 1115.33333;
},
{
anchors = (
{
name = bottom;
position = "{361, 0}";
},
{
name = top;
position = "{558, 1400}";
}
);
hints = (
{
horizontal = 1;
origin = "{0, 14}";
target = "{1, 8}";
type = Stem;
},
{
horizontal = 1;
origin = "{1, 0}";
target = "{2, 8}";
type = Stem;
},
{
horizontal = 1;
origin = "{2, 0}";
target = "{0, 13}";
type = Stem;
},
{
origin = "{0, 14}";
target = "{1, 8}";
type = Stem;
},
{
origin = "{1, 4}";
target = "{0, 3}";
type = Stem;
},
{
origin = "{2, 4}";
target = "{0, 9}";
type = Stem;
}
);
layerId = "6C2B4A57-296A-49E8-ACE5-0BEFCC4AFC9C";
paths = (
{
closed = 1;
nodes = (
"458 0 LINE SMOOTH",
"667 0 OFFCURVE",
"861 158 OFFCURVE",
"894 395 CURVE SMOOTH",
"915 546 OFFCURVE",
"870 728 OFFCURVE",
"710 772 CURVE",
"799 796 OFFCURVE",
"894 917 OFFCURVE",
"911 1045 CURVE SMOOTH",
"944 1271 OFFCURVE",
"797 1400 OFFCURVE",
"593 1400 CURVE SMOOTH",
"120 1400 LINE",
"-77 0 LINE"
);
},
{
closed = 1;
nodes = (
"162 702 LINE",
"546 702 LINE SMOOTH",
"691 702 OFFCURVE",
"789 564 OFFCURVE",
"769 416 CURVE SMOOTH",
"745 249 OFFCURVE",
"610 125 OFFCURVE",
"465 125 CURVE SMOOTH",
"81 125 LINE"
);
},
{
closed = 1;
nodes = (
"243 1275 LINE",
"563 1275 LINE SMOOTH",
"695 1275 OFFCURVE",
"793 1200 OFFCURVE",
"771 1046 CURVE SMOOTH",
"752 905 OFFCURVE",
"632 825 OFFCURVE",
"500 825 CURVE SMOOTH",
"179 825 LINE"
);
}
);
width = 1115.33333;
}
);
leftKerningGroup = H;
leftMetricsKey = H;
rightKerningGroup = B;
unicode = 0042;
},
{
glyphname = C;
lastChange = "2021-08-26 03:05:31 +0000";
layers = (
{
anchors = (
{
name = bottom;
position = "{768, 0}";
},
{
name = top;
position = "{768, 1400}";
}
);
hints = (
{
horizontal = 1;
origin = "{0, 25}";
target = "{0, 6}";
type = Stem;
},
{
horizontal = 1;
origin = "{0, 19}";
target = "{0, 12}";
type = Stem;
},
{
origin = "{0, 22}";
target = "{0, 9}";
type = Stem;
}
);
layerId = "10BC12B3-5274-42E3-B5BC-F74F362F0DF4";
paths = (
{
closed = 1;
nodes = (
"994 -26 OFFCURVE",
"1192 88 OFFCURVE",
"1318 262 CURVE",
"1050 408 LINE",
"980 326 OFFCURVE",
"880 274 OFFCURVE",
"768 274 CURVE SMOOTH",
"554 274 OFFCURVE",
"380 466 OFFCURVE",
"380 700 CURVE SMOOTH",
"380 936 OFFCURVE",
"554 1126 OFFCURVE",
"768 1126 CURVE SMOOTH",
"880 1126 OFFCURVE",
"980 1074 OFFCURVE",
"1050 994 CURVE",
"1318 1138 LINE",
"1192 1312 OFFCURVE",
"994 1426 OFFCURVE",
"768 1426 CURVE SMOOTH",
"388 1426 OFFCURVE",
"80 1102 OFFCURVE",
"80 700 CURVE SMOOTH",
"80 300 OFFCURVE",
"388 -26 OFFCURVE",
"768 -26 CURVE SMOOTH"
);
}
);
width = 1418;
},
{
anchors = (
{
name = bottom;
position = "{768, 0}";
},
{
name = top;
position = "{768, 1400}";
}
);
hints = (
{
horizontal = 1;
origin = "{0, 25}";
target = "{0, 6}";
type = Stem;
},
{
horizontal = 1;
origin = "{0, 19}";
target = "{0, 12}";
type = Stem;
},
{
origin = "{0, 22}";
target = "{0, 9}";
type = Stem;
}
);
layerId = "9AF1F7D9-E035-453E-B2A8-46DE370997D0";
paths = (
{
closed = 1;
nodes = (
"994 -26 OFFCURVE",
"1192 86 OFFCURVE",
"1318 262 CURVE",
"1266 290 LINE",
"1156 138 OFFCURVE",
"972 34 OFFCURVE",
"768 34 CURVE SMOOTH",
"422 34 OFFCURVE",
"140 332 OFFCURVE",
"140 700 CURVE SMOOTH",
"140 1058 OFFCURVE",
"416 1366 OFFCURVE",
"768 1366 CURVE SMOOTH",
"962 1366 OFFCURVE",
"1152 1266 OFFCURVE",
"1266 1108 CURVE",
"1318 1136 LINE",
"1192 1312 OFFCURVE",
"994 1426 OFFCURVE",
"768 1426 CURVE SMOOTH",
"388 1426 OFFCURVE",
"80 1100 OFFCURVE",
"80 700 CURVE SMOOTH",
"80 298 OFFCURVE",
"388 -26 OFFCURVE",
"768 -26 CURVE SMOOTH"
);
}
);
width = 1418;
},
{
anchors = (
{
name = bottom;
position = "{571, 0}";
},
{
name = top;
position = "{768, 1400}";
}
);
hints = (
{
horizontal = 1;
origin = "{0, 25}";
target = "{0, 6}";
type = Stem;
},
{
horizontal = 1;
origin = "{0, 19}";
target = "{0, 12}";
type = Stem;
},
{
origin = "{0, 22}";
target = "{0, 9}";
type = Stem;
}
);
layerId = m003;
paths = (
{
closed = 1;
nodes = (
"794 -26 OFFCURVE",
"1007 86 OFFCURVE",
"1158 262 CURVE",
"1110 290 LINE",
"979 138 OFFCURVE",
"780 34 OFFCURVE",
"576 34 CURVE SMOOTH",
"230 34 OFFCURVE",
"-10 332 OFFCURVE",
"42 700 CURVE SMOOTH",
"92 1058 OFFCURVE",
"411 1366 OFFCURVE",
"763 1366 CURVE SMOOTH",
"957 1366 OFFCURVE",
"1133 1266 OFFCURVE",
"1225 1108 CURVE",
"1281 1136 LINE",
"1180 1312 OFFCURVE",
"998 1426 OFFCURVE",
"772 1426 CURVE SMOOTH",
"392 1426 OFFCURVE",
"38 1100 OFFCURVE",
"-18 700 CURVE SMOOTH",
"-75 298 OFFCURVE",
"188 -26 OFFCURVE",
"568 -26 CURVE SMOOTH"
);
}
);
width = 1418;
},
{
anchors = (
{
name = bottom;
position = "{571, 0}";
},
{
name = top;
position = "{768, 1400}";
}
);
hints = (
{
horizontal = 1;
origin = "{0, 25}";
target = "{0, 6}";
type = Stem;
},
{
horizontal = 1;
origin = "{0, 19}";
target = "{0, 12}";
type = Stem;
},
{
origin = "{0, 22}";
target = "{0, 9}";
type = Stem;
}
);
layerId = m004;
paths = (
{
closed = 1;
nodes = (
"794 -26 OFFCURVE",
"1008 88 OFFCURVE",
"1158 262 CURVE",
"911 408 LINE",
"829 326 OFFCURVE",
"722 274 OFFCURVE",
"610 274 CURVE SMOOTH",
"396 274 OFFCURVE",
"249 466 OFFCURVE",
"282 700 CURVE SMOOTH",
"315 936 OFFCURVE",
"515 1126 OFFCURVE",
"729 1126 CURVE SMOOTH",
"841 1126 OFFCURVE",
"934 1074 OFFCURVE",
"993 994 CURVE",
"1281 1138 LINE",
"1180 1312 OFFCURVE",
"998 1426 OFFCURVE",
"772 1426 CURVE SMOOTH",
"392 1426 OFFCURVE",
"38 1102 OFFCURVE",
"-18 700 CURVE SMOOTH",
"-75 300 OFFCURVE",
"188 -26 OFFCURVE",
"568 -26 CURVE SMOOTH"
);
}
);
width = 1418;
},
{
anchors = (
{
name = bottom;
position = "{768, 0}";
},
{
name = top;
position = "{768, 1400}";
}
);
hints = (
{
horizontal = 1;
origin = "{0, 25}";
target = "{0, 6}";
type = Stem;
},
{
horizontal = 1;
origin = "{0, 19}";
target = "{0, 12}";
type = Stem;
},
{
origin = "{0, 22}";
target = "{0, 9}";
type = Stem;
}
);
layerId = "81BB4A08-F3DE-40E2-9BD9-52E47EDF5C1E";
paths = (
{
closed = 1;
nodes = (
"994 -26 OFFCURVE",
"1192 87 OFFCURVE",
"1318 262 CURVE",
"1194 329 LINE",
"1097 201 OFFCURVE",
"941 114 OFFCURVE",
"768 114 CURVE SMOOTH",
"466 114 OFFCURVE",
"220 377 OFFCURVE",
"220 700 CURVE SMOOTH",
"220 1017 OFFCURVE",
"462 1286 OFFCURVE",
"768 1286 CURVE SMOOTH",
"935 1286 OFFCURVE",
"1095 1202 OFFCURVE",
"1194 1070 CURVE",
"1318 1137 LINE",
"1192 1312 OFFCURVE",
"994 1426 OFFCURVE",
"768 1426 CURVE SMOOTH",
"388 1426 OFFCURVE",
"80 1101 OFFCURVE",
"80 700 CURVE SMOOTH",
"80 299 OFFCURVE",
"388 -26 OFFCURVE",
"768 -26 CURVE SMOOTH"
);
}
);
width = 1418;
},
{
anchors = (
{
name = bottom;
position = "{571, 0}";
},
{
name = top;
position = "{768, 1400}";
}
);
hints = (
{
horizontal = 1;
origin = "{0, 25}";
target = "{0, 6}";
type = Stem;
},
{
horizontal = 1;
origin = "{0, 19}";
target = "{0, 12}";
type = Stem;
},
{
origin = "{0, 22}";
target = "{0, 9}";
type = Stem;
}
);
layerId = "6C2B4A57-296A-49E8-ACE5-0BEFCC4AFC9C";
paths = (
{
closed = 1;
nodes = (
"794 -26 OFFCURVE",
"1007 87 OFFCURVE",
"1158 262 CURVE",
"1044 329 LINE",
"929 201 OFFCURVE",
"761 114 OFFCURVE",
"587 114 CURVE SMOOTH",
"285 114 OFFCURVE",
"76 377 OFFCURVE",
"122 700 CURVE SMOOTH",
"166 1017 OFFCURVE",
"446 1286 OFFCURVE",
"752 1286 CURVE SMOOTH",
"918 1286 OFFCURVE",
"1067 1202 OFFCURVE",
"1148 1070 CURVE",
"1281 1137 LINE",
"1180 1312 OFFCURVE",
"998 1426 OFFCURVE",
"772 1426 CURVE SMOOTH",
"392 1426 OFFCURVE",
"38 1101 OFFCURVE",
"-18 700 CURVE SMOOTH",
"-75 299 OFFCURVE",
"188 -26 OFFCURVE",
"568 -26 CURVE SMOOTH"
);
}
);
width = 1418;
}
);
leftKerningGroup = O;
leftMetricsKey = O;
rightKerningGroup = C;
unicode = 0043;
},
{
glyphname = D;
lastChange = "2021-08-26 03:05:31 +0000";
layers = (
{
anchors = (
{
name = bottom;
position = "{672, 0}";
},
{
name = center;
position = "{672, 700}";
},
{
name = top;
position = "{652, 1400}";
}
);
hints = (
{
horizontal = 1;
origin = "{0, 8}";
target = "{1, 8}";
type = Stem;
},
{
horizontal = 1;
origin = "{0, 7}";
target = "{1, 0}";
type = Stem;
},
{
origin = "{0, 8}";
target = "{1, 8}";
type = Stem;
},
{
origin = "{1, 4}";
target = "{0, 3}";
type = Stem;
}
);
layerId = "10BC12B3-5274-42E3-B5BC-F74F362F0DF4";
paths = (
{
closed = 1;
nodes = (
"584 0 LINE SMOOTH",
"970 0 OFFCURVE",
"1284 314 OFFCURVE",
"1284 700 CURVE SMOOTH",
"1284 1086 OFFCURVE",
"970 1400 OFFCURVE",
"584 1400 CURVE SMOOTH",
"120 1400 LINE",
"120 0 LINE"
);
},
{
closed = 1;
nodes = (
"420 1100 LINE",
"584 1100 LINE SMOOTH",
"802 1100 OFFCURVE",
"984 920 OFFCURVE",
"984 700 CURVE SMOOTH",
"984 478 OFFCURVE",
"800 300 OFFCURVE",
"584 300 CURVE SMOOTH",
"420 300 LINE"
);
}
);
width = 1344;
},
{
anchors = (
{
name = bottom;
position = "{672, 0}";
},
{
name = center;
position = "{671, 700}";
},
{
name = top;
position = "{652, 1400}";
}
);
hints = (
{
horizontal = 1;
origin = "{0, 8}";
target = "{1, 8}";
type = Stem;
},
{
horizontal = 1;
origin = "{0, 7}";
target = "{1, 0}";
type = Stem;
},
{
origin = "{0, 8}";
target = "{1, 8}";
type = Stem;
},
{
origin = "{1, 4}";
target = "{0, 3}";
type = Stem;
}
);
layerId = "9AF1F7D9-E035-453E-B2A8-46DE370997D0";
paths = (
{
closed = 1;
nodes = (
"582 0 LINE SMOOTH",
"970 0 OFFCURVE",
"1282 314 OFFCURVE",
"1282 700 CURVE SMOOTH",
"1282 1086 OFFCURVE",
"970 1400 OFFCURVE",
"582 1400 CURVE SMOOTH",
"120 1400 LINE",
"120 0 LINE"
);
},
{
closed = 1;
nodes = (
"180 1340 LINE",
"582 1340 LINE SMOOTH",
"936 1340 OFFCURVE",
"1222 1054 OFFCURVE",
"1222 700 CURVE SMOOTH",
"1222 346 OFFCURVE",
"938 60 OFFCURVE",
"582 60 CURVE SMOOTH",
"180 60 LINE"
);
}
);
width = 1342;
},
{
anchors = (
{
name = bottom;
position = "{475, 0}";
},
{
name = center;
position = "{573, 700}";
},
{
name = top;
position = "{652, 1400}";
}
);
hints = (
{
horizontal = 1;
origin = "{0, 8}";
target = "{1, 8}";
type = Stem;
},
{
horizontal = 1;
origin = "{0, 7}";
target = "{1, 0}";
type = Stem;
},
{
origin = "{0, 8}";
target = "{1, 8}";
type = Stem;
},
{
origin = "{1, 4}";
target = "{0, 3}";
type = Stem;
}
);
layerId = m003;
paths = (
{
closed = 1;
nodes = (
"385 0 LINE SMOOTH",
"773 0 OFFCURVE",
"1129 314 OFFCURVE",
"1184 700 CURVE SMOOTH",
"1238 1086 OFFCURVE",
"970 1400 OFFCURVE",
"582 1400 CURVE SMOOTH",
"120 1400 LINE",
"-77 0 LINE"
);
},
{
closed = 1;
nodes = (
"172 1340 LINE",
"574 1340 LINE SMOOTH",
"928 1340 OFFCURVE",
"1173 1054 OFFCURVE",
"1124 700 CURVE SMOOTH",
"1074 346 OFFCURVE",
"750 60 OFFCURVE",
"394 60 CURVE SMOOTH",
"-8 60 LINE"
);
}
);
width = 1342;
},
{
anchors = (
{
name = bottom;
position = "{475, 0}";
},
{
name = center;
position = "{574, 700}";
},
{
name = top;
position = "{652, 1400}";
}
);
hints = (
{
horizontal = 1;
origin = "{0, 8}";
target = "{1, 8}";
type = Stem;
},
{
horizontal = 1;
origin = "{0, 7}";
target = "{1, 0}";
type = Stem;
},
{
origin = "{0, 8}";
target = "{1, 8}";
type = Stem;
},
{
origin = "{1, 4}";
target = "{0, 3}";
type = Stem;
}
);
layerId = m004;
paths = (
{
closed = 1;
nodes = (
"387 0 LINE SMOOTH",
"773 0 OFFCURVE",
"1131 314 OFFCURVE",
"1186 700 CURVE SMOOTH",
"1240 1086 OFFCURVE",
"970 1400 OFFCURVE",
"584 1400 CURVE SMOOTH",
"120 1400 LINE",
"-77 0 LINE"
);
},
{
closed = 1;
nodes = (
"378 1100 LINE",
"542 1100 LINE SMOOTH",
"760 1100 OFFCURVE",
"917 920 OFFCURVE",
"886 700 CURVE SMOOTH",
"854 478 OFFCURVE",
"645 300 OFFCURVE",
"429 300 CURVE SMOOTH",
"265 300 LINE"
);
}
);
width = 1344;
},
{
anchors = (
{
name = bottom;
position = "{672, 0}";
},
{
name = center;
position = "{671, 700}";
},
{
name = top;
position = "{652, 1400}";
}
);
hints = (
{
horizontal = 1;
origin = "{0, 8}";
target = "{1, 8}";
type = Stem;
},
{
horizontal = 1;
origin = "{0, 7}";
target = "{1, 0}";
type = Stem;
},
{
origin = "{0, 8}";
target = "{1, 8}";
type = Stem;
},
{
origin = "{1, 4}";
target = "{0, 3}";
type = Stem;
}
);
layerId = "81BB4A08-F3DE-40E2-9BD9-52E47EDF5C1E";
paths = (
{
closed = 1;
nodes = (
"583 0 LINE SMOOTH",
"970 0 OFFCURVE",
"1283 314 OFFCURVE",
"1283 700 CURVE SMOOTH",
"1283 1086 OFFCURVE",
"970 1400 OFFCURVE",
"583 1400 CURVE SMOOTH",
"120 1400 LINE",
"120 0 LINE"
);
},
{
closed = 1;
nodes = (
"260 1260 LINE",
"583 1260 LINE SMOOTH",
"891 1260 OFFCURVE",
"1143 1009 OFFCURVE",
"1143 700 CURVE SMOOTH",
"1143 390 OFFCURVE",
"892 140 OFFCURVE",
"583 140 CURVE SMOOTH",
"260 140 LINE"
);
}
);
width = 1342.66667;
},
{
anchors = (
{
name = bottom;
position = "{475, 0}";
},
{
name = center;
position = "{573, 700}";
},
{
name = top;
position = "{652, 1400}";
}
);
hints = (
{
horizontal = 1;
origin = "{0, 8}";
target = "{1, 8}";
type = Stem;
},
{
horizontal = 1;
origin = "{0, 7}";
target = "{1, 0}";
type = Stem;
},
{
origin = "{0, 8}";
target = "{1, 8}";
type = Stem;
},
{
origin = "{1, 4}";
target = "{0, 3}";
type = Stem;
}
);
layerId = "6C2B4A57-296A-49E8-ACE5-0BEFCC4AFC9C";
paths = (
{
closed = 1;
nodes = (
"386 0 LINE SMOOTH",
"773 0 OFFCURVE",
"1130 314 OFFCURVE",
"1185 700 CURVE SMOOTH",
"1239 1086 OFFCURVE",
"970 1400 OFFCURVE",
"583 1400 CURVE SMOOTH",
"120 1400 LINE",
"-77 0 LINE"
);
},
{
closed = 1;
nodes = (
"241 1260 LINE",
"563 1260 LINE SMOOTH",
"872 1260 OFFCURVE",
"1088 1009 OFFCURVE",
"1045 700 CURVE SMOOTH",
"1001 390 OFFCURVE",
"715 140 OFFCURVE",
"406 140 CURVE SMOOTH",
"83 140 LINE"
);
}
);
width = 1342.66667;
}
);
leftKerningGroup = H;
leftMetricsKey = H;
rightKerningGroup = O;
unicode = 0044;
},
{
glyphname = Eth;
lastChange = "2021-08-26 03:05:31 +0000";
layers = (
{
hints = (
{
horizontal = 1;
origin = "{0, 12}";
target = "{1, 12}";
type = Stem;
},
{
horizontal = 1;
origin = "{0, 10}";
target = "{0, 9}";
type = Stem;
},
{
horizontal = 1;
origin = "{0, 7}";
target = "{1, 4}";
type = Stem;
},
{
origin = "{0, 12}";
target = "{1, 12}";
type = Stem;
},
{
origin = "{1, 8}";
target = "{0, 3}";
type = Stem;
}
);
layerId = "10BC12B3-5274-42E3-B5BC-F74F362F0DF4";
paths = (
{
closed = 1;
nodes = (
"702 0 LINE SMOOTH",
"1088 0 OFFCURVE",
"1402 314 OFFCURVE",
"1402 700 CURVE SMOOTH",
"1402 1086 OFFCURVE",
"1088 1400 OFFCURVE",
"702 1400 CURVE SMOOTH",
"240 1400 LINE",
"240 900 LINE",
"100 900 LINE",
"100 600 LINE",
"240 600 LINE",
"240 0 LINE"
);
},
{
closed = 1;
nodes = (
"540 600 LINE",
"778 600 LINE",
"778 900 LINE",
"540 900 LINE",
"540 1100 LINE",
"702 1100 LINE SMOOTH",
"922 1100 OFFCURVE",
"1102 920 OFFCURVE",
"1102 700 CURVE SMOOTH",
"1102 480 OFFCURVE",
"922 300 OFFCURVE",
"702 300 CURVE SMOOTH",
"540 300 LINE"
);
}
);
width = 1462;
},
{
hints = (
{
horizontal = 1;
origin = "{0, 12}";
target = "{1, 12}";
type = Stem;
},
{
horizontal = 1;
origin = "{0, 10}";
target = "{0, 9}";
type = Stem;
},
{
horizontal = 1;
origin = "{0, 7}";
target = "{1, 4}";
type = Stem;
},
{
origin = "{0, 12}";
target = "{1, 12}";
type = Stem;
},
{
origin = "{1, 8}";
target = "{0, 3}";
type = Stem;
}
);
layerId = "9AF1F7D9-E035-453E-B2A8-46DE370997D0";
paths = (
{
closed = 1;
nodes = (
"692 0 LINE SMOOTH",
"1078 0 OFFCURVE",
"1392 314 OFFCURVE",
"1392 700 CURVE SMOOTH",
"1392 1086 OFFCURVE",
"1078 1400 OFFCURVE",
"692 1400 CURVE SMOOTH",
"228 1400 LINE",
"228 780 LINE",
"100 780 LINE",
"100 720 LINE",
"228 720 LINE",
"228 0 LINE"
);
},
{
closed = 1;
nodes = (
"288 720 LINE",
"686 720 LINE",
"686 780 LINE",
"288 780 LINE",
"288 1340 LINE",
"692 1340 LINE SMOOTH",
"1036 1340 OFFCURVE",
"1332 1060 OFFCURVE",
"1332 700 CURVE SMOOTH",
"1332 354 OFFCURVE",
"1052 60 OFFCURVE",
"692 60 CURVE SMOOTH",
"288 60 LINE"
);
}
);
width = 1452;
},
{
hints = (
{
horizontal = 1;
origin = "{0, 12}";
target = "{1, 12}";
type = Stem;
},
{
horizontal = 1;
origin = "{0, 10}";
target = "{0, 9}";
type = Stem;
},
{
horizontal = 1;
origin = "{0, 7}";
target = "{1, 4}";
type = Stem;
},
{
origin = "{0, 12}";
target = "{1, 12}";
type = Stem;
},
{
origin = "{1, 8}";
target = "{0, 3}";
type = Stem;
}
);
layerId = m003;
paths = (
{
closed = 1;
nodes = (
"495 0 LINE SMOOTH",
"881 0 OFFCURVE",
"1239 314 OFFCURVE",
"1294 700 CURVE SMOOTH",
"1348 1086 OFFCURVE",
"1078 1400 OFFCURVE",
"692 1400 CURVE SMOOTH",
"228 1400 LINE",
"141 780 LINE",
"13 780 LINE",
"4 720 LINE",
"132 720 LINE",
"31 0 LINE"
);
},
{
closed = 1;
nodes = (
"192 720 LINE",
"590 720 LINE",
"599 780 LINE",
"201 780 LINE",
"280 1340 LINE",
"684 1340 LINE SMOOTH",
"1028 1340 OFFCURVE",
"1284 1060 OFFCURVE",
"1234 700 CURVE SMOOTH",
"1185 354 OFFCURVE",
"864 60 OFFCURVE",
"504 60 CURVE SMOOTH",
"100 60 LINE"
);
}
);
width = 1452;
},
{
hints = (
{
horizontal = 1;
origin = "{0, 12}";
target = "{1, 12}";
type = Stem;
},
{
horizontal = 1;
origin = "{0, 10}";
target = "{0, 9}";
type = Stem;
},
{
horizontal = 1;
origin = "{0, 7}";
target = "{1, 4}";
type = Stem;
},
{
origin = "{0, 12}";
target = "{1, 12}";
type = Stem;
},
{
origin = "{1, 8}";
target = "{0, 3}";
type = Stem;
}
);
layerId = m004;
paths = (
{
closed = 1;
nodes = (
"504 0 LINE SMOOTH",
"890 0 OFFCURVE",
"1248 314 OFFCURVE",
"1303 700 CURVE SMOOTH",
"1357 1086 OFFCURVE",
"1087 1400 OFFCURVE",
"701 1400 CURVE SMOOTH",
"239 1400 LINE",
"169 900 LINE",
"29 900 LINE",
"-13 600 LINE",
"127 600 LINE",
"42 0 LINE"
);
},
{
closed = 1;
nodes = (
"427 600 LINE",
"665 600 LINE",
"707 900 LINE",
"469 900 LINE",
"497 1100 LINE",
"659 1100 LINE SMOOTH",
"879 1100 OFFCURVE",
"1034 920 OFFCURVE",
"1003 700 CURVE SMOOTH",
"972 480 OFFCURVE",
"766 300 OFFCURVE",
"546 300 CURVE SMOOTH",
"384 300 LINE"
);
}
);
width = 1461;
},
{
hints = (
{
horizontal = 1;
origin = "{0, 12}";
target = "{1, 12}";
type = Stem;
},
{
horizontal = 1;
origin = "{0, 10}";
target = "{0, 9}";
type = Stem;
},
{
horizontal = 1;
origin = "{0, 7}";
target = "{1, 4}";
type = Stem;
},
{
origin = "{0, 12}";
target = "{1, 12}";
type = Stem;
},
{
origin = "{1, 8}";
target = "{0, 3}";
type = Stem;
}
);
layerId = "81BB4A08-F3DE-40E2-9BD9-52E47EDF5C1E";
paths = (
{
closed = 1;
nodes = (
"695 0 LINE SMOOTH",
"1081 0 OFFCURVE",
"1395 314 OFFCURVE",
"1395 700 CURVE SMOOTH",
"1395 1086 OFFCURVE",
"1081 1400 OFFCURVE",
"695 1400 CURVE SMOOTH",
"232 1400 LINE",
"232 820 LINE",
"100 820 LINE",
"100 680 LINE",
"232 680 LINE",
"232 0 LINE"
);
},
{
closed = 1;
nodes = (
"372 680 LINE",
"717 680 LINE",
"717 820 LINE",
"372 820 LINE",
"372 1260 LINE",
"695 1260 LINE SMOOTH",
"998 1260 OFFCURVE",
"1255 1013 OFFCURVE",
"1255 700 CURVE SMOOTH",
"1255 396 OFFCURVE",
"1009 140 OFFCURVE",
"695 140 CURVE SMOOTH",
"372 140 LINE"
);
}
);
width = 1455.33333;
},
{
hints = (
{
horizontal = 1;
origin = "{0, 12}";
target = "{1, 12}";
type = Stem;
},
{
horizontal = 1;
origin = "{0, 10}";
target = "{0, 9}";
type = Stem;
},
{
horizontal = 1;
origin = "{0, 7}";
target = "{1, 4}";
type = Stem;
},
{
origin = "{0, 12}";
target = "{1, 12}";
type = Stem;
},
{
origin = "{1, 8}";
target = "{0, 3}";
type = Stem;
}
);
layerId = "6C2B4A57-296A-49E8-ACE5-0BEFCC4AFC9C";
paths = (
{
closed = 1;
nodes = (
"498 0 LINE SMOOTH",
"884 0 OFFCURVE",
"1242 314 OFFCURVE",
"1297 700 CURVE SMOOTH",
"1351 1086 OFFCURVE",
"1081 1400 OFFCURVE",
"695 1400 CURVE SMOOTH",
"232 1400 LINE",
"150 820 LINE",
"18 820 LINE",
"-2 680 LINE",
"130 680 LINE",
"35 0 LINE"
);
},
{
closed = 1;
nodes = (
"270 680 LINE",
"615 680 LINE",
"635 820 LINE",
"290 820 LINE",
"352 1260 LINE",
"676 1260 LINE SMOOTH",
"978 1260 OFFCURVE",
"1201 1013 OFFCURVE",
"1157 700 CURVE SMOOTH",
"1114 396 OFFCURVE",
"831 140 OFFCURVE",
"518 140 CURVE SMOOTH",
"195 140 LINE"
);
}
);
width = 1455;
}
);
leftKerningGroup = H;
leftMetricsKey = "=D-20";
rightKerningGroup = O;
rightMetricsKey = D;
unicode = 00D0;
},
{
glyphname = E;
lastChange = "2021-08-26 03:05:31 +0000";
layers = (
{
anchors = (
{
name = bottom;
position = "{556, 0}";
},
{
name = ogonek;
position = "{910, 0}";
},
{
name = top;
position = "{556, 1400}";
},
{
name = topleft;
position = "{20, 1400}";
}
);
hints = (
{
horizontal = 1;
origin = "{0, 11}";
target = "{0, 2}";
type = Stem;
},
{
horizontal = 1;
origin = "{0, 3}";
target = "{0, 6}";
type = Stem;
},
{
horizontal = 1;
origin = "{0, 10}";
target = "{0, 7}";
type = Stem;
},
{
origin = "{0, 11}";
target = "{0, 2}";
type = Stem;
}
);
layerId = "10BC12B3-5274-42E3-B5BC-F74F362F0DF4";
paths = (
{
closed = 1;
nodes = (
"1012 0 LINE",
"1012 300 LINE",
"420 300 LINE",
"420 600 LINE",
"876 600 LINE",
"876 900 LINE",
"420 900 LINE",
"420 1100 LINE",
"1012 1100 LINE",
"1012 1400 LINE",
"120 1400 LINE",
"120 0 LINE"
);
}
);
width = 1112;
},
{
anchors = (
{
name = bottom;
position = "{526, 0}";
},
{
name = ogonek;
position = "{823, 0}";
},
{
name = top;
position = "{526, 1400}";
},
{
name = topleft;
position = "{20, 1400}";
}
);
hints = (
{
horizontal = 1;
origin = "{0, 11}";
target = "{0, 2}";
type = Stem;
},
{
horizontal = 1;
origin = "{0, 3}";
target = "{0, 6}";
type = Stem;
},
{
horizontal = 1;
origin = "{0, 10}";
target = "{0, 7}";
type = Stem;
},
{
origin = "{0, 11}";
target = "{0, 2}";
type = Stem;
}
);
layerId = "9AF1F7D9-E035-453E-B2A8-46DE370997D0";
paths = (
{
closed = 1;
nodes = (
"952 0 LINE",
"952 60 LINE",
"180 60 LINE",
"180 720 LINE",
"836 720 LINE",
"836 780 LINE",
"180 780 LINE",
"180 1340 LINE",
"952 1340 LINE",
"952 1400 LINE",
"120 1400 LINE",
"120 0 LINE"
);
}
);
width = 1052;
},
{
anchors = (
{
name = bottom;
position = "{329, 0}";
},
{
name = ogonek;
position = "{626, 0}";
},
{
name = top;
position = "{526, 1400}";
},
{
name = topleft;
position = "{20, 1400}";
}
);
hints = (
{
horizontal = 1;
origin = "{0, 11}";
target = "{0, 2}";
type = Stem;
},
{
horizontal = 1;
origin = "{0, 3}";
target = "{0, 6}";
type = Stem;
},
{
horizontal = 1;
origin = "{0, 10}";
target = "{0, 7}";
type = Stem;
},
{
origin = "{0, 11}";
target = "{0, 2}";
type = Stem;
}
);
layerId = m003;
paths = (
{
closed = 1;
nodes = (
"755 0 LINE",
"764 60 LINE",
"-8 60 LINE",
"84 720 LINE",
"740 720 LINE",
"749 780 LINE",
"93 780 LINE",
"172 1340 LINE",
"944 1340 LINE",
"952 1400 LINE",
"120 1400 LINE",
"-77 0 LINE"
);
}
);
width = 1052;
},
{
anchors = (
{
name = bottom;
position = "{359, 0}";
},
{
name = ogonek;
position = "{713, 0}";
},
{
name = top;
position = "{556, 1400}";
},
{
name = topleft;
position = "{20, 1400}";
}
);
hints = (
{
horizontal = 1;
origin = "{0, 11}";
target = "{0, 2}";
type = Stem;
},
{
horizontal = 1;
origin = "{0, 3}";
target = "{0, 6}";
type = Stem;
},
{
horizontal = 1;
origin = "{0, 10}";
target = "{0, 7}";
type = Stem;
},
{
origin = "{0, 11}";
target = "{0, 2}";
type = Stem;
}
);
layerId = m004;
paths = (
{
closed = 1;
nodes = (
"815 0 LINE",
"857 300 LINE",
"265 300 LINE",
"308 600 LINE",
"764 600 LINE",
"806 900 LINE",
"350 900 LINE",
"378 1100 LINE",
"970 1100 LINE",
"1012 1400 LINE",
"120 1400 LINE",
"-77 0 LINE"
);
}
);
width = 1112;
},
{
anchors = (
{
name = bottom;
position = "{536, 0}";
},
{
name = ogonek;
position = "{852, 0}";
},
{
name = top;
position = "{536, 1400}";
},
{
name = topleft;
position = "{20, 1400}";
}
);
hints = (
{
horizontal = 1;
origin = "{0, 11}";
target = "{0, 2}";
type = Stem;
},
{
horizontal = 1;
origin = "{0, 3}";
target = "{0, 6}";
type = Stem;
},
{
horizontal = 1;
origin = "{0, 10}";
target = "{0, 7}";
type = Stem;
},
{
origin = "{0, 11}";
target = "{0, 2}";
type = Stem;
}
);
layerId = "81BB4A08-F3DE-40E2-9BD9-52E47EDF5C1E";
paths = (
{
closed = 1;
nodes = (
"972 0 LINE",
"972 140 LINE",
"260 140 LINE",
"260 680 LINE",
"849 680 LINE",
"849 820 LINE",
"260 820 LINE",
"260 1260 LINE",
"972 1260 LINE",
"972 1400 LINE",
"120 1400 LINE",
"120 0 LINE"
);
}
);
width = 1072;
},
{
anchors = (
{
name = bottom;
position = "{339, 0}";
},
{
name = ogonek;
position = "{655, 0}";
},
{
name = top;
position = "{536, 1400}";
},
{
name = topleft;
position = "{20, 1400}";
}
);
hints = (
{
horizontal = 1;
origin = "{0, 11}";
target = "{0, 2}";
type = Stem;
},
{
horizontal = 1;
origin = "{0, 3}";
target = "{0, 6}";
type = Stem;
},
{
horizontal = 1;
origin = "{0, 10}";
target = "{0, 7}";
type = Stem;
},
{
origin = "{0, 11}";
target = "{0, 2}";
type = Stem;
}
);
layerId = "6C2B4A57-296A-49E8-ACE5-0BEFCC4AFC9C";
paths = (
{
closed = 1;
nodes = (
"775 0 LINE",
"795 140 LINE",
"83 140 LINE",
"159 680 LINE",
"748 680 LINE",
"768 820 LINE",
"179 820 LINE",
"241 1260 LINE",
"953 1260 LINE",
"972 1400 LINE",
"120 1400 LINE",
"-77 0 LINE"
);
}
);
width = 1072;
}
);
leftKerningGroup = H;
leftMetricsKey = H;
rightKerningGroup = E;
unicode = 0045;
},
{
glyphname = F;
lastChange = "2021-08-26 03:05:31 +0000";
layers = (
{
anchors = (
{
name = bottom;
position = "{486, 0}";
},
{
name = top;
position = "{486, 1400}";
}
);
hints = (
{
horizontal = 1;
origin = "{0, 9}";
target = up;
type = BottomGhost;
},
{
horizontal = 1;
origin = "{0, 1}";
target = "{0, 4}";
type = Stem;
},
{
horizontal = 1;
origin = "{0, 8}";
target = "{0, 5}";
type = Stem;
},
{
origin = "{0, 9}";
target = "{0, 0}";
type = Stem;
}
);
layerId = "10BC12B3-5274-42E3-B5BC-F74F362F0DF4";
paths = (
{
closed = 1;
nodes = (
"420 0 LINE",
"420 600 LINE",
"856 600 LINE",
"856 900 LINE",
"420 900 LINE",
"420 1100 LINE",
"952 1100 LINE",
"952 1400 LINE",
"120 1400 LINE",
"120 0 LINE"
);
}
);
width = 972;
},
{
anchors = (
{
name = bottom;
position = "{476, 0}";
},
{
name = top;
position = "{476, 1400}";
}
);
hints = (
{
horizontal = 1;
origin = "{0, 9}";
target = up;
type = BottomGhost;
},
{
horizontal = 1;
origin = "{0, 1}";
target = "{0, 4}";
type = Stem;
},
{
horizontal = 1;
origin = "{0, 8}";
target = "{0, 5}";
type = Stem;
},
{
origin = "{0, 9}";
target = "{0, 0}";
type = Stem;
}
);
layerId = "9AF1F7D9-E035-453E-B2A8-46DE370997D0";
paths = (
{
closed = 1;
nodes = (
"180 0 LINE",
"180 720 LINE",
"836 720 LINE",
"836 780 LINE",
"180 780 LINE",
"180 1340 LINE",
"932 1340 LINE",
"932 1400 LINE",
"120 1400 LINE",
"120 0 LINE"
);
}
);
width = 952;
},
{
anchors = (
{
name = bottom;
position = "{279, 0}";
},
{
name = top;
position = "{476, 1400}";
}
);
hints = (
{
horizontal = 1;
origin = "{0, 9}";
target = up;
type = BottomGhost;
},
{
horizontal = 1;
origin = "{0, 1}";
target = "{0, 4}";
type = Stem;
},
{
horizontal = 1;
origin = "{0, 8}";
target = "{0, 5}";
type = Stem;
},
{
origin = "{0, 9}";
target = "{0, 0}";
type = Stem;
}
);
layerId = m003;
paths = (
{
closed = 1;
nodes = (
"-17 0 LINE",
"84 720 LINE",
"740 720 LINE",
"749 780 LINE",
"93 780 LINE",
"172 1340 LINE",
"924 1340 LINE",
"932 1400 LINE",
"120 1400 LINE",
"-77 0 LINE"
);
}
);
width = 952;
},
{
anchors = (
{
name = bottom;
position = "{289, 0}";
},
{
name = top;
position = "{486, 1400}";
}
);
hints = (
{
horizontal = 1;
origin = "{0, 9}";
target = up;
type = BottomGhost;
},
{
horizontal = 1;
origin = "{0, 1}";
target = "{0, 4}";
type = Stem;
},
{
horizontal = 1;
origin = "{0, 8}";
target = "{0, 5}";
type = Stem;
},
{
origin = "{0, 9}";
target = "{0, 0}";
type = Stem;
}
);
layerId = m004;
paths = (
{
closed = 1;
nodes = (
"223 0 LINE",
"308 600 LINE",
"744 600 LINE",
"786 900 LINE",
"350 900 LINE",
"378 1100 LINE",
"910 1100 LINE",
"952 1400 LINE",
"120 1400 LINE",
"-77 0 LINE"
);
}
);
width = 972;
},
{
anchors = (
{
name = bottom;
position = "{479, 0}";
},
{
name = top;
position = "{479, 1400}";
}
);
hints = (
{
horizontal = 1;
origin = "{0, 9}";
target = up;
type = BottomGhost;
},
{
horizontal = 1;
origin = "{0, 1}";
target = "{0, 4}";
type = Stem;
},
{
horizontal = 1;
origin = "{0, 8}";
target = "{0, 5}";
type = Stem;
},
{
origin = "{0, 9}";
target = "{0, 0}";
type = Stem;
}
);
layerId = "81BB4A08-F3DE-40E2-9BD9-52E47EDF5C1E";
paths = (
{
closed = 1;
nodes = (
"260 0 LINE",
"260 680 LINE",
"843 680 LINE",
"843 820 LINE",
"260 820 LINE",
"260 1260 LINE",
"939 1260 LINE",
"939 1400 LINE",
"120 1400 LINE",
"120 0 LINE"
);
}
);
width = 958.66667;
},
{
anchors = (
{
name = bottom;
position = "{282, 0}";
},
{
name = top;
position = "{479, 1400}";
}
);
hints = (
{
horizontal = 1;
origin = "{0, 9}";
target = up;
type = BottomGhost;
},
{
horizontal = 1;
origin = "{0, 1}";
target = "{0, 4}";
type = Stem;
},
{
horizontal = 1;
origin = "{0, 8}";
target = "{0, 5}";
type = Stem;
},
{
origin = "{0, 9}";
target = "{0, 0}";
type = Stem;
}
);
layerId = "6C2B4A57-296A-49E8-ACE5-0BEFCC4AFC9C";
paths = (
{
closed = 1;
nodes = (
"63 0 LINE",
"159 680 LINE",
"741 680 LINE",
"761 820 LINE",
"179 820 LINE",
"241 1260 LINE",
"919 1260 LINE",
"939 1400 LINE",
"120 1400 LINE",
"-77 0 LINE"
);
}
);
width = 958.66667;
}
);
leftKerningGroup = H;
leftMetricsKey = H;
rightKerningGroup = F;
unicode = 0046;
},
{
glyphname = G;
lastChange = "2021-08-26 03:05:31 +0000";
layers = (
{
anchors = (
{
name = bottom;
position = "{769, 0}";
},
{
name = top;
position = "{769, 1400}";
}
);
hints = (
{
horizontal = 1;
origin = "{0, 27}";
target = "{0, 8}";
type = Stem;
},
{
horizontal = 1;
origin = "{0, 4}";
target = "{0, 3}";
type = Stem;
},
{
horizontal = 1;
origin = "{0, 21}";
target = "{0, 14}";
type = Stem;
},
{
origin = "{0, 24}";
target = "{0, 11}";
type = Stem;
}
);
layerId = "10BC12B3-5274-42E3-B5BC-F74F362F0DF4";
paths = (
{
closed = 1;
nodes = (
"1164 -26 OFFCURVE",
"1476 322 OFFCURVE",
"1456 740 CURVE",
"914 740 LINE",
"914 480 LINE",
"1102 480 LINE",
"1020 338 OFFCURVE",
"894 274 OFFCURVE",
"772 274 CURVE SMOOTH",
"556 274 OFFCURVE",
"380 460 OFFCURVE",
"380 696 CURVE SMOOTH",
"380 952 OFFCURVE",
"570 1126 OFFCURVE",
"770 1126 CURVE SMOOTH",
"868 1126 OFFCURVE",
"968 1084 OFFCURVE",
"1050 992 CURVE",
"1318 1136 LINE",
"1166 1338 OFFCURVE",
"968 1424 OFFCURVE",
"774 1424 CURVE SMOOTH",
"418 1424 OFFCURVE",
"80 1130 OFFCURVE",
"80 702 CURVE SMOOTH",
"80 304 OFFCURVE",
"376 -26 OFFCURVE",
"768 -26 CURVE SMOOTH"
);
}
);
width = 1537;
},
{
anchors = (
{
name = bottom;
position = "{768, 0}";
},
{
name = top;
position = "{770, 1400}";
}
);
hints = (
{
horizontal = 1;
origin = "{0, 27}";
target = "{0, 8}";
type = Stem;
},
{
horizontal = 1;
origin = "{0, 4}";
target = "{0, 3}";
type = Stem;
},
{
horizontal = 1;
origin = "{0, 21}";
target = "{0, 14}";
type = Stem;
},
{
origin = "{0, 24}";
target = "{0, 11}";
type = Stem;
}
);
layerId = "9AF1F7D9-E035-453E-B2A8-46DE370997D0";
paths = (
{
closed = 1;
nodes = (
"1130 -26 OFFCURVE",
"1432 272 OFFCURVE",
"1456 642 CURVE",
"916 642 LINE",
"916 582 LINE",
"1388 582 LINE",
"1342 282 OFFCURVE",
"1084 34 OFFCURVE",
"770 34 CURVE SMOOTH",
"422 34 OFFCURVE",
"140 336 OFFCURVE",
"140 700 CURVE SMOOTH",
"140 1058 OFFCURVE",
"418 1366 OFFCURVE",
"770 1366 CURVE SMOOTH",
"960 1366 OFFCURVE",
"1146 1272 OFFCURVE",
"1266 1108 CURVE",
"1320 1138 LINE",
"1194 1312 OFFCURVE",
"994 1426 OFFCURVE",
"770 1426 CURVE SMOOTH",
"388 1426 OFFCURVE",
"80 1100 OFFCURVE",
"80 700 CURVE SMOOTH",
"80 300 OFFCURVE",
"388 -26 OFFCURVE",
"770 -26 CURVE SMOOTH"
);
}
);
width = 1536;
},
{
anchors = (
{
name = bottom;
position = "{571, 0}";
},
{
name = top;
position = "{770, 1400}";
}
);
hints = (
{
horizontal = 1;
origin = "{0, 27}";
target = "{0, 8}";
type = Stem;
},
{
horizontal = 1;
origin = "{0, 4}";
target = "{0, 3}";
type = Stem;
},
{
horizontal = 1;
origin = "{0, 21}";
target = "{0, 14}";
type = Stem;
},
{
origin = "{0, 24}";
target = "{0, 11}";
type = Stem;
}
);
layerId = m003;
paths = (
{
closed = 1;
nodes = (
"930 -26 OFFCURVE",
"1273 272 OFFCURVE",
"1349 642 CURVE",
"809 642 LINE",
"801 582 LINE",
"1273 582 LINE",
"1185 282 OFFCURVE",
"892 34 OFFCURVE",
"578 34 CURVE SMOOTH",
"230 34 OFFCURVE",
"-10 336 OFFCURVE",
"42 700 CURVE SMOOTH",
"92 1058 OFFCURVE",
"413 1366 OFFCURVE",
"765 1366 CURVE SMOOTH",
"955 1366 OFFCURVE",
"1128 1272 OFFCURVE",
"1225 1108 CURVE",
"1283 1138 LINE",
"1182 1312 OFFCURVE",
"998 1426 OFFCURVE",
"774 1426 CURVE SMOOTH",
"392 1426 OFFCURVE",
"38 1100 OFFCURVE",
"-18 700 CURVE SMOOTH",
"-75 300 OFFCURVE",
"188 -26 OFFCURVE",
"570 -26 CURVE SMOOTH"
);
}
);
width = 1535;
},
{
anchors = (
{
name = bottom;
position = "{572, 0}";
},
{
name = top;
position = "{769, 1400}";
}
);
hints = (
{
horizontal = 1;
origin = "{0, 27}";
target = "{0, 8}";
type = Stem;
},
{
horizontal = 1;
origin = "{0, 4}";
target = "{0, 3}";
type = Stem;
},
{
horizontal = 1;
origin = "{0, 21}";
target = "{0, 14}";
type = Stem;
},
{
origin = "{0, 24}";
target = "{0, 11}";
type = Stem;
}
);
layerId = m004;
paths = (
{
closed = 1;
nodes = (
"964 -26 OFFCURVE",
"1324 322 OFFCURVE",
"1363 740 CURVE",
"821 740 LINE",
"785 480 LINE",
"973 480 LINE",
"871 338 OFFCURVE",
"736 274 OFFCURVE",
"614 274 CURVE SMOOTH",
"398 274 OFFCURVE",
"248 460 OFFCURVE",
"281 696 CURVE SMOOTH",
"317 952 OFFCURVE",
"531 1126 OFFCURVE",
"731 1126 CURVE SMOOTH",
"829 1126 OFFCURVE",
"924 1084 OFFCURVE",
"993 992 CURVE",
"1281 1136 LINE",
"1157 1338 OFFCURVE",
"971 1424 OFFCURVE",
"777 1424 CURVE SMOOTH",
"421 1424 OFFCURVE",
"42 1130 OFFCURVE",
"-18 702 CURVE SMOOTH",
"-74 304 OFFCURVE",
"176 -26 OFFCURVE",
"568 -26 CURVE SMOOTH"
);
}
);
width = 1536;
},
{
anchors = (
{
name = bottom;
position = "{768, 0}";
},
{
name = top;
position = "{770, 1400}";
}
);
hints = (
{
horizontal = 1;
origin = "{0, 27}";
target = "{0, 8}";
type = Stem;
},
{
horizontal = 1;
origin = "{0, 4}";
target = "{0, 3}";
type = Stem;
},
{
horizontal = 1;
origin = "{0, 21}";
target = "{0, 14}";
type = Stem;
},
{
origin = "{0, 24}";
target = "{0, 11}";
type = Stem;
}
);
layerId = "81BB4A08-F3DE-40E2-9BD9-52E47EDF5C1E";
paths = (
{
closed = 1;
nodes = (
"1141 -26 OFFCURVE",
"1447 289 OFFCURVE",
"1456 675 CURVE",
"915 675 LINE",
"915 548 LINE",
"1293 548 LINE",
"1235 301 OFFCURVE",
"1021 114 OFFCURVE",
"771 114 CURVE SMOOTH",
"467 114 OFFCURVE",
"220 377 OFFCURVE",
"220 699 CURVE SMOOTH",
"220 1023 OFFCURVE",
"469 1286 OFFCURVE",
"770 1286 CURVE SMOOTH",
"929 1286 OFFCURVE",
"1087 1209 OFFCURVE",
"1194 1069 CURVE",
"1319 1137 LINE",
"1185 1321 OFFCURVE",
"985 1425 OFFCURVE",
"771 1425 CURVE SMOOTH",
"398 1425 OFFCURVE",
"80 1110 OFFCURVE",
"80 701 CURVE SMOOTH",
"80 301 OFFCURVE",
"384 -26 OFFCURVE",
"769 -26 CURVE SMOOTH"
);
}
);
width = 1536.33333;
},
{
anchors = (
{
name = bottom;
position = "{571, 0}";
},
{
name = top;
position = "{770, 1400}";
}
);
hints = (
{
horizontal = 1;
origin = "{0, 27}";
target = "{0, 8}";
type = Stem;
},
{
horizontal = 1;
origin = "{0, 4}";
target = "{0, 3}";
type = Stem;
},
{
horizontal = 1;
origin = "{0, 21}";
target = "{0, 14}";
type = Stem;
},
{
origin = "{0, 24}";
target = "{0, 11}";
type = Stem;
}
);
layerId = "6C2B4A57-296A-49E8-ACE5-0BEFCC4AFC9C";
paths = (
{
closed = 1;
nodes = (
"941 -26 OFFCURVE",
"1290 289 OFFCURVE",
"1354 675 CURVE",
"813 675 LINE",
"796 548 LINE",
"1173 548 LINE",
"1080 301 OFFCURVE",
"840 114 OFFCURVE",
"590 114 CURVE SMOOTH",
"286 114 OFFCURVE",
"76 377 OFFCURVE",
"122 699 CURVE SMOOTH",
"167 1023 OFFCURVE",
"452 1286 OFFCURVE",
"754 1286 CURVE SMOOTH",
"913 1286 OFFCURVE",
"1060 1209 OFFCURVE",
"1148 1069 CURVE",
"1282 1137 LINE",
"1174 1321 OFFCURVE",
"989 1425 OFFCURVE",
"775 1425 CURVE SMOOTH",
"402 1425 OFFCURVE",
"39 1110 OFFCURVE",
"-18 701 CURVE SMOOTH",
"-75 301 OFFCURVE",
"184 -26 OFFCURVE",
"569 -26 CURVE SMOOTH"
);
}
);
width = 1535.33333;
}
);
leftKerningGroup = O;
leftMetricsKey = O;
rightKerningGroup = O;
rightMetricsKey = O;
unicode = 0047;
},
{
glyphname = H;
lastChange = "2021-08-26 03:05:31 +0000";
layers = (
{
anchors = (
{
name = bottom;
position = "{668, 0}";
},
{
name = center;
position = "{668, 700}";
},
{
name = top;
position = "{668, 1400}";
},
{
name = topleft;
position = "{20, 1400}";
}
);
hints = (
{
horizontal = 1;
origin = "{0, 4}";
target = up;
type = BottomGhost;
},
{
horizontal = 1;
origin = "{0, 6}";
target = "{0, 1}";
type = Stem;
},
{
horizontal = 1;
origin = "{0, 3}";
target = down;
type = TopGhost;
},
{
origin = "{0, 4}";
target = "{0, 5}";
type = Stem;
},
{
origin = "{0, 8}";
target = "{0, 9}";
type = Stem;
}
);
layerId = "10BC12B3-5274-42E3-B5BC-F74F362F0DF4";
paths = (
{
closed = 1;
nodes = (
"916 900 LINE",
"420 900 LINE",
"420 1400 LINE",
"120 1400 LINE",
"120 0 LINE",
"420 0 LINE",
"420 600 LINE",
"916 600 LINE",
"916 0 LINE",
"1216 0 LINE",
"1216 1400 LINE",
"916 1400 LINE"
);
}
);
width = 1336;
},
{
anchors = (
{
name = bottom;
position = "{607, 0}";
},
{
name = center;
position = "{607, 700}";
},
{
name = top;
position = "{607, 1400}";
},
{
name = topleft;
position = "{20, 1400}";
}
);
hints = (
{
horizontal = 1;
origin = "{0, 4}";
target = up;
type = BottomGhost;
},
{
horizontal = 1;
origin = "{0, 6}";
target = "{0, 1}";
type = Stem;
},
{
horizontal = 1;
origin = "{0, 3}";
target = down;
type = TopGhost;
},
{
origin = "{0, 4}";
target = "{0, 5}";
type = Stem;
},
{
origin = "{0, 8}";
target = "{0, 9}";
type = Stem;
}
);
layerId = "9AF1F7D9-E035-453E-B2A8-46DE370997D0";
paths = (
{
closed = 1;
nodes = (
"1034 780 LINE",
"180 780 LINE",
"180 1400 LINE",
"120 1400 LINE",
"120 0 LINE",
"180 0 LINE",
"180 720 LINE",
"1034 720 LINE",
"1034 0 LINE",
"1094 0 LINE",
"1094 1400 LINE",
"1034 1400 LINE"
);
}
);
width = 1214;
},
{
anchors = (
{
name = bottom;
position = "{410, 0}";
},
{
name = center;
position = "{509, 700}";
},
{
name = top;
position = "{607, 1400}";
},
{
name = topleft;
position = "{20, 1400}";
}
);
hints = (
{
horizontal = 1;
origin = "{0, 4}";
target = up;
type = BottomGhost;
},
{
horizontal = 1;
origin = "{0, 6}";
target = "{0, 1}";
type = Stem;
},
{
horizontal = 1;
origin = "{0, 3}";
target = down;
type = TopGhost;
},
{
origin = "{0, 4}";
target = "{0, 5}";
type = Stem;
},
{
origin = "{0, 8}";
target = "{0, 9}";
type = Stem;
}
);
layerId = m003;
paths = (
{
closed = 1;
nodes = (
"947 780 LINE",
"93 780 LINE",
"180 1400 LINE",
"120 1400 LINE",
"-77 0 LINE",
"-17 0 LINE",
"84 720 LINE",
"938 720 LINE",
"837 0 LINE",
"897 0 LINE",
"1094 1400 LINE",
"1034 1400 LINE"
);
}
);
width = 1214;
},
{
anchors = (
{
name = bottom;
position = "{471, 0}";
},
{
name = center;
position = "{570, 700}";
},
{
name = top;
position = "{668, 1400}";
},
{
name = topleft;
position = "{20, 1400}";
}
);
hints = (
{
horizontal = 1;
origin = "{0, 4}";
target = up;
type = BottomGhost;
},
{
horizontal = 1;
origin = "{0, 6}";
target = "{0, 1}";
type = Stem;
},
{
horizontal = 1;
origin = "{0, 3}";
target = down;
type = TopGhost;
},
{
origin = "{0, 4}";
target = "{0, 5}";
type = Stem;
},
{
origin = "{0, 8}";
target = "{0, 9}";
type = Stem;
}
);
layerId = m004;
paths = (
{
closed = 1;
nodes = (
"846 900 LINE",
"350 900 LINE",
"420 1400 LINE",
"120 1400 LINE",
"-77 0 LINE",
"223 0 LINE",
"308 600 LINE",
"804 600 LINE",
"719 0 LINE",
"1019 0 LINE",
"1216 1400 LINE",
"916 1400 LINE"
);
}
);
width = 1336;
},
{
anchors = (
{
name = bottom;
position = "{627, 0}";
},
{
name = center;
position = "{627, 700}";
},
{
name = top;
position = "{627, 1400}";
},
{
name = topleft;
position = "{20, 1400}";
}
);
hints = (
{
horizontal = 1;
origin = "{0, 4}";
target = up;
type = BottomGhost;
},
{
horizontal = 1;
origin = "{0, 6}";
target = "{0, 1}";
type = Stem;
},
{
horizontal = 1;
origin = "{0, 3}";
target = down;
type = TopGhost;
},
{
origin = "{0, 4}";
target = "{0, 5}";
type = Stem;
},
{
origin = "{0, 8}";
target = "{0, 9}";
type = Stem;
}
);
layerId = "81BB4A08-F3DE-40E2-9BD9-52E47EDF5C1E";
paths = (
{
closed = 1;
nodes = (
"995 820 LINE",
"260 820 LINE",
"260 1400 LINE",
"120 1400 LINE",
"120 0 LINE",
"260 0 LINE",
"260 680 LINE",
"995 680 LINE",
"995 0 LINE",
"1135 0 LINE",
"1135 1400 LINE",
"995 1400 LINE"
);
}
);
width = 1254.66667;
},
{
anchors = (
{
name = bottom;
position = "{430, 0}";
},
{
name = center;
position = "{529, 700}";
},
{
name = top;
position = "{627, 1400}";
},
{
name = topleft;
position = "{20, 1400}";
}
);
hints = (
{
horizontal = 1;
origin = "{0, 4}";
target = up;
type = BottomGhost;
},
{
horizontal = 1;
origin = "{0, 6}";
target = "{0, 1}";
type = Stem;
},
{
horizontal = 1;
origin = "{0, 3}";
target = down;
type = TopGhost;
},
{
origin = "{0, 4}";
target = "{0, 5}";
type = Stem;
},
{
origin = "{0, 8}";
target = "{0, 9}";
type = Stem;
}
);
layerId = "6C2B4A57-296A-49E8-ACE5-0BEFCC4AFC9C";
paths = (
{
closed = 1;
nodes = (
"913 820 LINE",
"179 820 LINE",
"260 1400 LINE",
"120 1400 LINE",
"-77 0 LINE",
"63 0 LINE",
"159 680 LINE",
"893 680 LINE",
"798 0 LINE",
"938 0 LINE",
"1135 1400 LINE",
"995 1400 LINE"
);
}
);
width = 1254.66667;
}
);
leftKerningGroup = H;
rightKerningGroup = H;
unicode = 0048;
},
{
glyphname = I;
lastChange = "2021-08-26 03:05:31 +0000";
layers = (
{
anchors = (
{
name = bottom;
position = "{300, 0}";
},
{
name = ogonek;
position = "{450, 0}";
},
{
name = top;
position = "{300, 1400}";
},
{
name = topleft;
position = "{20, 1400}";
}
);
hints = (
{
horizontal = 1;
origin = "{0, 3}";
target = up;
type = BottomGhost;
},
{
horizontal = 1;
origin = "{0, 2}";
target = down;
type = TopGhost;
},
{
origin = "{0, 3}";
target = "{0, 0}";
type = Stem;
}
);
layerId = "10BC12B3-5274-42E3-B5BC-F74F362F0DF4";
paths = (
{
closed = 1;
nodes = (
"450 0 LINE",
"450 1400 LINE",
"150 1400 LINE",
"150 0 LINE"
);
}
);
width = 600;
},
{
anchors = (
{
name = bottom;
position = "{180, 0}";
},
{
name = ogonek;
position = "{210, 0}";
},
{
name = top;
position = "{180, 1400}";
},
{
name = topleft;
position = "{20, 1400}";
}
);
hints = (
{
horizontal = 1;
origin = "{0, 3}";
target = up;
type = BottomGhost;
},
{
horizontal = 1;
origin = "{0, 2}";
target = down;
type = TopGhost;
},
{
origin = "{0, 3}";
target = "{0, 0}";
type = Stem;
}
);
layerId = "9AF1F7D9-E035-453E-B2A8-46DE370997D0";
paths = (
{
closed = 1;
nodes = (
"210 0 LINE",
"210 1400 LINE",
"150 1400 LINE",
"150 0 LINE"
);
}
);
width = 360;
},
{
anchors = (
{
name = bottom;
position = "{-17, 0}";
},
{
name = ogonek;
position = "{13, 0}";
},
{
name = top;
position = "{180, 1400}";
},
{
name = topleft;
position = "{20, 1400}";
}
);
hints = (
{
horizontal = 1;
origin = "{0, 3}";
target = up;
type = BottomGhost;
},
{
horizontal = 1;
origin = "{0, 2}";
target = down;
type = TopGhost;
},
{
origin = "{0, 3}";
target = "{0, 0}";
type = Stem;
}
);
layerId = m003;
paths = (
{
closed = 1;
nodes = (
"13 0 LINE",
"210 1400 LINE",
"150 1400 LINE",
"-47 0 LINE"
);
}
);
width = 360;
},
{
anchors = (
{
name = bottom;
position = "{103, 0}";
},
{
name = ogonek;
position = "{253, 0}";
},
{
name = top;
position = "{300, 1400}";
},
{
name = topleft;
position = "{20, 1400}";
}
);
hints = (
{
horizontal = 1;
origin = "{0, 3}";
target = up;
type = BottomGhost;
},
{
horizontal = 1;
origin = "{0, 2}";
target = down;
type = TopGhost;
},
{
origin = "{0, 3}";
target = "{0, 0}";
type = Stem;
}
);
layerId = m004;
paths = (
{
closed = 1;
nodes = (
"253 0 LINE",
"450 1400 LINE",
"150 1400 LINE",
"-47 0 LINE"
);
}
);
width = 600;
},
{
anchors = (
{
name = bottom;
position = "{220, 0}";
},
{
name = ogonek;
position = "{290, 0}";
},
{
name = top;
position = "{220, 1400}";
},
{
name = topleft;
position = "{20, 1400}";
}
);
hints = (
{
horizontal = 1;
origin = "{0, 3}";
target = up;
type = BottomGhost;
},
{
horizontal = 1;
origin = "{0, 2}";
target = down;
type = TopGhost;
},
{
origin = "{0, 3}";
target = "{0, 0}";
type = Stem;
}
);
layerId = "81BB4A08-F3DE-40E2-9BD9-52E47EDF5C1E";
paths = (
{
closed = 1;
nodes = (
"290 0 LINE",
"290 1400 LINE",
"150 1400 LINE",
"150 0 LINE"
);
}
);
width = 440;
},
{
anchors = (
{
name = bottom;
position = "{23, 0}";
},
{
name = ogonek;
position = "{93, 0}";
},
{
name = top;
position = "{220, 1400}";
},
{
name = topleft;
position = "{20, 1400}";
}
);
hints = (
{
horizontal = 1;
origin = "{0, 3}";
target = up;
type = BottomGhost;
},
{
horizontal = 1;
origin = "{0, 2}";
target = down;
type = TopGhost;
},
{
origin = "{0, 3}";
target = "{0, 0}";
type = Stem;
}
);
layerId = "6C2B4A57-296A-49E8-ACE5-0BEFCC4AFC9C";
paths = (
{
closed = 1;
nodes = (
"93 0 LINE",
"290 1400 LINE",
"150 1400 LINE",
"-47 0 LINE"
);
}
);
width = 440;
}
);
leftKerningGroup = H;
rightKerningGroup = H;
unicode = 0049;
},
{
glyphname = J;
lastChange = "2021-08-26 03:05:31 +0000";
layers = (
{
anchors = (
{
name = bottom;
position = "{467, 0}";
},
{
name = top;
position = "{664, 1400}";
}
);
hints = (
{
horizontal = 1;
origin = "{0, 15}";
target = "{0, 8}";
type = Stem;
},
{
horizontal = 1;
origin = "{0, 4}";
target = down;
type = TopGhost;
},
{
origin = "{0, 5}";
target = "{0, 2}";
type = Stem;
}
);
layerId = "10BC12B3-5274-42E3-B5BC-F74F362F0DF4";
paths = (
{
closed = 1;
nodes = (
"602 -26 OFFCURVE",
"814 186 OFFCURVE",
"814 446 CURVE SMOOTH",
"814 1400 LINE",
"514 1400 LINE",
"514 446 LINE SMOOTH",
"514 352 OFFCURVE",
"436 274 OFFCURVE",
"342 274 CURVE SMOOTH",
"290 274 OFFCURVE",
"254 296 OFFCURVE",
"232 314 CURVE",
"40 84 LINE",
"124 12 OFFCURVE",
"232 -26 OFFCURVE",
"342 -26 CURVE SMOOTH"
);
}
);
width = 934;
},
{
anchors = (
{
name = bottom;
position = "{369, 0}";
},
{
name = top;
position = "{588, 1400}";
}
);
hints = (
{
horizontal = 1;
origin = "{0, 15}";
target = "{0, 8}";
type = Stem;
},
{
horizontal = 1;
origin = "{0, 4}";
target = down;
type = TopGhost;
},
{
origin = "{0, 5}";
target = "{0, 2}";
type = Stem;
}
);
layerId = "9AF1F7D9-E035-453E-B2A8-46DE370997D0";
paths = (
{
closed = 1;
nodes = (
"460 -26 OFFCURVE",
"618 152 OFFCURVE",
"618 346 CURVE SMOOTH",
"618 1400 LINE",
"558 1400 LINE",
"558 346 LINE SMOOTH",
"558 184 OFFCURVE",
"426 34 OFFCURVE",
"264 34 CURVE SMOOTH",
"196 34 OFFCURVE",
"130 58 OFFCURVE",
"78 102 CURVE",
"40 56 LINE",
"104 0 OFFCURVE",
"182 -26 OFFCURVE",
"264 -26 CURVE SMOOTH"
);
}
);
width = 738;
},
{
anchors = (
{
name = bottom;
position = "{172, 0}";
},
{
name = top;
position = "{588, 1400}";
}
);
hints = (
{
horizontal = 1;
origin = "{0, 15}";
target = "{0, 8}";
type = Stem;
},
{
horizontal = 1;
origin = "{0, 4}";
target = down;
type = TopGhost;
},
{
origin = "{0, 5}";
target = "{0, 2}";
type = Stem;
}
);
layerId = m003;
paths = (
{
closed = 1;
nodes = (
"260 -26 OFFCURVE",
"443 152 OFFCURVE",
"470 346 CURVE SMOOTH",
"618 1400 LINE",
"558 1400 LINE",
"410 346 LINE SMOOTH",
"387 184 OFFCURVE",
"234 34 OFFCURVE",
"72 34 CURVE SMOOTH",
"4 34 OFFCURVE",
"-59 58 OFFCURVE",
"-104 102 CURVE",
"-149 56 LINE",
"-93 0 OFFCURVE",
"-18 -26 OFFCURVE",
"64 -26 CURVE SMOOTH"
);
}
);
width = 738;
},
{
anchors = (
{
name = bottom;
position = "{270, 0}";
},
{
name = top;
position = "{664, 1400}";
}
);
hints = (
{
horizontal = 1;
origin = "{0, 15}";
target = "{0, 8}";
type = Stem;
},
{
horizontal = 1;
origin = "{0, 4}";
target = down;
type = TopGhost;
},
{
origin = "{0, 5}";
target = "{0, 2}";
type = Stem;
}
);
layerId = m004;
paths = (
{
closed = 1;
nodes = (
"402 -26 OFFCURVE",
"643 186 OFFCURVE",
"680 446 CURVE SMOOTH",
"814 1400 LINE",
"514 1400 LINE",
"380 446 LINE SMOOTH",
"367 352 OFFCURVE",
"278 274 OFFCURVE",
"184 274 CURVE SMOOTH",
"132 274 OFFCURVE",
"99 296 OFFCURVE",
"79 314 CURVE",
"-145 84 LINE",
"-71 12 OFFCURVE",
"32 -26 OFFCURVE",
"142 -26 CURVE SMOOTH"
);
}
);
width = 934;
},
{
anchors = (
{
name = bottom;
position = "{402, 0}";
},
{
name = top;
position = "{613, 1400}";
}
);
hints = (
{
horizontal = 1;
origin = "{0, 15}";
target = "{0, 8}";
type = Stem;
},
{
horizontal = 1;
origin = "{0, 4}";
target = down;
type = TopGhost;
},
{
origin = "{0, 5}";
target = "{0, 2}";
type = Stem;
}
);
layerId = "81BB4A08-F3DE-40E2-9BD9-52E47EDF5C1E";
paths = (
{
closed = 1;
nodes = (
"507 -26 OFFCURVE",
"683 163 OFFCURVE",
"683 379 CURVE SMOOTH",
"683 1400 LINE",
"543 1400 LINE",
"543 379 LINE SMOOTH",
"543 240 OFFCURVE",
"429 114 OFFCURVE",
"290 114 CURVE SMOOTH",
"227 114 OFFCURVE",
"171 137 OFFCURVE",
"129 173 CURVE",
"40 65 LINE",
"111 4 OFFCURVE",
"199 -26 OFFCURVE",
"290 -26 CURVE SMOOTH"
);
}
);
width = 803.33333;
},
{
anchors = (
{
name = bottom;
position = "{205, 0}";
},
{
name = top;
position = "{613, 1400}";
}
);
hints = (
{
horizontal = 1;
origin = "{0, 15}";
target = "{0, 8}";
type = Stem;
},
{
horizontal = 1;
origin = "{0, 4}";
target = down;
type = TopGhost;
},
{
origin = "{0, 5}";
target = "{0, 2}";
type = Stem;
}
);
layerId = "6C2B4A57-296A-49E8-ACE5-0BEFCC4AFC9C";
paths = (
{
closed = 1;
nodes = (
"307 -26 OFFCURVE",
"510 163 OFFCURVE",
"540 379 CURVE SMOOTH",
"683 1400 LINE",
"543 1400 LINE",
"400 379 LINE SMOOTH",
"380 240 OFFCURVE",
"249 114 OFFCURVE",
"109 114 CURVE SMOOTH",
"47 114 OFFCURVE",
"-6 137 OFFCURVE",
"-43 173 CURVE",
"-148 65 LINE",
"-86 4 OFFCURVE",
"-1 -26 OFFCURVE",
"90 -26 CURVE SMOOTH"
);
}
);
width = 803.33333;
}
);
leftKerningGroup = J;
rightKerningGroup = J;
unicode = 004A;
},
{
glyphname = K;
lastChange = "2021-08-26 03:05:31 +0000";
layers = (
{
anchors = (
{
name = bottom;
position = "{615, 0}";
},
{
name = top;
position = "{615, 1400}";
}
);
hints = (
{
horizontal = 1;
origin = "{0, 6}";
target = up;
type = BottomGhost;
},
{
horizontal = 1;
origin = "{0, 5}";
target = down;
type = TopGhost;
},
{
origin = "{0, 6}";
target = "{0, 7}";
type = Stem;
}
);
layerId = "10BC12B3-5274-42E3-B5BC-F74F362F0DF4";
paths = (
{
closed = 1;
nodes = (
"656 740 LINE",
"1210 1400 LINE",
"818 1400 LINE",
"420 924 LINE",
"420 1400 LINE",
"120 1400 LINE",
"120 0 LINE",
"420 0 LINE",
"420 458 LINE",
"460 506 LINE",
"818 0 LINE",
"1210 0 LINE"
);
}
);
width = 1230;
},
{
anchors = (
{
name = bottom;
position = "{492, 0}";
},
{
name = top;
position = "{492, 1400}";
}
);
hints = (
{
horizontal = 1;
origin = "{0, 6}";
target = up;
type = BottomGhost;
},
{
horizontal = 1;
origin = "{0, 5}";
target = down;
type = TopGhost;
},
{
origin = "{0, 6}";
target = "{0, 7}";
type = Stem;
}
);
layerId = "9AF1F7D9-E035-453E-B2A8-46DE370997D0";
paths = (
{
closed = 1;
nodes = (
"378 738 LINE",
"934 1400 LINE",
"856 1400 LINE",
"180 594 LINE",
"180 1400 LINE",
"120 1400 LINE",
"120 0 LINE",
"180 0 LINE",
"180 500 LINE",
"338 690 LINE",
"848 0 LINE",
"924 0 LINE"
);
}
);
width = 984;
},
{
anchors = (
{
name = bottom;
position = "{295, 0}";
},
{
name = top;
position = "{492, 1400}";
}
);
hints = (
{
horizontal = 1;
origin = "{0, 6}";
target = up;
type = BottomGhost;
},
{
horizontal = 1;
origin = "{0, 5}";
target = down;
type = TopGhost;
},
{
origin = "{0, 6}";
target = "{0, 7}";
type = Stem;
}
);
layerId = m003;
paths = (
{
closed = 1;
nodes = (
"285 738 LINE",
"934 1400 LINE",
"856 1400 LINE",
"67 594 LINE",
"180 1400 LINE",
"120 1400 LINE",
"-77 0 LINE",
"-17 0 LINE",
"54 500 LINE",
"238 690 LINE",
"651 0 LINE",
"727 0 LINE"
);
}
);
width = 984;
},
{
anchors = (
{
name = bottom;
position = "{418, 0}";
},
{
name = top;
position = "{615, 1400}";
}
);
hints = (
{
horizontal = 1;
origin = "{0, 6}";
target = up;
type = BottomGhost;
},
{
horizontal = 1;
origin = "{0, 5}";
target = down;
type = TopGhost;
},
{
origin = "{0, 6}";
target = "{0, 7}";
type = Stem;
}
);
layerId = m004;
paths = (
{
closed = 1;
nodes = (
"563 740 LINE",
"1210 1400 LINE",
"818 1400 LINE",
"353 924 LINE",
"420 1400 LINE",
"120 1400 LINE",
"-77 0 LINE",
"223 0 LINE",
"288 458 LINE",
"334 506 LINE",
"621 0 LINE",
"1013 0 LINE"
);
}
);
width = 1230;
},
{
anchors = (
{
name = bottom;
position = "{533, 0}";
},
{
name = top;
position = "{533, 1400}";
}
);
hints = (
{
horizontal = 1;
origin = "{0, 6}";
target = up;
type = BottomGhost;
},
{
horizontal = 1;
origin = "{0, 5}";
target = down;
type = TopGhost;
},
{
origin = "{0, 6}";
target = "{0, 7}";
type = Stem;
}
);
layerId = "81BB4A08-F3DE-40E2-9BD9-52E47EDF5C1E";
paths = (
{
closed = 1;
nodes = (
"471 739 LINE",
"1026 1400 LINE",
"843 1400 LINE",
"260 704 LINE",
"260 1400 LINE",
"120 1400 LINE",
"120 0 LINE",
"260 0 LINE",
"260 486 LINE",
"379 629 LINE",
"838 0 LINE",
"1019 0 LINE"
);
}
);
width = 1066;
},
{
anchors = (
{
name = bottom;
position = "{336, 0}";
},
{
name = top;
position = "{533, 1400}";
}
);
hints = (
{
horizontal = 1;
origin = "{0, 6}";
target = up;
type = BottomGhost;
},
{
horizontal = 1;
origin = "{0, 5}";
target = down;
type = TopGhost;
},
{
origin = "{0, 6}";
target = "{0, 7}";
type = Stem;
}
);
layerId = "6C2B4A57-296A-49E8-ACE5-0BEFCC4AFC9C";
paths = (
{
closed = 1;
nodes = (
"378 739 LINE",
"1026 1400 LINE",
"843 1400 LINE",
"162 704 LINE",
"260 1400 LINE",
"120 1400 LINE",
"-77 0 LINE",
"63 0 LINE",
"132 486 LINE",
"270 629 LINE",
"641 0 LINE",
"822 0 LINE"
);
}
);
width = 1066;
}
);
leftKerningGroup = H;
rightKerningGroup = K;
unicode = 004B;
},
{
glyphname = L;
lastChange = "2021-08-26 03:05:31 +0000";
layers = (
{
anchors = (
{
name = bottom;
position = "{545, 0}";
},
{
name = center;
position = "{535, 700}";
},
{
name = top;
position = "{270, 1400}";
},
{
name = topright;
position = "{1050, 1400}";
}
);
hints = (
{
horizontal = 1;
origin = "{0, 5}";
target = "{0, 2}";
type = Stem;
},
{
horizontal = 1;
origin = "{0, 4}";
target = down;
type = TopGhost;
},
{
origin = "{0, 5}";
target = "{0, 2}";
type = Stem;
}
);
layerId = "10BC12B3-5274-42E3-B5BC-F74F362F0DF4";
paths = (
{
closed = 1;
nodes = (
"970 0 LINE",
"970 300 LINE",
"420 300 LINE",
"420 1400 LINE",
"120 1400 LINE",
"120 0 LINE"
);
}
);
width = 1070;
},
{
anchors = (
{
name = bottom;
position = "{495, 0}";
},
{
name = center;
position = "{485, 700}";
},
{
name = top;
position = "{150, 1400}";
},
{
name = topright;
position = "{950, 1400}";
}
);
hints = (
{
horizontal = 1;
origin = "{0, 5}";
target = "{0, 2}";
type = Stem;
},
{
horizontal = 1;
origin = "{0, 4}";
target = down;
type = TopGhost;
},
{
origin = "{0, 5}";
target = "{0, 2}";
type = Stem;
}
);
layerId = "9AF1F7D9-E035-453E-B2A8-46DE370997D0";
paths = (
{
closed = 1;
nodes = (
"870 0 LINE",
"870 60 LINE",
"180 60 LINE",
"180 1400 LINE",
"120 1400 LINE",
"120 0 LINE"
);
}
);
width = 970;
},
{
anchors = (
{
name = bottom;
position = "{298, 0}";
},
{
name = center;
position = "{387, 700}";
},
{
name = top;
position = "{150, 1400}";
},
{
name = topright;
position = "{950, 1400}";
}
);
hints = (
{
horizontal = 1;
origin = "{0, 5}";
target = "{0, 2}";
type = Stem;
},
{
horizontal = 1;
origin = "{0, 4}";
target = down;
type = TopGhost;
},
{
origin = "{0, 5}";
target = "{0, 2}";
type = Stem;
}
);
layerId = m003;
paths = (
{
closed = 1;
nodes = (
"673 0 LINE",
"682 60 LINE",
"-8 60 LINE",
"180 1400 LINE",
"120 1400 LINE",
"-77 0 LINE"
);
}
);
width = 970;
},
{
anchors = (
{
name = bottom;
position = "{348, 0}";
},
{
name = center;
position = "{437, 700}";
},
{
name = top;
position = "{270, 1400}";
},
{
name = topright;
position = "{1050, 1400}";
}
);
hints = (
{
horizontal = 1;
origin = "{0, 5}";
target = "{0, 2}";
type = Stem;
},
{
horizontal = 1;
origin = "{0, 4}";
target = down;
type = TopGhost;
},
{
origin = "{0, 5}";
target = "{0, 2}";
type = Stem;
}
);
layerId = m004;
paths = (
{
closed = 1;
nodes = (
"773 0 LINE",
"815 300 LINE",
"265 300 LINE",
"420 1400 LINE",
"120 1400 LINE",
"-77 0 LINE"
);
}
);
width = 1070;
},
{
anchors = (
{
name = bottom;
position = "{512, 0}";
},
{
name = center;
position = "{502, 700}";
},
{
name = top;
position = "{190, 1400}";
},
{
name = topright;
position = "{983, 1400}";
}
);
hints = (
{
horizontal = 1;
origin = "{0, 5}";
target = "{0, 2}";
type = Stem;
},
{
horizontal = 1;
origin = "{0, 4}";
target = down;
type = TopGhost;
},
{
origin = "{0, 5}";
target = "{0, 2}";
type = Stem;
}
);
layerId = "81BB4A08-F3DE-40E2-9BD9-52E47EDF5C1E";
paths = (
{
closed = 1;
nodes = (
"903 0 LINE",
"903 140 LINE",
"260 140 LINE",
"260 1400 LINE",
"120 1400 LINE",
"120 0 LINE"
);
}
);
width = 1003.33333;
},
{
anchors = (
{
name = bottom;
position = "{315, 0}";
},
{
name = center;
position = "{404, 700}";
},
{
name = top;
position = "{190, 1400}";
},
{
name = topright;
position = "{983, 1400}";
}
);
hints = (
{
horizontal = 1;
origin = "{0, 5}";
target = "{0, 2}";
type = Stem;
},
{
horizontal = 1;
origin = "{0, 4}";
target = down;
type = TopGhost;
},
{
origin = "{0, 5}";
target = "{0, 2}";
type = Stem;
}
);
layerId = "6C2B4A57-296A-49E8-ACE5-0BEFCC4AFC9C";
paths = (
{
closed = 1;
nodes = (
"706 0 LINE",
"726 140 LINE",
"83 140 LINE",
"260 1400 LINE",
"120 1400 LINE",
"-77 0 LINE"
);
}
);
width = 1003.33333;
}
);
leftKerningGroup = H;
leftMetricsKey = H;
rightKerningGroup = L;
unicode = 004C;
},
{
glyphname = M;
lastChange = "2021-08-26 03:05:31 +0000";
layers = (
{
anchors = (
{
name = bottom;
position = "{962, 0}";
},
{
name = top;
position = "{962, 1400}";
}
);
hints = (
{
horizontal = 1;
origin = "{0, 12}";
target = up;
type = BottomGhost;
},
{
horizontal = 1;
origin = "{0, 11}";
target = down;
type = TopGhost;
}
);
layerId = "10BC12B3-5274-42E3-B5BC-F74F362F0DF4";
paths = (
{
closed = 1;
nodes = (
"426 0 LINE",
"572 756 LINE",
"858 0 LINE",
"1066 0 LINE",
"1352 756 LINE",
"1498 0 LINE",
"1804 0 LINE",
"1532 1400 LINE",
"1276 1400 LINE",
"962 574 LINE",
"648 1400 LINE",
"392 1400 LINE",
"120 0 LINE"
);
}
);
width = 1924;
},
{
anchors = (
{
name = bottom;
position = "{846, 0}";
},
{
name = top;
position = "{846, 1400}";
}
);
hints = (
{
horizontal = 1;
origin = "{0, 12}";
target = up;
type = BottomGhost;
},
{
horizontal = 1;
origin = "{0, 11}";
target = down;
type = TopGhost;
}
);
layerId = "9AF1F7D9-E035-453E-B2A8-46DE370997D0";
paths = (
{
closed = 1;
nodes = (
"180 0 LINE",
"418 1228 LINE",
"830 138 LINE",
"860 138 LINE",
"1272 1228 LINE",
"1510 0 LINE",
"1572 0 LINE",
"1300 1400 LINE",
"1274 1400 LINE",
"846 268 LINE",
"416 1400 LINE",
"390 1400 LINE",
"120 0 LINE"
);
}
);
width = 1692;
},
{
anchors = (
{
name = bottom;
position = "{649, 0}";
},
{
name = top;
position = "{846, 1400}";
}
);
hints = (
{
horizontal = 1;
origin = "{0, 12}";
target = up;
type = BottomGhost;
},
{
horizontal = 1;
origin = "{0, 11}";
target = down;
type = TopGhost;
}
);
layerId = m003;
paths = (
{
closed = 1;
nodes = (
"-17 0 LINE",
"394 1228 LINE",
"653 138 LINE",
"683 138 LINE",
"1248 1228 LINE",
"1313 0 LINE",
"1375 0 LINE",
"1300 1400 LINE",
"1274 1400 LINE",
"687 268 LINE",
"416 1400 LINE",
"390 1400 LINE",
"-77 0 LINE"
);
}
);
width = 1692;
},
{
anchors = (
{
name = bottom;
position = "{765, 0}";
},
{
name = top;
position = "{962, 1400}";
}
);
hints = (
{
horizontal = 1;
origin = "{0, 12}";
target = up;
type = BottomGhost;
},
{
horizontal = 1;
origin = "{0, 11}";
target = down;
type = TopGhost;
}
);
layerId = m004;
paths = (
{
closed = 1;
nodes = (
"229 0 LINE",
"481 756 LINE",
"661 0 LINE",
"869 0 LINE",
"1261 756 LINE",
"1301 0 LINE",
"1607 0 LINE",
"1532 1400 LINE",
"1276 1400 LINE",
"846 574 LINE",
"648 1400 LINE",
"392 1400 LINE",
"-77 0 LINE"
);
}
);
width = 1924;
},
{
anchors = (
{
name = bottom;
position = "{885, 0}";
},
{
name = top;
position = "{885, 1400}";
}
);
hints = (
{
horizontal = 1;
origin = "{0, 12}";
target = up;
type = BottomGhost;
},
{
horizontal = 1;
origin = "{0, 11}";
target = down;
type = TopGhost;
}
);
layerId = "81BB4A08-F3DE-40E2-9BD9-52E47EDF5C1E";
paths = (
{
closed = 1;
nodes = (
"262 0 LINE",
"469 1071 LINE",
"839 92 LINE",
"929 92 LINE",
"1299 1071 LINE",
"1506 0 LINE",
"1649 0 LINE",
"1377 1400 LINE",
"1275 1400 LINE",
"885 370 LINE",
"493 1400 LINE",
"391 1400 LINE",
"120 0 LINE"
);
}
);
width = 1769.33333;
},
{
anchors = (
{
name = bottom;
position = "{688, 0}";
},
{
name = top;
position = "{885, 1400}";
}
);
hints = (
{
horizontal = 1;
origin = "{0, 12}";
target = up;
type = BottomGhost;
},
{
horizontal = 1;
origin = "{0, 11}";
target = down;
type = TopGhost;
}
);
layerId = "6C2B4A57-296A-49E8-ACE5-0BEFCC4AFC9C";
paths = (
{
closed = 1;
nodes = (
"65 0 LINE",
"423 1071 LINE",
"656 92 LINE",
"745 92 LINE",
"1252 1071 LINE",
"1309 0 LINE",
"1452 0 LINE",
"1377 1400 LINE",
"1275 1400 LINE",
"740 370 LINE",
"493 1400 LINE",
"391 1400 LINE",
"-77 0 LINE"
);
}
);
width = 1769.33333;
}
);
leftKerningGroup = M;
rightKerningGroup = M;
unicode = 004D;
},
{
glyphname = N;
lastChange = "2021-08-26 03:05:31 +0000";
layers = (
{
anchors = (
{
name = bottom;
position = "{688, 0}";
},
{
name = top;
position = "{688, 1400}";
}
);
hints = (
{
horizontal = 1;
origin = "{0, 9}";
target = up;
type = BottomGhost;
},
{
horizontal = 1;
origin = "{0, 8}";
target = down;
type = TopGhost;
},
{
origin = "{0, 9}";
target = "{0, 0}";
type = Stem;
},
{
origin = "{0, 6}";
target = "{0, 3}";
type = Stem;
}
);
layerId = "10BC12B3-5274-42E3-B5BC-F74F362F0DF4";
paths = (
{
closed = 1;
nodes = (
"420 0 LINE",
"420 858 LINE",
"932 0 LINE",
"1256 0 LINE",
"1256 1400 LINE",
"956 1400 LINE",
"956 542 LINE",
"444 1400 LINE",
"120 1400 LINE",
"120 0 LINE"
);
}
);
width = 1376;
},
{
anchors = (
{
name = bottom;
position = "{609, 0}";
},
{
name = top;
position = "{609, 1400}";
}
);
hints = (
{
horizontal = 1;
origin = "{0, 9}";
target = up;
type = BottomGhost;
},
{
horizontal = 1;
origin = "{0, 8}";
target = down;
type = TopGhost;
},
{
origin = "{0, 9}";
target = "{0, 0}";
type = Stem;
},
{
origin = "{0, 6}";
target = "{0, 3}";
type = Stem;
}
);
layerId = "9AF1F7D9-E035-453E-B2A8-46DE370997D0";
paths = (
{
closed = 1;
nodes = (
"180 0 LINE",
"180 1292 LINE",
"1034 0 LINE",
"1098 0 LINE",
"1098 1400 LINE",
"1038 1400 LINE",
"1038 108 LINE",
"186 1400 LINE",
"120 1400 LINE",
"120 0 LINE"
);
}
);
width = 1218;
},
{
anchors = (
{
name = bottom;
position = "{412, 0}";
},
{
name = top;
position = "{609, 1400}";
}
);
hints = (
{
horizontal = 1;
origin = "{0, 9}";
target = up;
type = BottomGhost;
},
{
horizontal = 1;
origin = "{0, 8}";
target = down;
type = TopGhost;
},
{
origin = "{0, 9}";
target = "{0, 0}";
type = Stem;
},
{
origin = "{0, 6}";
target = "{0, 3}";
type = Stem;
}
);
layerId = m003;
paths = (
{
closed = 1;
nodes = (
"-17 0 LINE",
"165 1292 LINE",
"837 0 LINE",
"901 0 LINE",
"1098 1400 LINE",
"1038 1400 LINE",
"856 108 LINE",
"186 1400 LINE",
"120 1400 LINE",
"-77 0 LINE"
);
}
);
width = 1218;
},
{
anchors = (
{
name = bottom;
position = "{491, 0}";
},
{
name = top;
position = "{688, 1400}";
}
);
hints = (
{
horizontal = 1;
origin = "{0, 9}";
target = up;
type = BottomGhost;
},
{
horizontal = 1;
origin = "{0, 8}";
target = down;
type = TopGhost;
},
{
origin = "{0, 9}";
target = "{0, 0}";
type = Stem;
},
{
origin = "{0, 6}";
target = "{0, 3}";
type = Stem;
}
);
layerId = m004;
paths = (
{
closed = 1;
nodes = (
"223 0 LINE",
"344 858 LINE",
"735 0 LINE",
"1059 0 LINE",
"1256 1400 LINE",
"956 1400 LINE",
"835 542 LINE",
"444 1400 LINE",
"120 1400 LINE",
"-77 0 LINE"
);
}
);
width = 1376;
},
{
anchors = (
{
name = bottom;
position = "{635, 0}";
},
{
name = top;
position = "{635, 1400}";
}
);
hints = (
{
horizontal = 1;
origin = "{0, 9}";
target = up;
type = BottomGhost;
},
{
horizontal = 1;
origin = "{0, 8}";
target = down;
type = TopGhost;
},
{
origin = "{0, 9}";
target = "{0, 0}";
type = Stem;
},
{
origin = "{0, 6}";
target = "{0, 3}";
type = Stem;
}
);
layerId = "81BB4A08-F3DE-40E2-9BD9-52E47EDF5C1E";
paths = (
{
closed = 1;
nodes = (
"260 0 LINE",
"260 1147 LINE",
"1000 0 LINE",
"1151 0 LINE",
"1151 1400 LINE",
"1011 1400 LINE",
"1011 253 LINE",
"272 1400 LINE",
"120 1400 LINE",
"120 0 LINE"
);
}
);
width = 1270.66667;
},
{
anchors = (
{
name = bottom;
position = "{438, 0}";
},
{
name = top;
position = "{635, 1400}";
}
);
hints = (
{
horizontal = 1;
origin = "{0, 9}";
target = up;
type = BottomGhost;
},
{
horizontal = 1;
origin = "{0, 8}";
target = down;
type = TopGhost;
},
{
origin = "{0, 9}";
target = "{0, 0}";
type = Stem;
},
{
origin = "{0, 6}";
target = "{0, 3}";
type = Stem;
}
);
layerId = "6C2B4A57-296A-49E8-ACE5-0BEFCC4AFC9C";
paths = (
{
closed = 1;
nodes = (
"63 0 LINE",
"225 1147 LINE",
"803 0 LINE",
"954 0 LINE",
"1151 1400 LINE",
"1011 1400 LINE",
"849 253 LINE",
"272 1400 LINE",
"120 1400 LINE",
"-77 0 LINE"
);
}
);
width = 1270.66667;
}
);
leftKerningGroup = H;
leftMetricsKey = H;
rightKerningGroup = H;
rightMetricsKey = H;
unicode = 004E;
},
{
glyphname = O;
lastChange = "2021-08-26 03:05:31 +0000";
layers = (
{
anchors = (
{
name = bottom;
position = "{770, 0}";
},
{
name = center;
position = "{770, 700}";
},
{
name = ogonek;
position = "{1386, 10}";
},
{
name = top;
position = "{770, 1400}";
},
{
name = topleft;
position = "{20, 1400}";
},
{
name = topright;
position = "{1520, 1400}";
}
);
hints = (
{
horizontal = 1;
origin = "{0, 11}";
target = "{1, 11}";
type = Stem;
},
{
horizontal = 1;
origin = "{0, 5}";
target = "{1, 5}";
type = Stem;
},
{
origin = "{0, 8}";
target = "{1, 2}";
type = Stem;
},
{
origin = "{1, 8}";
target = "{0, 2}";
type = Stem;
}
);
layerId = "10BC12B3-5274-42E3-B5BC-F74F362F0DF4";
paths = (
{
closed = 1;
nodes = (
"1150 -26 OFFCURVE",
"1460 300 OFFCURVE",
"1460 700 CURVE SMOOTH",
"1460 1100 OFFCURVE",
"1150 1426 OFFCURVE",
"770 1426 CURVE SMOOTH",
"390 1426 OFFCURVE",
"80 1100 OFFCURVE",
"80 700 CURVE SMOOTH",
"80 300 OFFCURVE",
"390 -26 OFFCURVE",
"770 -26 CURVE SMOOTH"
);
},
{
closed = 1;
nodes = (
"556 274 OFFCURVE",
"380 466 OFFCURVE",
"380 700 CURVE SMOOTH",
"380 934 OFFCURVE",
"556 1126 OFFCURVE",
"770 1126 CURVE SMOOTH",
"984 1126 OFFCURVE",
"1160 934 OFFCURVE",
"1160 700 CURVE SMOOTH",
"1160 466 OFFCURVE",
"984 274 OFFCURVE",
"770 274 CURVE SMOOTH"
);
}
);
width = 1540;
},
{
anchors = (
{
name = bottom;
position = "{770, 0}";
},
{
name = center;
position = "{770, 700}";
},
{
name = ogonek;
position = "{1386, 10}";
},
{
name = top;
position = "{770, 1400}";
},
{
name = topleft;
position = "{20, 1400}";
},
{
name = topright;
position = "{1520, 1400}";
}
);
hints = (
{
horizontal = 1;
origin = "{0, 11}";
target = "{1, 11}";
type = Stem;
},
{
horizontal = 1;
origin = "{0, 5}";
target = "{1, 5}";
type = Stem;
},
{
origin = "{0, 8}";
target = "{1, 2}";
type = Stem;
},
{
origin = "{1, 8}";
target = "{0, 2}";
type = Stem;
}
);
layerId = "9AF1F7D9-E035-453E-B2A8-46DE370997D0";
paths = (
{
closed = 1;
nodes = (
"1150 -26 OFFCURVE",
"1460 300 OFFCURVE",
"1460 700 CURVE SMOOTH",
"1460 1100 OFFCURVE",
"1150 1426 OFFCURVE",
"770 1426 CURVE SMOOTH",
"390 1426 OFFCURVE",
"80 1100 OFFCURVE",
"80 700 CURVE SMOOTH",
"80 300 OFFCURVE",
"390 -26 OFFCURVE",
"770 -26 CURVE SMOOTH"
);
},
{
closed = 1;
nodes = (
"422 34 OFFCURVE",
"140 334 OFFCURVE",
"140 700 CURVE SMOOTH",
"140 1060 OFFCURVE",
"418 1366 OFFCURVE",
"770 1366 CURVE SMOOTH",
"1118 1366 OFFCURVE",
"1400 1064 OFFCURVE",
"1400 700 CURVE SMOOTH",
"1400 340 OFFCURVE",
"1122 34 OFFCURVE",
"770 34 CURVE SMOOTH"
);
}
);
width = 1540;
},
{
anchors = (
{
name = bottom;
position = "{573, 0}";
},
{
name = center;
position = "{672, 700}";
},
{
name = ogonek;
position = "{1191, 10}";
},
{
name = top;
position = "{770, 1400}";
},
{
name = topleft;
position = "{20, 1400}";
},
{
name = topright;
position = "{1520, 1400}";
}
);
hints = (
{
horizontal = 1;
origin = "{0, 11}";
target = "{1, 11}";
type = Stem;
},
{
horizontal = 1;
origin = "{0, 5}";
target = "{1, 5}";
type = Stem;
},
{
origin = "{0, 8}";
target = "{1, 2}";
type = Stem;
},
{
origin = "{1, 8}";
target = "{0, 2}";
type = Stem;
}
);
layerId = m003;
paths = (
{
closed = 1;
nodes = (
"950 -26 OFFCURVE",
"1305 300 OFFCURVE",
"1362 700 CURVE SMOOTH",
"1418 1100 OFFCURVE",
"1154 1426 OFFCURVE",
"774 1426 CURVE SMOOTH",
"394 1426 OFFCURVE",
"38 1100 OFFCURVE",
"-18 700 CURVE SMOOTH",
"-75 300 OFFCURVE",
"190 -26 OFFCURVE",
"570 -26 CURVE SMOOTH"
);
},
{
closed = 1;
nodes = (
"230 34 OFFCURVE",
"-10 334 OFFCURVE",
"42 700 CURVE SMOOTH",
"92 1060 OFFCURVE",
"413 1366 OFFCURVE",
"765 1366 CURVE SMOOTH",
"1113 1366 OFFCURVE",
"1353 1064 OFFCURVE",
"1302 700 CURVE SMOOTH",
"1251 340 OFFCURVE",
"930 34 OFFCURVE",
"578 34 CURVE SMOOTH"
);
}
);
width = 1540;
},
{
anchors = (
{
name = bottom;
position = "{573, 0}";
},
{
name = center;
position = "{672, 700}";
},
{
name = ogonek;
position = "{1191, 10}";
},
{
name = top;
position = "{770, 1400}";
},
{
name = topleft;
position = "{20, 1400}";
},
{
name = topright;
position = "{1520, 1400}";
}
);
hints = (
{
horizontal = 1;
origin = "{0, 11}";
target = "{1, 11}";
type = Stem;
},
{
horizontal = 1;
origin = "{0, 5}";
target = "{1, 5}";
type = Stem;
},
{
origin = "{0, 8}";
target = "{1, 2}";
type = Stem;
},
{
origin = "{1, 8}";
target = "{0, 2}";
type = Stem;
}
);
layerId = m004;
paths = (
{
closed = 1;
nodes = (
"950 -26 OFFCURVE",
"1305 300 OFFCURVE",
"1362 700 CURVE SMOOTH",
"1418 1100 OFFCURVE",
"1154 1426 OFFCURVE",
"774 1426 CURVE SMOOTH",
"394 1426 OFFCURVE",
"38 1100 OFFCURVE",
"-18 700 CURVE SMOOTH",
"-75 300 OFFCURVE",
"190 -26 OFFCURVE",
"570 -26 CURVE SMOOTH"
);
},
{
closed = 1;
nodes = (
"398 274 OFFCURVE",
"249 466 OFFCURVE",
"282 700 CURVE SMOOTH",
"315 934 OFFCURVE",
"517 1126 OFFCURVE",
"731 1126 CURVE SMOOTH",
"945 1126 OFFCURVE",
"1095 934 OFFCURVE",
"1062 700 CURVE SMOOTH",
"1029 466 OFFCURVE",
"826 274 OFFCURVE",
"612 274 CURVE SMOOTH"
);
}
);
width = 1540;
},
{
anchors = (
{
name = bottom;
position = "{770, 0}";
},
{
name = center;
position = "{770, 700}";
},
{
name = ogonek;
position = "{1386, 10}";
},
{
name = top;
position = "{770, 1400}";
},
{
name = topleft;
position = "{20, 1400}";
},
{
name = topright;
position = "{1520, 1400}";
}
);
hints = (
{
horizontal = 1;
origin = "{0, 11}";
target = "{1, 11}";
type = Stem;
},
{
horizontal = 1;
origin = "{0, 5}";
target = "{1, 5}";
type = Stem;
},
{
origin = "{0, 8}";
target = "{1, 2}";
type = Stem;
},
{
origin = "{1, 8}";
target = "{0, 2}";
type = Stem;
}
);
layerId = "81BB4A08-F3DE-40E2-9BD9-52E47EDF5C1E";
paths = (
{
closed = 1;
nodes = (
"1150 -26 OFFCURVE",
"1460 300 OFFCURVE",
"1460 700 CURVE SMOOTH",
"1460 1100 OFFCURVE",
"1150 1426 OFFCURVE",
"770 1426 CURVE SMOOTH",
"390 1426 OFFCURVE",
"80 1100 OFFCURVE",
"80 700 CURVE SMOOTH",
"80 300 OFFCURVE",
"390 -26 OFFCURVE",
"770 -26 CURVE SMOOTH"
);
},
{
closed = 1;
nodes = (
"467 114 OFFCURVE",
"220 378 OFFCURVE",
"220 700 CURVE SMOOTH",
"220 1018 OFFCURVE",
"464 1286 OFFCURVE",
"770 1286 CURVE SMOOTH",
"1073 1286 OFFCURVE",
"1320 1021 OFFCURVE",
"1320 700 CURVE SMOOTH",
"1320 382 OFFCURVE",
"1076 114 OFFCURVE",
"770 114 CURVE SMOOTH"
);
}
);
width = 1540;
},
{
anchors = (
{
name = bottom;
position = "{573, 0}";
},
{
name = center;
position = "{672, 700}";
},
{
name = ogonek;
position = "{1191, 10}";
},
{
name = top;
position = "{770, 1400}";
},
{
name = topleft;
position = "{20, 1400}";
},
{
name = topright;
position = "{1520, 1400}";
}
);
hints = (
{
horizontal = 1;
origin = "{0, 11}";
target = "{1, 11}";
type = Stem;
},
{
horizontal = 1;
origin = "{0, 5}";
target = "{1, 5}";
type = Stem;
},
{
origin = "{0, 8}";
target = "{1, 2}";
type = Stem;
},
{
origin = "{1, 8}";
target = "{0, 2}";
type = Stem;
}
);
layerId = "6C2B4A57-296A-49E8-ACE5-0BEFCC4AFC9C";
paths = (
{
closed = 1;
nodes = (
"950 -26 OFFCURVE",
"1305 300 OFFCURVE",
"1362 700 CURVE SMOOTH",
"1418 1100 OFFCURVE",
"1154 1426 OFFCURVE",
"774 1426 CURVE SMOOTH",
"394 1426 OFFCURVE",
"38 1100 OFFCURVE",
"-18 700 CURVE SMOOTH",
"-75 300 OFFCURVE",
"190 -26 OFFCURVE",
"570 -26 CURVE SMOOTH"
);
},
{
closed = 1;
nodes = (
"286 114 OFFCURVE",
"76 378 OFFCURVE",
"122 700 CURVE SMOOTH",
"166 1018 OFFCURVE",
"448 1286 OFFCURVE",
"754 1286 CURVE SMOOTH",
"1057 1286 OFFCURVE",
"1267 1021 OFFCURVE",
"1222 700 CURVE SMOOTH",
"1177 382 OFFCURVE",
"895 114 OFFCURVE",
"589 114 CURVE SMOOTH"
);
}
);
width = 1540;
}
);
leftKerningGroup = O;
rightKerningGroup = O;
unicode = 004F;
},
{
glyphname = Oslash;
lastChange = "2021-08-26 03:05:31 +0000";
layers = (
{
anchors = (
{
name = bottom;
position = "{770, 0}";
},
{
name = top;
position = "{770, 1400}";
}
);
hints = (
{
horizontal = 1;
origin = "{0, 3}";
target = "{2, 9}";
type = Stem;
},
{
horizontal = 1;
origin = "{0, 15}";
target = "{1, 5}";
type = Stem;
},
{
origin = "{0, 18}";
target = "{1, 2}";
type = Stem;
},
{
origin = "{2, 6}";
target = "{0, 6}";
type = Stem;
}
);
layerId = "10BC12B3-5274-42E3-B5BC-F74F362F0DF4";
paths = (
{
closed = 1;
nodes = (
"548 14 LINE",
"618 -12 OFFCURVE",
"692 -26 OFFCURVE",
"770 -26 CURVE SMOOTH",
"1150 -26 OFFCURVE",
"1460 300 OFFCURVE",
"1460 700 CURVE SMOOTH",
"1460 906 OFFCURVE",
"1378 1092 OFFCURVE",
"1246 1226 CURVE",
"1332 1372 LINE",
"1072 1522 LINE",
"994 1388 LINE",
"924 1412 OFFCURVE",
"850 1426 OFFCURVE",
"770 1426 CURVE SMOOTH",
"390 1426 OFFCURVE",
"80 1100 OFFCURVE",
"80 700 CURVE SMOOTH",
"80 494 OFFCURVE",
"164 308 OFFCURVE",
"294 176 CURVE",
"210 28 LINE",
"470 -122 LINE"
);
},
{
closed = 1;
nodes = (
"408 522 OFFCURVE",
"380 608 OFFCURVE",
"380 700 CURVE SMOOTH",
"380 934 OFFCURVE",
"556 1126 OFFCURVE",
"770 1126 CURVE SMOOTH",
"794 1126 OFFCURVE",
"818 1124 OFFCURVE",
"840 1120 CURVE",
"454 452 LINE"
);
},
{
closed = 1;
nodes = (
"748 274 OFFCURVE",
"724 276 OFFCURVE",
"702 282 CURVE",
"1088 948 LINE",
"1134 878 OFFCURVE",
"1160 792 OFFCURVE",
"1160 700 CURVE SMOOTH",
"1160 466 OFFCURVE",
"984 274 OFFCURVE",
"770 274 CURVE SMOOTH"
);
}
);
width = 1540;
},
{
anchors = (
{
name = bottom;
position = "{770, 0}";
},
{
name = top;
position = "{770, 1400}";
}
);
hints = (
{
horizontal = 1;
origin = "{0, 3}";
target = "{2, 9}";
type = Stem;
},
{
horizontal = 1;
origin = "{0, 15}";
target = "{1, 5}";
type = Stem;
},
{
origin = "{0, 18}";
target = "{1, 2}";
type = Stem;
},
{
origin = "{2, 6}";
target = "{0, 6}";
type = Stem;
}
);
layerId = "9AF1F7D9-E035-453E-B2A8-46DE370997D0";
paths = (
{
closed = 1;
nodes = (
"438 64 LINE",
"538 8 OFFCURVE",
"650 -26 OFFCURVE",
"770 -26 CURVE SMOOTH",
"1150 -26 OFFCURVE",
"1460 300 OFFCURVE",
"1460 700 CURVE SMOOTH",
"1460 952 OFFCURVE",
"1338 1174 OFFCURVE",
"1154 1304 CURVE",
"1228 1432 LINE",
"1176 1462 LINE",
"1104 1336 LINE",
"1004 1394 OFFCURVE",
"892 1426 OFFCURVE",
"770 1426 CURVE SMOOTH",
"390 1426 OFFCURVE",
"80 1100 OFFCURVE",
"80 700 CURVE SMOOTH",
"80 450 OFFCURVE",
"204 228 OFFCURVE",
"388 96 CURVE",
"314 -32 LINE",
"366 -62 LINE"
);
},
{
closed = 1;
nodes = (
"250 270 OFFCURVE",
"140 472 OFFCURVE",
"140 700 CURVE SMOOTH",
"140 1060 OFFCURVE",
"418 1366 OFFCURVE",
"770 1366 CURVE SMOOTH",
"880 1366 OFFCURVE",
"984 1336 OFFCURVE",
"1074 1284 CURVE",
"418 150 LINE"
);
},
{
closed = 1;
nodes = (
"662 34 OFFCURVE",
"558 64 OFFCURVE",
"468 116 CURVE",
"1124 1252 LINE",
"1290 1130 OFFCURVE",
"1400 928 OFFCURVE",
"1400 700 CURVE SMOOTH",
"1400 340 OFFCURVE",
"1122 34 OFFCURVE",
"770 34 CURVE SMOOTH"
);
}
);
width = 1540;
},
{
anchors = (
{
name = bottom;
position = "{573, 0}";
},
{
name = top;
position = "{770, 1400}";
}
);
hints = (
{
horizontal = 1;
origin = "{0, 3}";
target = "{2, 9}";
type = Stem;
},
{
horizontal = 1;
origin = "{0, 15}";
target = "{1, 5}";
type = Stem;
},
{
origin = "{0, 18}";
target = "{1, 2}";
type = Stem;
},
{
origin = "{2, 6}";
target = "{0, 6}";
type = Stem;
}
);
layerId = m003;
paths = (
{
closed = 1;
nodes = (
"250 64 LINE",
"342 8 OFFCURVE",
"450 -26 OFFCURVE",
"570 -26 CURVE SMOOTH",
"950 -26 OFFCURVE",
"1305 300 OFFCURVE",
"1362 700 CURVE SMOOTH",
"1397 952 OFFCURVE",
"1306 1174 OFFCURVE",
"1141 1304 CURVE",
"1232 1432 LINE",
"1185 1462 LINE",
"1095 1336 LINE",
"1003 1394 OFFCURVE",
"896 1426 OFFCURVE",
"774 1426 CURVE SMOOTH",
"394 1426 OFFCURVE",
"38 1100 OFFCURVE",
"-18 700 CURVE SMOOTH",
"-54 450 OFFCURVE",
"39 228 OFFCURVE",
"205 96 CURVE",
"113 -32 LINE",
"161 -62 LINE"
);
},
{
closed = 1;
nodes = (
"91 270 OFFCURVE",
"10 472 OFFCURVE",
"42 700 CURVE SMOOTH",
"92 1060 OFFCURVE",
"413 1366 OFFCURVE",
"765 1366 CURVE SMOOTH",
"875 1366 OFFCURVE",
"975 1336 OFFCURVE",
"1058 1284 CURVE",
"242 150 LINE"
);
},
{
closed = 1;
nodes = (
"470 34 OFFCURVE",
"370 64 OFFCURVE",
"288 116 CURVE",
"1103 1252 LINE",
"1252 1130 OFFCURVE",
"1334 928 OFFCURVE",
"1302 700 CURVE SMOOTH",
"1251 340 OFFCURVE",
"930 34 OFFCURVE",
"578 34 CURVE SMOOTH"
);
}
);
width = 1540;
},
{
anchors = (
{
name = bottom;
position = "{573, 0}";
},
{
name = top;
position = "{770, 1400}";
}
);
hints = (
{
horizontal = 1;
origin = "{0, 3}";
target = "{2, 9}";
type = Stem;
},
{
horizontal = 1;
origin = "{0, 15}";
target = "{1, 5}";
type = Stem;
},
{
origin = "{0, 18}";
target = "{1, 2}";
type = Stem;
},
{
origin = "{2, 6}";
target = "{0, 6}";
type = Stem;
}
);
layerId = m004;
paths = (
{
closed = 1;
nodes = (
"353 14 LINE",
"420 -12 OFFCURVE",
"492 -26 OFFCURVE",
"570 -26 CURVE SMOOTH",
"950 -26 OFFCURVE",
"1305 300 OFFCURVE",
"1362 700 CURVE SMOOTH",
"1391 906 OFFCURVE",
"1335 1092 OFFCURVE",
"1222 1226 CURVE",
"1328 1372 LINE",
"1089 1522 LINE",
"992 1388 LINE",
"926 1412 OFFCURVE",
"854 1426 OFFCURVE",
"774 1426 CURVE SMOOTH",
"394 1426 OFFCURVE",
"38 1100 OFFCURVE",
"-18 700 CURVE SMOOTH",
"-47 494 OFFCURVE",
"11 308 OFFCURVE",
"122 176 CURVE",
"17 28 LINE",
"256 -122 LINE"
);
},
{
closed = 1;
nodes = (
"285 522 OFFCURVE",
"269 608 OFFCURVE",
"282 700 CURVE SMOOTH",
"315 934 OFFCURVE",
"517 1126 OFFCURVE",
"731 1126 CURVE SMOOTH",
"755 1126 OFFCURVE",
"779 1124 OFFCURVE",
"801 1120 CURVE",
"321 452 LINE"
);
},
{
closed = 1;
nodes = (
"590 274 OFFCURVE",
"566 276 OFFCURVE",
"545 282 CURVE",
"1024 948 LINE",
"1061 878 OFFCURVE",
"1075 792 OFFCURVE",
"1062 700 CURVE SMOOTH",
"1029 466 OFFCURVE",
"826 274 OFFCURVE",
"612 274 CURVE SMOOTH"
);
}
);
width = 1540;
},
{
anchors = (
{
name = bottom;
position = "{770, 0}";
},
{
name = top;
position = "{770, 1400}";
}
);
hints = (
{
horizontal = 1;
origin = "{0, 3}";
target = "{2, 9}";
type = Stem;
},
{
horizontal = 1;
origin = "{0, 15}";
target = "{1, 5}";
type = Stem;
},
{
origin = "{0, 18}";
target = "{1, 2}";
type = Stem;
},
{
origin = "{2, 6}";
target = "{0, 6}";
type = Stem;
}
);
layerId = "81BB4A08-F3DE-40E2-9BD9-52E47EDF5C1E";
paths = (
{
closed = 1;
nodes = (
"475 47 LINE",
"565 1 OFFCURVE",
"664 -26 OFFCURVE",
"770 -26 CURVE SMOOTH",
"1150 -26 OFFCURVE",
"1460 300 OFFCURVE",
"1460 700 CURVE SMOOTH",
"1460 937 OFFCURVE",
"1351 1147 OFFCURVE",
"1185 1278 CURVE",
"1263 1412 LINE",
"1141 1482 LINE",
"1067 1353 LINE",
"977 1400 OFFCURVE",
"878 1426 OFFCURVE",
"770 1426 CURVE SMOOTH",
"390 1426 OFFCURVE",
"80 1100 OFFCURVE",
"80 700 CURVE SMOOTH",
"80 465 OFFCURVE",
"191 255 OFFCURVE",
"357 123 CURVE",
"279 -12 LINE",
"401 -82 LINE"
);
},
{
closed = 1;
nodes = (
"303 354 OFFCURVE",
"220 517 OFFCURVE",
"220 700 CURVE SMOOTH",
"220 1018 OFFCURVE",
"464 1286 OFFCURVE",
"770 1286 CURVE SMOOTH",
"851 1286 OFFCURVE",
"929 1265 OFFCURVE",
"996 1229 CURVE",
"430 251 LINE"
);
},
{
closed = 1;
nodes = (
"691 114 OFFCURVE",
"613 135 OFFCURVE",
"546 171 CURVE",
"1112 1151 LINE",
"1238 1046 OFFCURVE",
"1320 883 OFFCURVE",
"1320 700 CURVE SMOOTH",
"1320 382 OFFCURVE",
"1076 114 OFFCURVE",
"770 114 CURVE SMOOTH"
);
}
);
width = 1540;
},
{
anchors = (
{
name = bottom;
position = "{573, 0}";
},
{
name = top;
position = "{770, 1400}";
}
);
hints = (
{
horizontal = 1;
origin = "{0, 3}";
target = "{2, 9}";
type = Stem;
},
{
horizontal = 1;
origin = "{0, 15}";
target = "{1, 5}";
type = Stem;
},
{
origin = "{0, 18}";
target = "{1, 2}";
type = Stem;
},
{
origin = "{2, 6}";
target = "{0, 6}";
type = Stem;
}
);
layerId = "6C2B4A57-296A-49E8-ACE5-0BEFCC4AFC9C";
paths = (
{
closed = 1;
nodes = (
"284 47 LINE",
"368 1 OFFCURVE",
"464 -26 OFFCURVE",
"570 -26 CURVE SMOOTH",
"950 -26 OFFCURVE",
"1305 300 OFFCURVE",
"1362 700 CURVE SMOOTH",
"1395 937 OFFCURVE",
"1316 1147 OFFCURVE",
"1168 1278 CURVE",
"1264 1412 LINE",
"1153 1482 LINE",
"1061 1353 LINE",
"977 1400 OFFCURVE",
"882 1426 OFFCURVE",
"774 1426 CURVE SMOOTH",
"394 1426 OFFCURVE",
"38 1100 OFFCURVE",
"-18 700 CURVE SMOOTH",
"-52 465 OFFCURVE",
"30 255 OFFCURVE",
"177 123 CURVE",
"81 -12 LINE",
"193 -82 LINE"
);
},
{
closed = 1;
nodes = (
"156 354 OFFCURVE",
"96 517 OFFCURVE",
"122 700 CURVE SMOOTH",
"166 1018 OFFCURVE",
"448 1286 OFFCURVE",
"754 1286 CURVE SMOOTH",
"835 1286 OFFCURVE",
"910 1265 OFFCURVE",
"972 1229 CURVE",
"268 251 LINE"
);
},
{
closed = 1;
nodes = (
"510 114 OFFCURVE",
"435 135 OFFCURVE",
"374 171 CURVE",
"1077 1151 LINE",
"1188 1046 OFFCURVE",
"1248 883 OFFCURVE",
"1222 700 CURVE SMOOTH",
"1177 382 OFFCURVE",
"895 114 OFFCURVE",
"589 114 CURVE SMOOTH"
);
}
);
width = 1540;
}
);
leftKerningGroup = O;
leftMetricsKey = O;
rightKerningGroup = O;
rightMetricsKey = O;
unicode = 00D8;
},
{
glyphname = OE;
lastChange = "2021-08-26 03:05:31 +0000";
layers = (
{
anchors = (
{
name = bottom;
position = "{1048, 0}";
},
{
name = top;
position = "{1048, 1400}";
}
);
hints = (
{
horizontal = 1;
origin = "{0, 24}";
target = "{1, 11}";
type = Stem;
},
{
horizontal = 1;
origin = "{0, 7}";
target = "{0, 10}";
type = Stem;
},
{
horizontal = 1;
origin = "{0, 14}";
target = "{0, 11}";
type = Stem;
},
{
horizontal = 1;
origin = "{0, 3}";
target = "{0, 6}";
type = Stem;
},
{
horizontal = 1;
origin = "{0, 18}";
target = "{1, 5}";
type = Stem;
},
{
origin = "{0, 21}";
target = "{1, 2}";
type = Stem;
},
{
origin = "{1, 8}";
target = "{0, 6}";
type = Stem;
}
);
layerId = "10BC12B3-5274-42E3-B5BC-F74F362F0DF4";
paths = (
{
closed = 1;
nodes = (
"916 -26 OFFCURVE",
"1052 22 OFFCURVE",
"1164 104 CURVE",
"1164 0 LINE",
"1996 0 LINE",
"1996 300 LINE",
"1464 300 LINE",
"1464 550 LINE",
"1900 550 LINE",
"1900 850 LINE",
"1464 850 LINE",
"1464 1100 LINE",
"1996 1100 LINE",
"1996 1400 LINE",
"1164 1400 LINE",
"1164 1296 LINE",
"1052 1378 OFFCURVE",
"916 1426 OFFCURVE",
"770 1426 CURVE SMOOTH",
"390 1426 OFFCURVE",
"80 1100 OFFCURVE",
"80 700 CURVE SMOOTH",
"80 300 OFFCURVE",
"390 -26 OFFCURVE",
"770 -26 CURVE SMOOTH"
);
},
{
closed = 1;
nodes = (
"556 274 OFFCURVE",
"380 466 OFFCURVE",
"380 700 CURVE SMOOTH",
"380 934 OFFCURVE",
"556 1126 OFFCURVE",
"770 1126 CURVE SMOOTH",
"984 1126 OFFCURVE",
"1160 934 OFFCURVE",
"1160 700 CURVE SMOOTH",
"1160 466 OFFCURVE",
"984 274 OFFCURVE",
"770 274 CURVE SMOOTH"
);
}
);
width = 2096;
},
{
anchors = (
{
name = bottom;
position = "{1103, 0}";
},
{
name = top;
position = "{1103, 1400}";
}
);
hints = (
{
horizontal = 1;
origin = "{0, 24}";
target = "{1, 11}";
type = Stem;
},
{
horizontal = 1;
origin = "{0, 7}";
target = "{0, 10}";
type = Stem;
},
{
horizontal = 1;
origin = "{0, 14}";
target = "{0, 11}";
type = Stem;
},
{
horizontal = 1;
origin = "{0, 3}";
target = "{0, 6}";
type = Stem;
},
{
horizontal = 1;
origin = "{0, 18}";
target = "{1, 5}";
type = Stem;
},
{
origin = "{0, 21}";
target = "{1, 2}";
type = Stem;
},
{
origin = "{0, 3}";
target = "{0, 6}";
type = Stem;
}
);
layerId = "9AF1F7D9-E035-453E-B2A8-46DE370997D0";
paths = (
{
closed = 1;
nodes = (
"1050 -26 OFFCURVE",
"1292 152 OFFCURVE",
"1400 404 CURVE",
"1400 0 LINE",
"2106 0 LINE",
"2106 60 LINE",
"1460 60 LINE",
"1460 670 LINE",
"2010 670 LINE",
"2010 730 LINE",
"1460 730 LINE",
"1460 1340 LINE",
"2106 1340 LINE",
"2106 1400 LINE",
"1400 1400 LINE",
"1400 996 LINE",
"1292 1248 OFFCURVE",
"1050 1426 OFFCURVE",
"770 1426 CURVE SMOOTH",
"390 1426 OFFCURVE",
"80 1100 OFFCURVE",
"80 700 CURVE SMOOTH",
"80 300 OFFCURVE",
"390 -26 OFFCURVE",
"770 -26 CURVE SMOOTH"
);
},
{
closed = 1;
nodes = (
"422 34 OFFCURVE",
"140 334 OFFCURVE",
"140 700 CURVE SMOOTH",
"140 1060 OFFCURVE",
"418 1366 OFFCURVE",
"770 1366 CURVE SMOOTH",
"1118 1366 OFFCURVE",
"1400 1064 OFFCURVE",
"1400 700 CURVE SMOOTH",
"1400 340 OFFCURVE",
"1122 34 OFFCURVE",
"770 34 CURVE SMOOTH"
);
}
);
width = 2206;
},
{
anchors = (
{
name = bottom;
position = "{906, 0}";
},
{
name = top;
position = "{1103, 1400}";
}
);
hints = (
{
horizontal = 1;
origin = "{0, 24}";
target = "{1, 11}";
type = Stem;
},
{
horizontal = 1;
origin = "{0, 7}";
target = "{0, 10}";
type = Stem;
},
{
horizontal = 1;
origin = "{0, 14}";
target = "{0, 11}";
type = Stem;
},
{
horizontal = 1;
origin = "{0, 3}";
target = "{0, 6}";
type = Stem;
},
{
horizontal = 1;
origin = "{0, 18}";
target = "{1, 5}";
type = Stem;
},
{
origin = "{0, 21}";
target = "{1, 2}";
type = Stem;
},
{
origin = "{0, 3}";
target = "{0, 6}";
type = Stem;
}
);
layerId = m003;
paths = (
{
closed = 1;
nodes = (
"850 -26 OFFCURVE",
"1117 152 OFFCURVE",
"1260 404 CURVE",
"1203 0 LINE",
"1909 0 LINE",
"1918 60 LINE",
"1272 60 LINE",
"1357 670 LINE",
"1907 670 LINE",
"1916 730 LINE",
"1366 730 LINE",
"1452 1340 LINE",
"2098 1340 LINE",
"2106 1400 LINE",
"1400 1400 LINE",
"1343 996 LINE",
"1271 1248 OFFCURVE",
"1054 1426 OFFCURVE",
"774 1426 CURVE SMOOTH",
"394 1426 OFFCURVE",
"38 1100 OFFCURVE",
"-18 700 CURVE SMOOTH",
"-75 300 OFFCURVE",
"190 -26 OFFCURVE",
"570 -26 CURVE SMOOTH"
);
},
{
closed = 1;
nodes = (
"230 34 OFFCURVE",
"-10 334 OFFCURVE",
"42 700 CURVE SMOOTH",
"92 1060 OFFCURVE",
"413 1366 OFFCURVE",
"765 1366 CURVE SMOOTH",
"1113 1366 OFFCURVE",
"1353 1064 OFFCURVE",
"1302 700 CURVE SMOOTH",
"1251 340 OFFCURVE",
"930 34 OFFCURVE",
"578 34 CURVE SMOOTH"
);
}
);
width = 2206;
},
{
anchors = (
{
name = bottom;
position = "{851, 0}";
},
{
name = top;
position = "{1048, 1400}";
}
);
hints = (
{
horizontal = 1;
origin = "{0, 24}";
target = "{1, 11}";
type = Stem;
},
{
horizontal = 1;
origin = "{0, 7}";
target = "{0, 10}";
type = Stem;
},
{
horizontal = 1;
origin = "{0, 14}";
target = "{0, 11}";
type = Stem;
},
{
horizontal = 1;
origin = "{0, 3}";
target = "{0, 6}";
type = Stem;
},
{
horizontal = 1;
origin = "{0, 18}";
target = "{1, 5}";
type = Stem;
},
{
origin = "{0, 21}";
target = "{1, 2}";
type = Stem;
},
{
origin = "{1, 8}";
target = "{0, 6}";
type = Stem;
}
);
layerId = m004;
paths = (
{
closed = 1;
nodes = (
"716 -26 OFFCURVE",
"858 22 OFFCURVE",
"982 104 CURVE",
"967 0 LINE",
"1799 0 LINE",
"1841 300 LINE",
"1309 300 LINE",
"1345 550 LINE",
"1781 550 LINE",
"1823 850 LINE",
"1387 850 LINE",
"1422 1100 LINE",
"1954 1100 LINE",
"1996 1400 LINE",
"1164 1400 LINE",
"1149 1296 LINE",
"1049 1378 OFFCURVE",
"920 1426 OFFCURVE",
"774 1426 CURVE SMOOTH",
"394 1426 OFFCURVE",
"38 1100 OFFCURVE",
"-18 700 CURVE SMOOTH",
"-75 300 OFFCURVE",
"190 -26 OFFCURVE",
"570 -26 CURVE SMOOTH"
);
},
{
closed = 1;
nodes = (
"398 274 OFFCURVE",
"249 466 OFFCURVE",
"282 700 CURVE SMOOTH",
"315 934 OFFCURVE",
"517 1126 OFFCURVE",
"731 1126 CURVE SMOOTH",
"945 1126 OFFCURVE",
"1095 934 OFFCURVE",
"1062 700 CURVE SMOOTH",
"1029 466 OFFCURVE",
"826 274 OFFCURVE",
"612 274 CURVE SMOOTH"
);
}
);
width = 2096;
},
{
anchors = (
{
name = bottom;
position = "{1085, 0}";
},
{
name = top;
position = "{1085, 1400}";
}
);
hints = (
{
horizontal = 1;
origin = "{0, 24}";
target = "{1, 11}";
type = Stem;
},
{
horizontal = 1;
origin = "{0, 7}";
target = "{0, 10}";
type = Stem;
},
{
horizontal = 1;
origin = "{0, 14}";
target = "{0, 11}";
type = Stem;
},
{
horizontal = 1;
origin = "{0, 3}";
target = "{0, 6}";
type = Stem;
},
{
horizontal = 1;
origin = "{0, 18}";
target = "{1, 5}";
type = Stem;
},
{
origin = "{0, 21}";
target = "{1, 2}";
type = Stem;
},
{
origin = "{0, 3}";
target = "{0, 6}";
type = Stem;
}
);
layerId = "81BB4A08-F3DE-40E2-9BD9-52E47EDF5C1E";
paths = (
{
closed = 1;
nodes = (
"1005 -26 OFFCURVE",
"1212 109 OFFCURVE",
"1321 304 CURVE",
"1321 0 LINE",
"2069 0 LINE",
"2069 140 LINE",
"1461 140 LINE",
"1461 630 LINE",
"1973 630 LINE",
"1973 770 LINE",
"1461 770 LINE",
"1461 1260 LINE",
"2069 1260 LINE",
"2069 1400 LINE",
"1321 1400 LINE",
"1321 1096 LINE",
"1212 1291 OFFCURVE",
"1005 1426 OFFCURVE",
"770 1426 CURVE SMOOTH",
"390 1426 OFFCURVE",
"80 1100 OFFCURVE",
"80 700 CURVE SMOOTH",
"80 300 OFFCURVE",
"390 -26 OFFCURVE",
"770 -26 CURVE SMOOTH"
);
},
{
closed = 1;
nodes = (
"467 114 OFFCURVE",
"220 378 OFFCURVE",
"220 700 CURVE SMOOTH",
"220 1018 OFFCURVE",
"464 1286 OFFCURVE",
"770 1286 CURVE SMOOTH",
"1073 1286 OFFCURVE",
"1320 1021 OFFCURVE",
"1320 700 CURVE SMOOTH",
"1320 382 OFFCURVE",
"1076 114 OFFCURVE",
"770 114 CURVE SMOOTH"
);
}
);
width = 2169.33333;
},
{
anchors = (
{
name = bottom;
position = "{888, 0}";
},
{
name = top;
position = "{1085, 1400}";
}
);
hints = (
{
horizontal = 1;
origin = "{0, 24}";
target = "{1, 11}";
type = Stem;
},
{
horizontal = 1;
origin = "{0, 7}";
target = "{0, 10}";
type = Stem;
},
{
horizontal = 1;
origin = "{0, 14}";
target = "{0, 11}";
type = Stem;
},
{
horizontal = 1;
origin = "{0, 3}";
target = "{0, 6}";
type = Stem;
},
{
horizontal = 1;
origin = "{0, 18}";
target = "{1, 5}";
type = Stem;
},
{
origin = "{0, 21}";
target = "{1, 2}";
type = Stem;
},
{
origin = "{0, 3}";
target = "{0, 6}";
type = Stem;
}
);
layerId = "6C2B4A57-296A-49E8-ACE5-0BEFCC4AFC9C";
paths = (
{
closed = 1;
nodes = (
"805 -26 OFFCURVE",
"1031 109 OFFCURVE",
"1167 304 CURVE",
"1124 0 LINE",
"1872 0 LINE",
"1892 140 LINE",
"1284 140 LINE",
"1353 630 LINE",
"1865 630 LINE",
"1885 770 LINE",
"1373 770 LINE",
"1442 1260 LINE",
"2050 1260 LINE",
"2069 1400 LINE",
"1321 1400 LINE",
"1278 1096 LINE",
"1197 1291 OFFCURVE",
"1009 1426 OFFCURVE",
"774 1426 CURVE SMOOTH",
"394 1426 OFFCURVE",
"38 1100 OFFCURVE",
"-18 700 CURVE SMOOTH",
"-75 300 OFFCURVE",
"190 -26 OFFCURVE",
"570 -26 CURVE SMOOTH"
);
},
{
closed = 1;
nodes = (
"286 114 OFFCURVE",
"76 378 OFFCURVE",
"122 700 CURVE SMOOTH",
"166 1018 OFFCURVE",
"448 1286 OFFCURVE",
"754 1286 CURVE SMOOTH",
"1057 1286 OFFCURVE",
"1267 1021 OFFCURVE",
"1222 700 CURVE SMOOTH",
"1177 382 OFFCURVE",
"895 114 OFFCURVE",
"589 114 CURVE SMOOTH"
);
}
);
width = 2169.33333;
}
);
leftKerningGroup = O;
leftMetricsKey = O;
rightKerningGroup = E;
rightMetricsKey = E;
unicode = 0152;
},
{
glyphname = P;
lastChange = "2021-08-26 03:05:31 +0000";
layers = (
{
anchors = (
{
name = bottom;
position = "{570, 0}";
},
{
name = top;
position = "{570, 1400}";
}
);
hints = (
{
horizontal = 1;
origin = "{0, 10}";
target = up;
type = BottomGhost;
},
{
horizontal = 1;
origin = "{0, 1}";
target = "{1, 8}";
type = Stem;
},
{
horizontal = 1;
origin = "{0, 9}";
target = "{1, 0}";
type = Stem;
},
{
origin = "{0, 10}";
target = "{0, 0}";
type = Stem;
},
{
origin = "{1, 4}";
target = "{0, 5}";
type = Stem;
}
);
layerId = "10BC12B3-5274-42E3-B5BC-F74F362F0DF4";
paths = (
{
closed = 1;
nodes = (
"420 0 LINE",
"420 544 LINE",
"648 544 LINE SMOOTH",
"870 544 OFFCURVE",
"1060 736 OFFCURVE",
"1060 972 CURVE SMOOTH",
"1060 1204 OFFCURVE",
"878 1400 OFFCURVE",
"648 1400 CURVE SMOOTH",
"120 1400 LINE",
"120 0 LINE"
);
},
{
closed = 1;
nodes = (
"420 1144 LINE",
"614 1144 LINE SMOOTH",
"694 1144 OFFCURVE",
"760 1076 OFFCURVE",
"760 994 CURVE SMOOTH",
"760 912 OFFCURVE",
"694 844 OFFCURVE",
"614 844 CURVE SMOOTH",
"420 844 LINE"
);
}
);
width = 1140;
},
{
anchors = (
{
name = bottom;
position = "{500, 0}";
},
{
name = top;
position = "{500, 1400}";
}
);
hints = (
{
horizontal = 1;
origin = "{0, 10}";
target = up;
type = BottomGhost;
},
{
horizontal = 1;
origin = "{0, 1}";
target = "{1, 8}";
type = Stem;
},
{
horizontal = 1;
origin = "{0, 9}";
target = "{1, 0}";
type = Stem;
},
{
origin = "{0, 10}";
target = "{0, 0}";
type = Stem;
},
{
origin = "{1, 4}";
target = "{0, 5}";
type = Stem;
}
);
layerId = "9AF1F7D9-E035-453E-B2A8-46DE370997D0";
paths = (
{
closed = 1;
nodes = (
"180 0 LINE",
"180 600 LINE",
"528 600 LINE SMOOTH",
"742 600 OFFCURVE",
"920 770 OFFCURVE",
"920 1000 CURVE SMOOTH",
"920 1228 OFFCURVE",
"748 1400 OFFCURVE",
"528 1400 CURVE SMOOTH",
"120 1400 LINE",
"120 0 LINE"
);
},
{
closed = 1;
nodes = (
"180 1340 LINE",
"528 1340 LINE SMOOTH",
"710 1340 OFFCURVE",
"860 1196 OFFCURVE",
"860 1000 CURVE SMOOTH",
"860 804 OFFCURVE",
"710 660 OFFCURVE",
"528 660 CURVE SMOOTH",
"180 660 LINE"
);
}
);
width = 1000;
},
{
anchors = (
{
name = bottom;
position = "{303, 0}";
},
{
name = top;
position = "{500, 1400}";
}
);
hints = (
{
horizontal = 1;
origin = "{0, 10}";
target = up;
type = BottomGhost;
},
{
horizontal = 1;
origin = "{0, 1}";
target = "{1, 8}";
type = Stem;
},
{
horizontal = 1;
origin = "{0, 9}";
target = "{1, 0}";
type = Stem;
},
{
origin = "{0, 10}";
target = "{0, 0}";
type = Stem;
},
{
origin = "{1, 4}";
target = "{0, 5}";
type = Stem;
}
);
layerId = m003;
paths = (
{
closed = 1;
nodes = (
"-17 0 LINE",
"68 600 LINE",
"416 600 LINE SMOOTH",
"630 600 OFFCURVE",
"831 770 OFFCURVE",
"864 1000 CURVE SMOOTH",
"896 1228 OFFCURVE",
"748 1400 OFFCURVE",
"528 1400 CURVE SMOOTH",
"120 1400 LINE",
"-77 0 LINE"
);
},
{
closed = 1;
nodes = (
"172 1340 LINE",
"520 1340 LINE SMOOTH",
"702 1340 OFFCURVE",
"831 1196 OFFCURVE",
"804 1000 CURVE SMOOTH",
"776 804 OFFCURVE",
"606 660 OFFCURVE",
"424 660 CURVE SMOOTH",
"76 660 LINE"
);
}
);
width = 1000;
},
{
anchors = (
{
name = bottom;
position = "{373, 0}";
},
{
name = top;
position = "{570, 1400}";
}
);
hints = (
{
horizontal = 1;
origin = "{0, 10}";
target = up;
type = BottomGhost;
},
{
horizontal = 1;
origin = "{0, 1}";
target = "{1, 8}";
type = Stem;
},
{
horizontal = 1;
origin = "{0, 9}";
target = "{1, 0}";
type = Stem;
},
{
origin = "{0, 10}";
target = "{0, 0}";
type = Stem;
},
{
origin = "{1, 4}";
target = "{0, 5}";
type = Stem;
}
);
layerId = m004;
paths = (
{
closed = 1;
nodes = (
"223 0 LINE",
"300 544 LINE",
"528 544 LINE SMOOTH",
"750 544 OFFCURVE",
"967 736 OFFCURVE",
"1000 972 CURVE SMOOTH",
"1032 1204 OFFCURVE",
"878 1400 OFFCURVE",
"648 1400 CURVE SMOOTH",
"120 1400 LINE",
"-77 0 LINE"
);
},
{
closed = 1;
nodes = (
"384 1144 LINE",
"578 1144 LINE SMOOTH",
"658 1144 OFFCURVE",
"714 1076 OFFCURVE",
"703 994 CURVE SMOOTH",
"691 912 OFFCURVE",
"616 844 OFFCURVE",
"536 844 CURVE SMOOTH",
"342 844 LINE"
);
}
);
width = 1140;
},
{
anchors = (
{
name = bottom;
position = "{523, 0}";
},
{
name = top;
position = "{523, 1400}";
}
);
hints = (
{
horizontal = 1;
origin = "{0, 10}";
target = up;
type = BottomGhost;
},
{
horizontal = 1;
origin = "{0, 1}";
target = "{1, 8}";
type = Stem;
},
{
horizontal = 1;
origin = "{0, 9}";
target = "{1, 0}";
type = Stem;
},
{
origin = "{0, 10}";
target = "{0, 0}";
type = Stem;
},
{
origin = "{1, 4}";
target = "{0, 5}";
type = Stem;
}
);
layerId = "81BB4A08-F3DE-40E2-9BD9-52E47EDF5C1E";
paths = (
{
closed = 1;
nodes = (
"260 0 LINE",
"260 581 LINE",
"568 581 LINE SMOOTH",
"785 581 OFFCURVE",
"967 759 OFFCURVE",
"967 991 CURVE SMOOTH",
"967 1220 OFFCURVE",
"791 1400 OFFCURVE",
"568 1400 CURVE SMOOTH",
"120 1400 LINE",
"120 0 LINE"
);
},
{
closed = 1;
nodes = (
"260 1275 LINE",
"557 1275 LINE SMOOTH",
"705 1275 OFFCURVE",
"827 1156 OFFCURVE",
"827 998 CURVE SMOOTH",
"827 840 OFFCURVE",
"705 721 OFFCURVE",
"557 721 CURVE SMOOTH",
"260 721 LINE"
);
}
);
width = 1046.66667;
},
{
anchors = (
{
name = bottom;
position = "{326, 0}";
},
{
name = top;
position = "{523, 1400}";
}
);
hints = (
{
horizontal = 1;
origin = "{0, 10}";
target = up;
type = BottomGhost;
},
{
horizontal = 1;
origin = "{0, 1}";
target = "{1, 8}";
type = Stem;
},
{
horizontal = 1;
origin = "{0, 9}";
target = "{1, 0}";
type = Stem;
},
{
origin = "{0, 10}";
target = "{0, 0}";
type = Stem;
},
{
origin = "{1, 4}";
target = "{0, 5}";
type = Stem;
}
);
layerId = "6C2B4A57-296A-49E8-ACE5-0BEFCC4AFC9C";
paths = (
{
closed = 1;
nodes = (
"63 0 LINE",
"145 581 LINE",
"453 581 LINE SMOOTH",
"670 581 OFFCURVE",
"876 759 OFFCURVE",
"909 991 CURVE SMOOTH",
"941 1220 OFFCURVE",
"791 1400 OFFCURVE",
"568 1400 CURVE SMOOTH",
"120 1400 LINE",
"-77 0 LINE"
);
},
{
closed = 1;
nodes = (
"243 1275 LINE",
"539 1275 LINE SMOOTH",
"687 1275 OFFCURVE",
"792 1156 OFFCURVE",
"770 998 CURVE SMOOTH",
"748 840 OFFCURVE",
"609 721 OFFCURVE",
"461 721 CURVE SMOOTH",
"165 721 LINE"
);
}
);
width = 1046.66667;
}
);
leftKerningGroup = H;
leftMetricsKey = H;
rightKerningGroup = P;
unicode = 0050;
},
{
glyphname = Thorn;
lastChange = "2021-08-26 03:05:31 +0000";
layers = (
{
anchors = (
{
name = bottom;
position = "{570, 0}";
},
{
name = top;
position = "{570, 1400}";
}
);
hints = (
{
horizontal = 1;
origin = "{0, 12}";
target = up;
type = BottomGhost;
},
{
horizontal = 1;
origin = "{0, 1}";
target = "{1, 8}";
type = Stem;
},
{
horizontal = 1;
origin = "{1, 0}";
target = "{0, 9}";
type = Stem;
},
{
horizontal = 1;
origin = "{0, 11}";
target = down;
type = TopGhost;
},
{
origin = "{0, 12}";
target = "{0, 0}";
type = Stem;
},
{
origin = "{1, 4}";
target = "{0, 5}";
type = Stem;
}
);
layerId = "10BC12B3-5274-42E3-B5BC-F74F362F0DF4";
paths = (
{
closed = 1;
nodes = (
"420 0 LINE",
"420 272 LINE",
"648 272 LINE SMOOTH",
"870 272 OFFCURVE",
"1060 464 OFFCURVE",
"1060 700 CURVE SMOOTH",
"1060 932 OFFCURVE",
"878 1128 OFFCURVE",
"648 1128 CURVE SMOOTH",
"420 1128 LINE",
"420 1400 LINE",
"120 1400 LINE",
"120 0 LINE"
);
},
{
closed = 1;
nodes = (
"420 872 LINE",
"614 872 LINE SMOOTH",
"694 872 OFFCURVE",
"760 804 OFFCURVE",
"760 722 CURVE SMOOTH",
"760 640 OFFCURVE",
"694 572 OFFCURVE",
"614 572 CURVE SMOOTH",
"420 572 LINE"
);
}
);
width = 1120;
},
{
anchors = (
{
name = bottom;
position = "{500, 0}";
},
{
name = top;
position = "{500, 1400}";
}
);
hints = (
{
horizontal = 1;
origin = "{0, 12}";
target = up;
type = BottomGhost;
},
{
horizontal = 1;
origin = "{0, 1}";
target = "{1, 8}";
type = Stem;
},
{
horizontal = 1;
origin = "{1, 0}";
target = "{0, 9}";
type = Stem;
},
{
horizontal = 1;
origin = "{0, 11}";
target = down;
type = TopGhost;
},
{
origin = "{0, 12}";
target = "{0, 0}";
type = Stem;
},
{
origin = "{1, 4}";
target = "{0, 5}";
type = Stem;
}
);
layerId = "9AF1F7D9-E035-453E-B2A8-46DE370997D0";
paths = (
{
closed = 1;
nodes = (
"180 0 LINE",
"180 300 LINE",
"528 300 LINE SMOOTH",
"742 300 OFFCURVE",
"920 470 OFFCURVE",
"920 700 CURVE SMOOTH",
"920 928 OFFCURVE",
"748 1100 OFFCURVE",
"528 1100 CURVE SMOOTH",
"180 1100 LINE",
"180 1400 LINE",
"120 1400 LINE",
"120 0 LINE"
);
},
{
closed = 1;
nodes = (
"180 1040 LINE",
"528 1040 LINE SMOOTH",
"710 1040 OFFCURVE",
"860 896 OFFCURVE",
"860 700 CURVE SMOOTH",
"860 504 OFFCURVE",
"710 360 OFFCURVE",
"528 360 CURVE SMOOTH",
"180 360 LINE"
);
}
);
width = 980;
},
{
anchors = (
{
name = bottom;
position = "{303, 0}";
},
{
name = top;
position = "{500, 1400}";
}
);
hints = (
{
horizontal = 1;
origin = "{0, 12}";
target = up;
type = BottomGhost;
},
{
horizontal = 1;
origin = "{0, 1}";
target = "{1, 8}";
type = Stem;
},
{
horizontal = 1;
origin = "{1, 0}";
target = "{0, 9}";
type = Stem;
},
{
horizontal = 1;
origin = "{0, 11}";
target = down;
type = TopGhost;
},
{
origin = "{0, 12}";
target = "{0, 0}";
type = Stem;
},
{
origin = "{1, 4}";
target = "{0, 5}";
type = Stem;
}
);
layerId = m003;
paths = (
{
closed = 1;
nodes = (
"-17 0 LINE",
"25 300 LINE",
"373 300 LINE SMOOTH",
"587 300 OFFCURVE",
"789 470 OFFCURVE",
"822 700 CURVE SMOOTH",
"854 928 OFFCURVE",
"706 1100 OFFCURVE",
"486 1100 CURVE SMOOTH",
"138 1100 LINE",
"180 1400 LINE",
"120 1400 LINE",
"-77 0 LINE"
);
},
{
closed = 1;
nodes = (
"129 1040 LINE",
"477 1040 LINE SMOOTH",
"659 1040 OFFCURVE",
"789 896 OFFCURVE",
"762 700 CURVE SMOOTH",
"734 504 OFFCURVE",
"564 360 OFFCURVE",
"382 360 CURVE SMOOTH",
"34 360 LINE"
);
}
);
width = 980;
},
{
anchors = (
{
name = bottom;
position = "{373, 0}";
},
{
name = top;
position = "{570, 1400}";
}
);
hints = (
{
horizontal = 1;
origin = "{0, 12}";
target = up;
type = BottomGhost;
},
{
horizontal = 1;
origin = "{0, 1}";
target = "{1, 8}";
type = Stem;
},
{
horizontal = 1;
origin = "{1, 0}";
target = "{0, 9}";
type = Stem;
},
{
horizontal = 1;
origin = "{0, 11}";
target = down;
type = TopGhost;
},
{
origin = "{0, 12}";
target = "{0, 0}";
type = Stem;
},
{
origin = "{1, 4}";
target = "{0, 5}";
type = Stem;
}
);
layerId = m004;
paths = (
{
closed = 1;
nodes = (
"223 0 LINE",
"261 272 LINE",
"489 272 LINE SMOOTH",
"711 272 OFFCURVE",
"928 464 OFFCURVE",
"962 700 CURVE SMOOTH",
"994 932 OFFCURVE",
"840 1128 OFFCURVE",
"610 1128 CURVE SMOOTH",
"382 1128 LINE",
"420 1400 LINE",
"120 1400 LINE",
"-77 0 LINE"
);
},
{
closed = 1;
nodes = (
"346 872 LINE",
"540 872 LINE SMOOTH",
"620 872 OFFCURVE",
"676 804 OFFCURVE",
"665 722 CURVE SMOOTH",
"653 640 OFFCURVE",
"578 572 OFFCURVE",
"498 572 CURVE SMOOTH",
"304 572 LINE"
);
}
);
width = 1120;
},
{
anchors = (
{
name = bottom;
position = "{523, 0}";
},
{
name = top;
position = "{523, 1400}";
}
);
hints = (
{
horizontal = 1;
origin = "{0, 12}";
target = up;
type = BottomGhost;
},
{
horizontal = 1;
origin = "{0, 1}";
target = "{1, 8}";
type = Stem;
},
{
horizontal = 1;
origin = "{1, 0}";
target = "{0, 9}";
type = Stem;
},
{
horizontal = 1;
origin = "{0, 11}";
target = down;
type = TopGhost;
},
{
origin = "{0, 12}";
target = "{0, 0}";
type = Stem;
},
{
origin = "{1, 4}";
target = "{0, 5}";
type = Stem;
}
);
layerId = "81BB4A08-F3DE-40E2-9BD9-52E47EDF5C1E";
paths = (
{
closed = 1;
nodes = (
"260 0 LINE",
"260 291 LINE",
"568 291 LINE SMOOTH",
"785 291 OFFCURVE",
"967 468 OFFCURVE",
"967 700 CURVE SMOOTH",
"967 929 OFFCURVE",
"791 1109 OFFCURVE",
"568 1109 CURVE SMOOTH",
"260 1109 LINE",
"260 1400 LINE",
"120 1400 LINE",
"120 0 LINE"
);
},
{
closed = 1;
nodes = (
"260 984 LINE",
"557 984 LINE SMOOTH",
"705 984 OFFCURVE",
"827 865 OFFCURVE",
"827 707 CURVE SMOOTH",
"827 549 OFFCURVE",
"705 431 OFFCURVE",
"557 431 CURVE SMOOTH",
"260 431 LINE"
);
}
);
width = 1026.66667;
},
{
anchors = (
{
name = bottom;
position = "{326, 0}";
},
{
name = top;
position = "{523, 1400}";
}
);
hints = (
{
horizontal = 1;
origin = "{0, 12}";
target = up;
type = BottomGhost;
},
{
horizontal = 1;
origin = "{0, 1}";
target = "{1, 8}";
type = Stem;
},
{
horizontal = 1;
origin = "{1, 0}";
target = "{0, 9}";
type = Stem;
},
{
horizontal = 1;
origin = "{0, 11}";
target = down;
type = TopGhost;
},
{
origin = "{0, 12}";
target = "{0, 0}";
type = Stem;
},
{
origin = "{1, 4}";
target = "{0, 5}";
type = Stem;
}
);
layerId = "6C2B4A57-296A-49E8-ACE5-0BEFCC4AFC9C";
paths = (
{
closed = 1;
nodes = (
"63 0 LINE",
"104 291 LINE",
"412 291 LINE SMOOTH",
"628 291 OFFCURVE",
"835 468 OFFCURVE",
"869 700 CURVE SMOOTH",
"901 929 OFFCURVE",
"751 1109 OFFCURVE",
"527 1109 CURVE SMOOTH",
"219 1109 LINE",
"260 1400 LINE",
"120 1400 LINE",
"-77 0 LINE"
);
},
{
closed = 1;
nodes = (
"201 984 LINE",
"498 984 LINE SMOOTH",
"646 984 OFFCURVE",
"751 865 OFFCURVE",
"730 707 CURVE SMOOTH",
"707 549 OFFCURVE",
"569 431 OFFCURVE",
"421 431 CURVE SMOOTH",
"124 431 LINE"
);
}
);
width = 1026.66667;
}
);
leftKerningGroup = l;
leftMetricsKey = l;
rightKerningGroup = o;
rightMetricsKey = p;
unicode = 00DE;
},
{
glyphname = Q;
lastChange = "2021-08-26 03:05:31 +0000";
layers = (
{
anchors = (
{
name = bottom;
position = "{792, 0}";
},
{
name = top;
position = "{792, 1400}";
}
);
hints = (
{
horizontal = 1;
origin = "{0, 13}";
target = "{1, 17}";
type = Stem;
},
{
horizontal = 1;
origin = "{1, 5}";
target = "{0, 7}";
type = Stem;
},
{
origin = "{0, 10}";
target = "{1, 2}";
type = Stem;
},
{
origin = "{1, 8}";
target = "{0, 4}";
type = Stem;
}
);
layerId = "10BC12B3-5274-42E3-B5BC-F74F362F0DF4";
paths = (
{
closed = 1;
nodes = (
"1504 160 LINE",
"1350 314 LINE",
"1418 428 OFFCURVE",
"1460 562 OFFCURVE",
"1460 708 CURVE SMOOTH",
"1460 1108 OFFCURVE",
"1150 1434 OFFCURVE",
"770 1434 CURVE SMOOTH",
"390 1434 OFFCURVE",
"80 1108 OFFCURVE",
"80 708 CURVE SMOOTH",
"80 306 OFFCURVE",
"390 -18 OFFCURVE",
"770 -18 CURVE SMOOTH",
"908 -18 OFFCURVE",
"1036 24 OFFCURVE",
"1142 96 CURVE",
"1292 -52 LINE"
);
},
{
closed = 1;
nodes = (
"556 282 OFFCURVE",
"380 472 OFFCURVE",
"380 708 CURVE SMOOTH",
"380 942 OFFCURVE",
"556 1134 OFFCURVE",
"770 1134 CURVE SMOOTH",
"984 1134 OFFCURVE",
"1160 942 OFFCURVE",
"1160 708 CURVE SMOOTH",
"1160 648 OFFCURVE",
"1148 590 OFFCURVE",
"1126 538 CURVE",
"1052 612 LINE",
"840 400 LINE",
"924 316 LINE",
"876 294 OFFCURVE",
"824 282 OFFCURVE",
"770 282 CURVE SMOOTH"
);
}
);
width = 1584;
},
{
anchors = (
{
name = bottom;
position = "{769, 0}";
},
{
name = top;
position = "{769, 1400}";
}
);
hints = (
{
horizontal = 1;
origin = "{0, 17}";
target = up;
type = BottomGhost;
},
{
horizontal = 1;
origin = "{0, 7}";
target = "{1, 5}";
type = Stem;
},
{
horizontal = 1;
origin = "{0, 13}";
target = "{1, 17}";
type = Stem;
},
{
origin = "{0, 10}";
target = "{1, 2}";
type = Stem;
},
{
origin = "{1, 8}";
target = "{0, 4}";
type = Stem;
}
);
layerId = "9AF1F7D9-E035-453E-B2A8-46DE370997D0";
paths = (
{
closed = 1;
nodes = (
"1454 32 LINE",
"1276 208 LINE",
"1390 338 OFFCURVE",
"1458 510 OFFCURVE",
"1458 700 CURVE SMOOTH",
"1458 1100 OFFCURVE",
"1150 1426 OFFCURVE",
"770 1426 CURVE SMOOTH",
"388 1426 OFFCURVE",
"80 1100 OFFCURVE",
"80 700 CURVE SMOOTH",
"80 300 OFFCURVE",
"388 -26 OFFCURVE",
"770 -26 CURVE SMOOTH",
"948 -26 OFFCURVE",
"1112 46 OFFCURVE",
"1236 166 CURVE",
"1412 -10 LINE"
);
},
{
closed = 1;
nodes = (
"424 34 OFFCURVE",
"140 334 OFFCURVE",
"140 700 CURVE SMOOTH",
"140 1058 OFFCURVE",
"418 1366 OFFCURVE",
"770 1366 CURVE SMOOTH",
"1114 1366 OFFCURVE",
"1398 1066 OFFCURVE",
"1398 700 CURVE SMOOTH",
"1398 536 OFFCURVE",
"1340 376 OFFCURVE",
"1234 252 CURVE",
"966 520 LINE",
"924 476 LINE",
"1192 208 LINE",
"1082 98 OFFCURVE",
"924 34 OFFCURVE",
"770 34 CURVE SMOOTH"
);
}
);
width = 1538;
},
{
anchors = (
{
name = bottom;
position = "{572, 0}";
},
{
name = top;
position = "{769, 1400}";
}
);
hints = (
{
horizontal = 1;
origin = "{0, 17}";
target = up;
type = BottomGhost;
},
{
horizontal = 1;
origin = "{0, 7}";
target = "{1, 5}";
type = Stem;
},
{
horizontal = 1;
origin = "{0, 13}";
target = "{1, 17}";
type = Stem;
},
{
origin = "{0, 10}";
target = "{1, 2}";
type = Stem;
},
{
origin = "{1, 8}";
target = "{0, 4}";
type = Stem;
}
);
layerId = m003;
paths = (
{
closed = 1;
nodes = (
"1262 32 LINE",
"1108 208 LINE",
"1241 338 OFFCURVE",
"1333 510 OFFCURVE",
"1360 700 CURVE SMOOTH",
"1416 1100 OFFCURVE",
"1154 1426 OFFCURVE",
"774 1426 CURVE SMOOTH",
"392 1426 OFFCURVE",
"38 1100 OFFCURVE",
"-18 700 CURVE SMOOTH",
"-75 300 OFFCURVE",
"188 -26 OFFCURVE",
"570 -26 CURVE SMOOTH",
"748 -26 OFFCURVE",
"922 46 OFFCURVE",
"1063 166 CURVE",
"1214 -10 LINE"
);
},
{
closed = 1;
nodes = (
"232 34 OFFCURVE",
"-10 334 OFFCURVE",
"42 700 CURVE SMOOTH",
"92 1058 OFFCURVE",
"413 1366 OFFCURVE",
"765 1366 CURVE SMOOTH",
"1109 1366 OFFCURVE",
"1351 1066 OFFCURVE",
"1300 700 CURVE SMOOTH",
"1277 536 OFFCURVE",
"1196 376 OFFCURVE",
"1073 252 CURVE",
"842 520 LINE",
"794 476 LINE",
"1024 208 LINE",
"899 98 OFFCURVE",
"732 34 OFFCURVE",
"578 34 CURVE SMOOTH"
);
}
);
width = 1538;
},
{
anchors = (
{
name = bottom;
position = "{595, 0}";
},
{
name = top;
position = "{792, 1400}";
}
);
hints = (
{
horizontal = 1;
origin = "{0, 13}";
target = "{1, 17}";
type = Stem;
},
{
horizontal = 1;
origin = "{1, 5}";
target = "{0, 7}";
type = Stem;
},
{
origin = "{0, 10}";
target = "{1, 2}";
type = Stem;
},
{
origin = "{1, 8}";
target = "{0, 4}";
type = Stem;
}
);
layerId = m004;
paths = (
{
closed = 1;
nodes = (
"1330 160 LINE",
"1197 314 LINE",
"1281 428 OFFCURVE",
"1342 562 OFFCURVE",
"1363 708 CURVE SMOOTH",
"1419 1108 OFFCURVE",
"1155 1434 OFFCURVE",
"775 1434 CURVE SMOOTH",
"395 1434 OFFCURVE",
"39 1108 OFFCURVE",
"-17 708 CURVE SMOOTH",
"-74 306 OFFCURVE",
"191 -18 OFFCURVE",
"571 -18 CURVE SMOOTH",
"709 -18 OFFCURVE",
"843 24 OFFCURVE",
"959 96 CURVE",
"1088 -52 LINE"
);
},
{
closed = 1;
nodes = (
"399 282 OFFCURVE",
"250 472 OFFCURVE",
"283 708 CURVE SMOOTH",
"316 942 OFFCURVE",
"519 1134 OFFCURVE",
"733 1134 CURVE SMOOTH",
"947 1134 OFFCURVE",
"1096 942 OFFCURVE",
"1063 708 CURVE SMOOTH",
"1054 648 OFFCURVE",
"1034 590 OFFCURVE",
"1005 538 CURVE",
"941 612 LINE",
"699 400 LINE",
"772 316 LINE",
"721 294 OFFCURVE",
"667 282 OFFCURVE",
"613 282 CURVE SMOOTH"
);
}
);
width = 1584;
},
{
anchors = (
{
name = bottom;
position = "{777, 0}";
},
{
name = top;
position = "{777, 1400}";
}
);
hints = (
{
horizontal = 1;
origin = "{0, 17}";
target = up;
type = BottomGhost;
},
{
horizontal = 1;
origin = "{0, 7}";
target = "{1, 5}";
type = Stem;
},
{
horizontal = 1;
origin = "{0, 13}";
target = "{1, 17}";
type = Stem;
},
{
origin = "{0, 10}";
target = "{1, 2}";
type = Stem;
},
{
origin = "{1, 8}";
target = "{0, 4}";
type = Stem;
}
);
layerId = "81BB4A08-F3DE-40E2-9BD9-52E47EDF5C1E";
paths = (
{
closed = 1;
nodes = (
"1471 75 LINE",
"1301 243 LINE",
"1399 368 OFFCURVE",
"1459 527 OFFCURVE",
"1459 703 CURVE SMOOTH",
"1459 1103 OFFCURVE",
"1150 1429 OFFCURVE",
"770 1429 CURVE SMOOTH",
"389 1429 OFFCURVE",
"80 1103 OFFCURVE",
"80 703 CURVE SMOOTH",
"80 302 OFFCURVE",
"389 -23 OFFCURVE",
"770 -23 CURVE SMOOTH",
"935 -23 OFFCURVE",
"1087 39 OFFCURVE",
"1205 143 CURVE",
"1372 -24 LINE"
);
},
{
closed = 1;
nodes = (
"468 117 OFFCURVE",
"220 380 OFFCURVE",
"220 703 CURVE SMOOTH",
"220 1019 OFFCURVE",
"464 1289 OFFCURVE",
"770 1289 CURVE SMOOTH",
"1071 1289 OFFCURVE",
"1319 1025 OFFCURVE",
"1319 703 CURVE SMOOTH",
"1319 573 OFFCURVE",
"1276 447 OFFCURVE",
"1198 347 CURVE",
"995 551 LINE",
"896 451 LINE",
"1103 244 LINE",
"1013 163 OFFCURVE",
"891 117 OFFCURVE",
"770 117 CURVE SMOOTH"
);
}
);
width = 1553.33333;
},
{
anchors = (
{
name = bottom;
position = "{580, 0}";
},
{
name = top;
position = "{777, 1400}";
}
);
hints = (
{
horizontal = 1;
origin = "{0, 17}";
target = up;
type = BottomGhost;
},
{
horizontal = 1;
origin = "{0, 7}";
target = "{1, 5}";
type = Stem;
},
{
horizontal = 1;
origin = "{0, 13}";
target = "{1, 17}";
type = Stem;
},
{
origin = "{0, 10}";
target = "{1, 2}";
type = Stem;
},
{
origin = "{1, 8}";
target = "{0, 4}";
type = Stem;
}
);
layerId = "6C2B4A57-296A-49E8-ACE5-0BEFCC4AFC9C";
paths = (
{
closed = 1;
nodes = (
"1285 75 LINE",
"1138 243 LINE",
"1254 368 OFFCURVE",
"1336 527 OFFCURVE",
"1361 703 CURVE SMOOTH",
"1417 1103 OFFCURVE",
"1154 1429 OFFCURVE",
"774 1429 CURVE SMOOTH",
"393 1429 OFFCURVE",
"38 1103 OFFCURVE",
"-18 703 CURVE SMOOTH",
"-75 302 OFFCURVE",
"189 -23 OFFCURVE",
"570 -23 CURVE SMOOTH",
"735 -23 OFFCURVE",
"896 39 OFFCURVE",
"1028 143 CURVE",
"1172 -24 LINE"
);
},
{
closed = 1;
nodes = (
"288 117 OFFCURVE",
"77 380 OFFCURVE",
"122 703 CURVE SMOOTH",
"167 1019 OFFCURVE",
"448 1289 OFFCURVE",
"754 1289 CURVE SMOOTH",
"1055 1289 OFFCURVE",
"1266 1025 OFFCURVE",
"1221 703 CURVE SMOOTH",
"1203 573 OFFCURVE",
"1142 447 OFFCURVE",
"1050 347 CURVE",
"875 551 LINE",
"762 451 LINE",
"940 244 LINE",
"840 163 OFFCURVE",
"710 117 OFFCURVE",
"590 117 CURVE SMOOTH"
);
}
);
width = 1553.33333;
}
);
leftKerningGroup = O;
rightKerningGroup = O;
unicode = 0051;
},
{
glyphname = R;
lastChange = "2021-08-26 03:05:31 +0000";
layers = (
{
anchors = (
{
name = bottom;
position = "{633, 0}";
},
{
name = top;
position = "{524, 1400}";
}
);
hints = (
{
horizontal = 1;
origin = "{0, 13}";
target = up;
type = BottomGhost;
},
{
horizontal = 1;
origin = "{0, 1}";
target = "{1, 8}";
type = Stem;
},
{
horizontal = 1;
origin = "{0, 12}";
target = "{1, 0}";
type = Stem;
},
{
origin = "{0, 13}";
target = "{0, 0}";
type = Stem;
},
{
origin = "{1, 4}";
target = "{0, 8}";
type = Stem;
}
);
layerId = "10BC12B3-5274-42E3-B5BC-F74F362F0DF4";
paths = (
{
closed = 1;
nodes = (
"420 0 LINE",
"420 544 LINE",
"524 544 LINE",
"840 0 LINE",
"1186 0 LINE",
"854 572 LINE",
"1004 644 OFFCURVE",
"1100 792 OFFCURVE",
"1100 972 CURVE SMOOTH",
"1100 1206 OFFCURVE",
"920 1400 OFFCURVE",
"690 1400 CURVE SMOOTH",
"120 1400 LINE",
"120 0 LINE"
);
},
{
closed = 1;
nodes = (
"420 1144 LINE",
"654 1144 LINE SMOOTH",
"734 1144 OFFCURVE",
"800 1076 OFFCURVE",
"800 994 CURVE SMOOTH",
"800 912 OFFCURVE",
"734 844 OFFCURVE",
"654 844 CURVE SMOOTH",
"420 844 LINE"
);
}
);
width = 1266;
},
{
anchors = (
{
name = bottom;
position = "{505, 0}";
},
{
name = top;
position = "{394, 1400}";
}
);
hints = (
{
horizontal = 1;
origin = "{0, 13}";
target = up;
type = BottomGhost;
},
{
horizontal = 1;
origin = "{0, 1}";
target = "{1, 8}";
type = Stem;
},
{
horizontal = 1;
origin = "{0, 12}";
target = "{1, 0}";
type = Stem;
},
{
horizontal = 1;
origin = "{0, 5}";
target = "{1, 8}";
type = Stem;
},
{
origin = "{0, 13}";
target = "{0, 0}";
type = Stem;
},
{
origin = "{1, 4}";
target = "{0, 8}";
type = Stem;
}
);
layerId = "9AF1F7D9-E035-453E-B2A8-46DE370997D0";
paths = (
{
closed = 1;
nodes = (
"180 0 LINE",
"180 600 LINE",
"512 600 LINE",
"860 0 LINE",
"930 0 LINE",
"582 602 LINE",
"780 618 OFFCURVE",
"940 782 OFFCURVE",
"940 1000 CURVE SMOOTH",
"940 1228 OFFCURVE",
"768 1400 OFFCURVE",
"548 1400 CURVE SMOOTH",
"120 1400 LINE",
"120 0 LINE"
);
},
{
closed = 1;
nodes = (
"180 1340 LINE",
"548 1340 LINE SMOOTH",
"730 1340 OFFCURVE",
"880 1196 OFFCURVE",
"880 1000 CURVE SMOOTH",
"880 804 OFFCURVE",
"730 660 OFFCURVE",
"548 660 CURVE SMOOTH",
"180 660 LINE"
);
}
);
width = 1040;
},
{
anchors = (
{
name = bottom;
position = "{308, 0}";
},
{
name = top;
position = "{394, 1400}";
}
);
hints = (
{
horizontal = 1;
origin = "{0, 13}";
target = up;
type = BottomGhost;
},
{
horizontal = 1;
origin = "{0, 1}";
target = "{1, 8}";
type = Stem;
},
{
horizontal = 1;
origin = "{0, 12}";
target = "{1, 0}";
type = Stem;
},
{
horizontal = 1;
origin = "{0, 5}";
target = "{1, 8}";
type = Stem;
},
{
origin = "{0, 13}";
target = "{0, 0}";
type = Stem;
},
{
origin = "{1, 4}";
target = "{0, 8}";
type = Stem;
}
);
layerId = m003;
paths = (
{
closed = 1;
nodes = (
"-17 0 LINE",
"68 600 LINE",
"400 600 LINE",
"663 0 LINE",
"733 0 LINE",
"470 602 LINE",
"670 618 OFFCURVE",
"853 782 OFFCURVE",
"884 1000 CURVE SMOOTH",
"916 1228 OFFCURVE",
"768 1400 OFFCURVE",
"548 1400 CURVE SMOOTH",
"120 1400 LINE",
"-77 0 LINE"
);
},
{
closed = 1;
nodes = (
"172 1340 LINE",
"540 1340 LINE SMOOTH",
"722 1340 OFFCURVE",
"851 1196 OFFCURVE",
"824 1000 CURVE SMOOTH",
"796 804 OFFCURVE",
"626 660 OFFCURVE",
"444 660 CURVE SMOOTH",
"76 660 LINE"
);
}
);
width = 1040;
},
{
anchors = (
{
name = bottom;
position = "{436, 0}";
},
{
name = top;
position = "{524, 1400}";
}
);
hints = (
{
horizontal = 1;
origin = "{0, 13}";
target = up;
type = BottomGhost;
},
{
horizontal = 1;
origin = "{0, 1}";
target = "{1, 8}";
type = Stem;
},
{
horizontal = 1;
origin = "{0, 12}";
target = "{1, 0}";
type = Stem;
},
{
origin = "{0, 13}";
target = "{0, 0}";
type = Stem;
},
{
origin = "{1, 4}";
target = "{0, 8}";
type = Stem;
}
);
layerId = m004;
paths = (
{
closed = 1;
nodes = (
"223 0 LINE",
"300 544 LINE",
"404 544 LINE",
"643 0 LINE",
"989 0 LINE",
"738 572 LINE",
"898 644 OFFCURVE",
"1015 792 OFFCURVE",
"1040 972 CURVE SMOOTH",
"1073 1206 OFFCURVE",
"920 1400 OFFCURVE",
"690 1400 CURVE SMOOTH",
"120 1400 LINE",
"-77 0 LINE"
);
},
{
closed = 1;
nodes = (
"384 1144 LINE",
"618 1144 LINE SMOOTH",
"698 1144 OFFCURVE",
"754 1076 OFFCURVE",
"743 994 CURVE SMOOTH",
"731 912 OFFCURVE",
"656 844 OFFCURVE",
"576 844 CURVE SMOOTH",
"342 844 LINE"
);
}
);
width = 1266;
},
{
anchors = (
{
name = bottom;
position = "{548, 0}";
},
{
name = top;
position = "{437, 1400}";
}
);
hints = (
{
horizontal = 1;
origin = "{0, 13}";
target = up;
type = BottomGhost;
},
{
horizontal = 1;
origin = "{0, 1}";
target = "{1, 8}";
type = Stem;
},
{
horizontal = 1;
origin = "{0, 12}";
target = "{1, 0}";
type = Stem;
},
{
horizontal = 1;
origin = "{0, 5}";
target = "{1, 8}";
type = Stem;
},
{
origin = "{0, 13}";
target = "{0, 0}";
type = Stem;
},
{
origin = "{1, 4}";
target = "{0, 8}";
type = Stem;
}
);
layerId = "81BB4A08-F3DE-40E2-9BD9-52E47EDF5C1E";
paths = (
{
closed = 1;
nodes = (
"260 0 LINE",
"260 581 LINE",
"516 581 LINE",
"853 0 LINE",
"1015 0 LINE",
"673 592 LINE",
"855 627 OFFCURVE",
"993 785 OFFCURVE",
"993 991 CURVE SMOOTH",
"993 1221 OFFCURVE",
"819 1400 OFFCURVE",
"595 1400 CURVE SMOOTH",
"120 1400 LINE",
"120 0 LINE"
);
},
{
closed = 1;
nodes = (
"260 1275 LINE",
"583 1275 LINE SMOOTH",
"731 1275 OFFCURVE",
"853 1156 OFFCURVE",
"853 998 CURVE SMOOTH",
"853 840 OFFCURVE",
"731 721 OFFCURVE",
"583 721 CURVE SMOOTH",
"260 721 LINE"
);
}
);
width = 1115.33333;
},
{
anchors = (
{
name = bottom;
position = "{351, 0}";
},
{
name = top;
position = "{437, 1400}";
}
);
hints = (
{
horizontal = 1;
origin = "{0, 13}";
target = up;
type = BottomGhost;
},
{
horizontal = 1;
origin = "{0, 1}";
target = "{1, 8}";
type = Stem;
},
{
horizontal = 1;
origin = "{0, 12}";
target = "{1, 0}";
type = Stem;
},
{
horizontal = 1;
origin = "{0, 5}";
target = "{1, 8}";
type = Stem;
},
{
origin = "{0, 13}";
target = "{0, 0}";
type = Stem;
},
{
origin = "{1, 4}";
target = "{0, 8}";
type = Stem;
}
);
layerId = "6C2B4A57-296A-49E8-ACE5-0BEFCC4AFC9C";
paths = (
{
closed = 1;
nodes = (
"63 0 LINE",
"145 581 LINE",
"401 581 LINE",
"656 0 LINE",
"818 0 LINE",
"559 592 LINE",
"746 627 OFFCURVE",
"907 785 OFFCURVE",
"936 991 CURVE SMOOTH",
"968 1221 OFFCURVE",
"819 1400 OFFCURVE",
"595 1400 CURVE SMOOTH",
"120 1400 LINE",
"-77 0 LINE"
);
},
{
closed = 1;
nodes = (
"243 1275 LINE",
"566 1275 LINE SMOOTH",
"714 1275 OFFCURVE",
"819 1156 OFFCURVE",
"797 998 CURVE SMOOTH",
"774 840 OFFCURVE",
"636 721 OFFCURVE",
"488 721 CURVE SMOOTH",
"165 721 LINE"
);
}
);
width = 1115.33333;
}
);
leftKerningGroup = H;
leftMetricsKey = H;
rightKerningGroup = R;
unicode = 0052;
},
{
glyphname = S;
lastChange = "2021-08-26 03:05:31 +0000";
layers = (
{
anchors = (
{
name = bottom;
position = "{715, 0}";
},
{
name = top;
position = "{632, 1400}";
}
);
hints = (
{
horizontal = 1;
origin = "{0, 37}";
target = "{0, 30}";
type = Stem;
},
{
horizontal = 1;
origin = "{0, 18}";
target = "{0, 11}";
type = Stem;
},
{
origin = "{0, 34}";
target = "{0, 8}";
type = Stem;
},
{
origin = "{0, 27}";
target = "{0, 2}";
type = Stem;
}
);
layerId = "10BC12B3-5274-42E3-B5BC-F74F362F0DF4";
paths = (
{
closed = 1;
nodes = (
"918 -26 OFFCURVE",
"1164 150 OFFCURVE",
"1164 412 CURVE SMOOTH",
"1164 670 OFFCURVE",
"920 808 OFFCURVE",
"632 850 CURVE SMOOTH",
"506 868 OFFCURVE",
"400 880 OFFCURVE",
"400 988 CURVE SMOOTH",
"400 1066 OFFCURVE",
"516 1126 OFFCURVE",
"632 1124 CURVE SMOOTH",
"762 1124 OFFCURVE",
"862 1066 OFFCURVE",
"882 1008 CURVE",
"1164 1110 LINE",
"1094 1308 OFFCURVE",
"868 1426 OFFCURVE",
"632 1426 CURVE SMOOTH",
"350 1426 OFFCURVE",
"100 1250 OFFCURVE",
"100 988 CURVE SMOOTH",
"100 714 OFFCURVE",
"328 594 OFFCURVE",
"632 550 CURVE SMOOTH",
"744 534 OFFCURVE",
"864 496 OFFCURVE",
"864 412 CURVE SMOOTH",
"864 330 OFFCURVE",
"752 274 OFFCURVE",
"632 274 CURVE SMOOTH",
"502 274 OFFCURVE",
"402 334 OFFCURVE",
"382 392 CURVE",
"100 288 LINE",
"172 92 OFFCURVE",
"396 -26 OFFCURVE",
"632 -26 CURVE SMOOTH"
);
}
);
width = 1264;
},
{
anchors = (
{
name = bottom;
position = "{663, 0}";
},
{
name = top;
position = "{599, 1400}";
}
);
hints = (
{
horizontal = 1;
origin = "{0, 37}";
target = "{0, 30}";
type = Stem;
},
{
horizontal = 1;
origin = "{0, 18}";
target = "{0, 11}";
type = Stem;
},
{
origin = "{0, 21}";
target = "{0, 8}";
type = Stem;
},
{
origin = "{0, 27}";
target = "{0, 2}";
type = Stem;
}
);
layerId = "9AF1F7D9-E035-453E-B2A8-46DE370997D0";
paths = (
{
closed = 1;
nodes = (
"858 -26 OFFCURVE",
"1088 120 OFFCURVE",
"1088 350 CURVE SMOOTH",
"1088 576 OFFCURVE",
"856 682 OFFCURVE",
"598 730 CURVE SMOOTH",
"352 776 OFFCURVE",
"170 826 OFFCURVE",
"170 1042 CURVE SMOOTH",
"170 1232 OFFCURVE",
"370 1358 OFFCURVE",
"598 1358 CURVE SMOOTH",
"780 1358 OFFCURVE",
"984 1276 OFFCURVE",
"1040 1118 CURVE",
"1098 1138 LINE",
"1028 1320 OFFCURVE",
"806 1418 OFFCURVE",
"598 1418 CURVE SMOOTH",
"340 1418 OFFCURVE",
"110 1272 OFFCURVE",
"110 1042 CURVE SMOOTH",
"110 790 OFFCURVE",
"320 718 OFFCURVE",
"598 666 CURVE SMOOTH",
"814 626 OFFCURVE",
"1028 546 OFFCURVE",
"1028 350 CURVE SMOOTH",
"1028 158 OFFCURVE",
"824 34 OFFCURVE",
"598 34 CURVE SMOOTH",
"416 34 OFFCURVE",
"212 116 OFFCURVE",
"156 274 CURVE",
"100 252 LINE",
"160 78 OFFCURVE",
"380 -26 OFFCURVE",
"598 -26 CURVE SMOOTH"
);
}
);
width = 1198;
},
{
anchors = (
{
name = bottom;
position = "{466, 0}";
},
{
name = top;
position = "{599, 1400}";
}
);
hints = (
{
horizontal = 1;
origin = "{0, 37}";
target = "{0, 30}";
type = Stem;
},
{
horizontal = 1;
origin = "{0, 18}";
target = "{0, 11}";
type = Stem;
},
{
origin = "{0, 21}";
target = "{0, 8}";
type = Stem;
},
{
origin = "{0, 27}";
target = "{0, 2}";
type = Stem;
}
);
layerId = m003;
paths = (
{
closed = 1;
nodes = (
"658 -26 OFFCURVE",
"908 120 OFFCURVE",
"940 350 CURVE SMOOTH",
"972 576 OFFCURVE",
"755 682 OFFCURVE",
"504 730 CURVE SMOOTH",
"264 776 OFFCURVE",
"89 826 OFFCURVE",
"120 1042 CURVE SMOOTH",
"146 1232 OFFCURVE",
"364 1358 OFFCURVE",
"592 1358 CURVE SMOOTH",
"774 1358 OFFCURVE",
"967 1276 OFFCURVE",
"1000 1118 CURVE",
"1061 1138 LINE",
"1017 1320 OFFCURVE",
"809 1418 OFFCURVE",
"601 1418 CURVE SMOOTH",
"343 1418 OFFCURVE",
"92 1272 OFFCURVE",
"60 1042 CURVE SMOOTH",
"24 790 OFFCURVE",
"224 718 OFFCURVE",
"495 666 CURVE SMOOTH",
"705 626 OFFCURVE",
"908 546 OFFCURVE",
"880 350 CURVE SMOOTH",
"853 158 OFFCURVE",
"632 34 OFFCURVE",
"406 34 CURVE SMOOTH",
"224 34 OFFCURVE",
"32 116 OFFCURVE",
"-2 274 CURVE",
"-61 252 LINE",
"-26 78 OFFCURVE",
"180 -26 OFFCURVE",
"398 -26 CURVE SMOOTH"
);
}
);
width = 1198;
},
{
anchors = (
{
name = bottom;
position = "{518, 0}";
},
{
name = top;
position = "{632, 1400}";
}
);
hints = (
{
horizontal = 1;
origin = "{0, 37}";
target = "{0, 30}";
type = Stem;
},
{
horizontal = 1;
origin = "{0, 18}";
target = "{0, 11}";
type = Stem;
},
{
origin = "{0, 34}";
target = "{0, 8}";
type = Stem;
},
{
origin = "{0, 27}";
target = "{0, 2}";
type = Stem;
}
);
layerId = m004;
paths = (
{
closed = 1;
nodes = (
"718 -26 OFFCURVE",
"988 150 OFFCURVE",
"1025 412 CURVE SMOOTH",
"1061 670 OFFCURVE",
"837 808 OFFCURVE",
"555 850 CURVE SMOOTH",
"431 868 OFFCURVE",
"327 880 OFFCURVE",
"342 988 CURVE SMOOTH",
"353 1066 OFFCURVE",
"477 1126 OFFCURVE",
"593 1124 CURVE SMOOTH",
"723 1124 OFFCURVE",
"815 1066 OFFCURVE",
"827 1008 CURVE",
"1123 1110 LINE",
"1081 1308 OFFCURVE",
"872 1426 OFFCURVE",
"636 1426 CURVE SMOOTH",
"354 1426 OFFCURVE",
"79 1250 OFFCURVE",
"42 988 CURVE SMOOTH",
"4 714 OFFCURVE",
"215 594 OFFCURVE",
"513 550 CURVE SMOOTH",
"622 534 OFFCURVE",
"737 496 OFFCURVE",
"725 412 CURVE SMOOTH",
"714 330 OFFCURVE",
"594 274 OFFCURVE",
"474 274 CURVE SMOOTH",
"344 274 OFFCURVE",
"252 334 OFFCURVE",
"240 392 CURVE",
"-56 288 LINE",
"-12 92 OFFCURVE",
"196 -26 OFFCURVE",
"432 -26 CURVE SMOOTH"
);
}
);
width = 1264;
},
{
anchors = (
{
name = bottom;
position = "{680, 0}";
},
{
name = top;
position = "{610, 1400}";
}
);
hints = (
{
horizontal = 1;
origin = "{0, 37}";
target = "{0, 30}";
type = Stem;
},
{
horizontal = 1;
origin = "{0, 18}";
target = "{0, 11}";
type = Stem;
},
{
origin = "{0, 21}";
target = "{0, 8}";
type = Stem;
},
{
origin = "{0, 27}";
target = "{0, 2}";
type = Stem;
}
);
layerId = "81BB4A08-F3DE-40E2-9BD9-52E47EDF5C1E";
paths = (
{
closed = 1;
nodes = (
"878 -26 OFFCURVE",
"1113 130 OFFCURVE",
"1113 371 CURVE SMOOTH",
"1113 607 OFFCURVE",
"877 724 OFFCURVE",
"609 770 CURVE SMOOTH",
"403 807 OFFCURVE",
"247 844 OFFCURVE",
"247 1024 CURVE SMOOTH",
"247 1177 OFFCURVE",
"419 1281 OFFCURVE",
"609 1280 CURVE SMOOTH",
"774 1280 OFFCURVE",
"943 1206 OFFCURVE",
"987 1081 CURVE",
"1120 1129 LINE",
"1050 1316 OFFCURVE",
"827 1421 OFFCURVE",
"609 1421 CURVE SMOOTH",
"343 1421 OFFCURVE",
"107 1265 OFFCURVE",
"107 1024 CURVE SMOOTH",
"107 765 OFFCURVE",
"323 677 OFFCURVE",
"609 627 CURVE SMOOTH",
"791 595 OFFCURVE",
"973 529 OFFCURVE",
"973 371 CURVE SMOOTH",
"973 215 OFFCURVE",
"800 114 OFFCURVE",
"609 114 CURVE SMOOTH",
"445 114 OFFCURVE",
"275 189 OFFCURVE",
"231 313 CURVE",
"100 264 LINE",
"164 83 OFFCURVE",
"385 -26 OFFCURVE",
"609 -26 CURVE SMOOTH"
);
}
);
width = 1220;
},
{
anchors = (
{
name = bottom;
position = "{483, 0}";
},
{
name = top;
position = "{610, 1400}";
}
);
hints = (
{
horizontal = 1;
origin = "{0, 37}";
target = "{0, 30}";
type = Stem;
},
{
horizontal = 1;
origin = "{0, 18}";
target = "{0, 11}";
type = Stem;
},
{
origin = "{0, 21}";
target = "{0, 8}";
type = Stem;
},
{
origin = "{0, 27}";
target = "{0, 2}";
type = Stem;
}
);
layerId = "6C2B4A57-296A-49E8-ACE5-0BEFCC4AFC9C";
paths = (
{
closed = 1;
nodes = (
"678 -26 OFFCURVE",
"935 130 OFFCURVE",
"968 371 CURVE SMOOTH",
"1002 607 OFFCURVE",
"782 724 OFFCURVE",
"521 770 CURVE SMOOTH",
"320 807 OFFCURVE",
"168 844 OFFCURVE",
"194 1024 CURVE SMOOTH",
"215 1177 OFFCURVE",
"402 1281 OFFCURVE",
"592 1280 CURVE SMOOTH",
"757 1280 OFFCURVE",
"916 1206 OFFCURVE",
"942 1081 CURVE",
"1082 1129 LINE",
"1038 1316 OFFCURVE",
"830 1421 OFFCURVE",
"613 1421 CURVE SMOOTH",
"347 1421 OFFCURVE",
"88 1265 OFFCURVE",
"54 1024 CURVE SMOOTH",
"17 765 OFFCURVE",
"221 677 OFFCURVE",
"501 627 CURVE SMOOTH",
"677 595 OFFCURVE",
"851 529 OFFCURVE",
"828 371 CURVE SMOOTH",
"807 215 OFFCURVE",
"619 114 OFFCURVE",
"429 114 CURVE SMOOTH",
"264 114 OFFCURVE",
"105 189 OFFCURVE",
"79 313 CURVE",
"-59 264 LINE",
"-21 83 OFFCURVE",
"185 -26 OFFCURVE",
"409 -26 CURVE SMOOTH"
);
}
);
width = 1220;
}
);
leftKerningGroup = S;
rightKerningGroup = S;
unicode = 0053;
},
{
glyphname = Germandbls;
lastChange = "2021-08-26 03:05:31 +0000";
layers = (
{
anchors = (
{
name = bottom;
position = "{623, 0}";
},
{
name = top;
position = "{623, 1400}";
}
);
hints = (
{
horizontal = 1;
origin = "{0, 37}";
target = "{0, 19}";
type = Stem;
},
{
horizontal = 1;
place = "{594, 144}";
type = Stem;
},
{
horizontal = 1;
origin = "{0, 33}";
target = "{0, 4}";
type = Stem;
},
{
origin = "{0, 37}";
target = "{0, 0}";
type = Stem;
},
{
origin = "{0, 7}";
target = "{0, 30}";
type = Stem;
},
{
origin = "{0, 15}";
target = "{0, 24}";
type = Stem;
}
);
layerId = "10BC12B3-5274-42E3-B5BC-F74F362F0DF4";
paths = (
{
closed = 1;
nodes = (
"420 0 LINE",
"420 950 LINE SMOOTH",
"420 1058 OFFCURVE",
"508 1144 OFFCURVE",
"594 1144 CURVE SMOOTH",
"680 1144 OFFCURVE",
"758 1148 OFFCURVE",
"758 1074 CURVE SMOOTH",
"758 1040 OFFCURVE",
"590 858 OFFCURVE",
"590 704 CURVE SMOOTH",
"590 594 LINE",
"672 594 LINE SMOOTH",
"776 594 OFFCURVE",
"920 556 OFFCURVE",
"920 424 CURVE SMOOTH",
"920 292 OFFCURVE",
"776 254 OFFCURVE",
"672 254 CURVE SMOOTH",
"590 254 LINE",
"650 0 LINE",
"704 0 LINE SMOOTH",
"936 0 OFFCURVE",
"1186 150 OFFCURVE",
"1186 422 CURVE SMOOTH",
"1186 586 OFFCURVE",
"1010 770 OFFCURVE",
"832 734 CURVE",
"974 906 OFFCURVE",
"1058 972 OFFCURVE",
"1058 1068 CURVE SMOOTH",
"1058 1248 OFFCURVE",
"858 1400 OFFCURVE",
"650 1400 CURVE SMOOTH",
"358 1400 OFFCURVE",
"120 1162 OFFCURVE",
"120 870 CURVE SMOOTH",
"120 0 LINE"
);
}
);
width = 1246;
},
{
anchors = (
{
name = bottom;
position = "{535, 0}";
},
{
name = top;
position = "{535, 1400}";
}
);
hints = (
{
horizontal = 1;
origin = "{0, 37}";
target = "{0, 19}";
type = Stem;
},
{
horizontal = 1;
origin = "{0, 11}";
target = "{0, 27}";
type = Stem;
},
{
horizontal = 1;
origin = "{0, 4}";
target = "{0, 33}";
type = Stem;
},
{
origin = "{0, 37}";
target = "{0, 0}";
type = Stem;
},
{
origin = "{0, 7}";
target = "{0, 30}";
type = Stem;
},
{
origin = "{0, 15}";
target = "{0, 24}";
type = Stem;
}
);
layerId = "9AF1F7D9-E035-453E-B2A8-46DE370997D0";
paths = (
{
closed = 1;
nodes = (
"180 0 LINE",
"180 994 LINE SMOOTH",
"180 1184 OFFCURVE",
"332 1338 OFFCURVE",
"522 1338 CURVE SMOOTH",
"672 1338 OFFCURVE",
"804 1282 OFFCURVE",
"806 1152 CURVE SMOOTH",
"808 1032 OFFCURVE",
"510 754 OFFCURVE",
"518 694 CURVE SMOOTH",
"522 662 LINE",
"588 662 LINE SMOOTH",
"754 662 OFFCURVE",
"950 568 OFFCURVE",
"950 364 CURVE SMOOTH",
"950 156 OFFCURVE",
"756 60 OFFCURVE",
"590 60 CURVE SMOOTH",
"496 60 LINE",
"516 0 LINE",
"590 0 LINE SMOOTH",
"788 0 OFFCURVE",
"1010 122 OFFCURVE",
"1010 362 CURVE SMOOTH",
"1010 588 OFFCURVE",
"802 740 OFFCURVE",
"602 720 CURVE",
"800 992 OFFCURVE",
"876 1070 OFFCURVE",
"876 1152 CURVE SMOOTH",
"876 1320 OFFCURVE",
"716 1398 OFFCURVE",
"526 1398 CURVE SMOOTH",
"302 1398 OFFCURVE",
"120 1216 OFFCURVE",
"120 992 CURVE SMOOTH",
"120 0 LINE"
);
}
);
width = 1070;
},
{
anchors = (
{
name = bottom;
position = "{338, 0}";
},
{
name = top;
position = "{535, 1400}";
}
);
hints = (
{
horizontal = 1;
origin = "{0, 37}";
target = "{0, 19}";
type = Stem;
},
{
horizontal = 1;
origin = "{0, 11}";
target = "{0, 27}";
type = Stem;
},
{
horizontal = 1;
origin = "{0, 4}";
target = "{0, 33}";
type = Stem;
},
{
origin = "{0, 37}";
target = "{0, 0}";
type = Stem;
},
{
origin = "{0, 7}";
target = "{0, 30}";
type = Stem;
},
{
origin = "{0, 15}";
target = "{0, 24}";
type = Stem;
}
);
layerId = m003;
paths = (
{
closed = 1;
nodes = (
"-17 0 LINE",
"123 994 LINE SMOOTH",
"150 1184 OFFCURVE",
"323 1338 OFFCURVE",
"513 1338 CURVE SMOOTH",
"663 1338 OFFCURVE",
"787 1282 OFFCURVE",
"771 1152 CURVE SMOOTH",
"756 1032 OFFCURVE",
"419 754 OFFCURVE",
"419 694 CURVE SMOOTH",
"418 662 LINE",
"484 662 LINE SMOOTH",
"650 662 OFFCURVE",
"833 568 OFFCURVE",
"804 364 CURVE SMOOTH",
"775 156 OFFCURVE",
"568 60 OFFCURVE",
"402 60 CURVE SMOOTH",
"308 60 LINE",
"319 0 LINE",
"393 0 LINE SMOOTH",
"591 0 OFFCURVE",
"830 122 OFFCURVE",
"864 362 CURVE SMOOTH",
"896 588 OFFCURVE",
"709 740 OFFCURVE",
"506 720 CURVE",
"743 992 OFFCURVE",
"830 1070 OFFCURVE",
"841 1152 CURVE SMOOTH",
"865 1320 OFFCURVE",
"716 1398 OFFCURVE",
"526 1398 CURVE SMOOTH",
"302 1398 OFFCURVE",
"94 1216 OFFCURVE",
"63 992 CURVE SMOOTH",
"-77 0 LINE"
);
}
);
width = 1070;
},
{
anchors = (
{
name = bottom;
position = "{426, 0}";
},
{
name = top;
position = "{623, 1400}";
}
);
hints = (
{
horizontal = 1;
origin = "{0, 37}";
target = "{0, 19}";
type = Stem;
},
{
horizontal = 1;
place = "{397, -53}";
type = Stem;
},
{
horizontal = 1;
origin = "{0, 33}";
target = "{0, 4}";
type = Stem;
},
{
origin = "{0, 37}";
target = "{0, 0}";
type = Stem;
},
{
origin = "{0, 7}";
target = "{0, 30}";
type = Stem;
},
{
origin = "{0, 15}";
target = "{0, 24}";
type = Stem;
}
);
layerId = m004;
paths = (
{
closed = 1;
nodes = (
"223 0 LINE",
"357 950 LINE SMOOTH",
"372 1058 OFFCURVE",
"472 1144 OFFCURVE",
"558 1144 CURVE SMOOTH",
"644 1144 OFFCURVE",
"723 1148 OFFCURVE",
"712 1074 CURVE SMOOTH",
"707 1040 OFFCURVE",
"514 858 OFFCURVE",
"492 704 CURVE SMOOTH",
"477 594 LINE",
"559 594 LINE SMOOTH",
"663 594 OFFCURVE",
"801 556 OFFCURVE",
"783 424 CURVE SMOOTH",
"764 292 OFFCURVE",
"615 254 OFFCURVE",
"511 254 CURVE SMOOTH",
"429 254 LINE",
"453 0 LINE",
"507 0 LINE SMOOTH",
"739 0 OFFCURVE",
"1010 150 OFFCURVE",
"1049 422 CURVE SMOOTH",
"1072 586 OFFCURVE",
"921 770 OFFCURVE",
"738 734 CURVE",
"905 906 OFFCURVE",
"998 972 OFFCURVE",
"1011 1068 CURVE SMOOTH",
"1037 1248 OFFCURVE",
"858 1400 OFFCURVE",
"650 1400 CURVE SMOOTH",
"358 1400 OFFCURVE",
"87 1162 OFFCURVE",
"46 870 CURVE SMOOTH",
"-77 0 LINE"
);
}
);
width = 1246;
},
{
anchors = (
{
name = bottom;
position = "{564, 0}";
},
{
name = top;
position = "{564, 1400}";
}
);
hints = (
{
horizontal = 1;
origin = "{0, 37}";
target = "{0, 19}";
type = Stem;
},
{
horizontal = 1;
origin = "{0, 11}";
target = "{0, 27}";
type = Stem;
},
{
horizontal = 1;
origin = "{0, 4}";
target = "{0, 33}";
type = Stem;
},
{
origin = "{0, 37}";
target = "{0, 0}";
type = Stem;
},
{
origin = "{0, 7}";
target = "{0, 30}";
type = Stem;
},
{
origin = "{0, 15}";
target = "{0, 24}";
type = Stem;
}
);
layerId = "81BB4A08-F3DE-40E2-9BD9-52E47EDF5C1E";
paths = (
{
closed = 1;
nodes = (
"260 0 LINE",
"260 979 LINE SMOOTH",
"260 1142 OFFCURVE",
"391 1273 OFFCURVE",
"546 1273 CURVE SMOOTH",
"675 1273 OFFCURVE",
"789 1237 OFFCURVE",
"790 1126 CURVE SMOOTH",
"791 1035 OFFCURVE",
"537 789 OFFCURVE",
"542 697 CURVE SMOOTH",
"545 639 LINE",
"616 639 LINE SMOOTH",
"761 639 OFFCURVE",
"940 564 OFFCURVE",
"940 384 CURVE SMOOTH",
"940 201 OFFCURVE",
"763 125 OFFCURVE",
"617 125 CURVE SMOOTH",
"527 125 LINE",
"561 0 LINE",
"628 0 LINE SMOOTH",
"837 0 OFFCURVE",
"1069 131 OFFCURVE",
"1069 382 CURVE SMOOTH",
"1069 587 OFFCURVE",
"871 750 OFFCURVE",
"679 725 CURVE",
"858 963 OFFCURVE",
"937 1037 OFFCURVE",
"937 1124 CURVE SMOOTH",
"937 1296 OFFCURVE",
"763 1399 OFFCURVE",
"567 1399 CURVE SMOOTH",
"321 1399 OFFCURVE",
"120 1198 OFFCURVE",
"120 951 CURVE SMOOTH",
"120 0 LINE"
);
}
);
width = 1128.66667;
},
{
anchors = (
{
name = bottom;
position = "{367, 0}";
},
{
name = top;
position = "{564, 1400}";
}
);
hints = (
{
horizontal = 1;
origin = "{0, 37}";
target = "{0, 19}";
type = Stem;
},
{
horizontal = 1;
origin = "{0, 11}";
target = "{0, 27}";
type = Stem;
},
{
horizontal = 1;
origin = "{0, 4}";
target = "{0, 33}";
type = Stem;
},
{
origin = "{0, 37}";
target = "{0, 0}";
type = Stem;
},
{
origin = "{0, 7}";
target = "{0, 30}";
type = Stem;
},
{
origin = "{0, 15}";
target = "{0, 24}";
type = Stem;
}
);
layerId = "6C2B4A57-296A-49E8-ACE5-0BEFCC4AFC9C";
paths = (
{
closed = 1;
nodes = (
"63 0 LINE",
"201 979 LINE SMOOTH",
"224 1142 OFFCURVE",
"373 1273 OFFCURVE",
"528 1273 CURVE SMOOTH",
"657 1273 OFFCURVE",
"766 1237 OFFCURVE",
"751 1126 CURVE SMOOTH",
"740 1035 OFFCURVE",
"451 789 OFFCURVE",
"443 697 CURVE SMOOTH",
"438 639 LINE",
"509 639 LINE SMOOTH",
"654 639 OFFCURVE",
"822 564 OFFCURVE",
"797 384 CURVE SMOOTH",
"771 201 OFFCURVE",
"584 125 OFFCURVE",
"438 125 CURVE SMOOTH",
"348 125 LINE",
"364 0 LINE",
"431 0 LINE SMOOTH",
"640 0 OFFCURVE",
"890 131 OFFCURVE",
"926 382 CURVE SMOOTH",
"955 587 OFFCURVE",
"780 750 OFFCURVE",
"583 725 CURVE",
"797 963 OFFCURVE",
"886 1037 OFFCURVE",
"898 1124 CURVE SMOOTH",
"922 1296 OFFCURVE",
"763 1399 OFFCURVE",
"567 1399 CURVE SMOOTH",
"321 1399 OFFCURVE",
"92 1198 OFFCURVE",
"57 951 CURVE SMOOTH",
"-77 0 LINE"
);
}
);
width = 1128.66667;
}
);
leftKerningGroup = Germandbls;
rightKerningGroup = Germandbls;
unicode = 1E9E;
},
{
glyphname = T;
lastChange = "2021-08-26 03:05:31 +0000";
layers = (
{
anchors = (
{
name = bottom;
position = "{630, 0}";
},
{
name = center;
position = "{630, 700}";
},
{
name = top;
position = "{630, 1400}";
}
);
hints = (
{
horizontal = 1;
origin = "{0, 3}";
target = up;
type = BottomGhost;
},
{
horizontal = 1;
origin = "{0, 0}";
target = "{0, 1}";
type = Stem;
},
{
origin = "{0, 3}";
target = "{0, 4}";
type = Stem;
}
);
layerId = "10BC12B3-5274-42E3-B5BC-F74F362F0DF4";
paths = (
{
closed = 1;
nodes = (
"80 1400 LINE",
"80 1100 LINE",
"480 1100 LINE",
"480 0 LINE",
"780 0 LINE",
"780 1100 LINE",
"1180 1100 LINE",
"1180 1400 LINE"
);
}
);
width = 1260;
},
{
anchors = (
{
name = bottom;
position = "{628, 0}";
},
{
name = center;
position = "{629, 700}";
},
{
name = top;
position = "{629, 1400}";
}
);
hints = (
{
horizontal = 1;
origin = "{0, 3}";
target = up;
type = BottomGhost;
},
{
horizontal = 1;
origin = "{0, 0}";
target = "{0, 1}";
type = Stem;
},
{
origin = "{0, 3}";
target = "{0, 4}";
type = Stem;
}
);
layerId = "9AF1F7D9-E035-453E-B2A8-46DE370997D0";
paths = (
{
closed = 1;
nodes = (
"80 1400 LINE",
"80 1340 LINE",
"598 1340 LINE",
"598 0 LINE",
"658 0 LINE",
"658 1340 LINE",
"1178 1340 LINE",
"1178 1400 LINE"
);
}
);
width = 1258;
},
{
anchors = (
{
name = bottom;
position = "{431, 0}";
},
{
name = center;
position = "{531, 700}";
},
{
name = top;
position = "{629, 1400}";
}
);
hints = (
{
horizontal = 1;
origin = "{0, 3}";
target = up;
type = BottomGhost;
},
{
horizontal = 1;
origin = "{0, 0}";
target = "{0, 1}";
type = Stem;
},
{
origin = "{0, 3}";
target = "{0, 4}";
type = Stem;
}
);
layerId = m003;
paths = (
{
closed = 1;
nodes = (
"80 1400 LINE",
"72 1340 LINE",
"590 1340 LINE",
"401 0 LINE",
"461 0 LINE",
"650 1340 LINE",
"1170 1340 LINE",
"1178 1400 LINE"
);
}
);
width = 1258;
},
{
anchors = (
{
name = bottom;
position = "{433, 0}";
},
{
name = center;
position = "{532, 700}";
},
{
name = top;
position = "{630, 1400}";
}
);
hints = (
{
horizontal = 1;
origin = "{0, 3}";
target = up;
type = BottomGhost;
},
{
horizontal = 1;
origin = "{0, 0}";
target = "{0, 1}";
type = Stem;
},
{
origin = "{0, 3}";
target = "{0, 4}";
type = Stem;
}
);
layerId = m004;
paths = (
{
closed = 1;
nodes = (
"80 1400 LINE",
"38 1100 LINE",
"438 1100 LINE",
"283 0 LINE",
"583 0 LINE",
"738 1100 LINE",
"1138 1100 LINE",
"1180 1400 LINE"
);
}
);
width = 1260;
},
{
anchors = (
{
name = bottom;
position = "{629, 0}";
},
{
name = center;
position = "{629, 700}";
},
{
name = top;
position = "{629, 1400}";
}
);
hints = (
{
horizontal = 1;
origin = "{0, 3}";
target = up;
type = BottomGhost;
},
{
horizontal = 1;
origin = "{0, 0}";
target = "{0, 1}";
type = Stem;
},
{
origin = "{0, 3}";
target = "{0, 4}";
type = Stem;
}
);
layerId = "81BB4A08-F3DE-40E2-9BD9-52E47EDF5C1E";
paths = (
{
closed = 1;
nodes = (
"80 1400 LINE",
"80 1260 LINE",
"559 1260 LINE",
"559 0 LINE",
"699 0 LINE",
"699 1260 LINE",
"1179 1260 LINE",
"1179 1400 LINE"
);
}
);
width = 1258.66667;
},
{
anchors = (
{
name = bottom;
position = "{432, 0}";
},
{
name = center;
position = "{531, 700}";
},
{
name = top;
position = "{629, 1400}";
}
);
hints = (
{
horizontal = 1;
origin = "{0, 3}";
target = up;
type = BottomGhost;
},
{
horizontal = 1;
origin = "{0, 0}";
target = "{0, 1}";
type = Stem;
},
{
origin = "{0, 3}";
target = "{0, 4}";
type = Stem;
}
);
layerId = "6C2B4A57-296A-49E8-ACE5-0BEFCC4AFC9C";
paths = (
{
closed = 1;
nodes = (
"80 1400 LINE",
"61 1260 LINE",
"539 1260 LINE",
"362 0 LINE",
"502 0 LINE",
"679 1260 LINE",
"1159 1260 LINE",
"1179 1400 LINE"
);
}
);
width = 1258.66667;
}
);
leftKerningGroup = T;
rightKerningGroup = T;
unicode = 0054;
},
{
glyphname = U;
lastChange = "2021-08-26 03:05:31 +0000";
layers = (
{
anchors = (
{
name = bottom;
position = "{689, 0}";
},
{
name = ogonek;
position = "{862, 0}";
},
{
name = top;
position = "{689, 1400}";
},
{
name = topright;
position = "{1358, 1400}";
}
);
hints = (
{
horizontal = 1;
origin = "{0, 17}";
target = "{0, 8}";
type = Stem;
},
{
horizontal = 1;
origin = "{0, 13}";
target = down;
type = TopGhost;
},
{
origin = "{0, 14}";
target = "{0, 11}";
type = Stem;
},
{
origin = "{0, 5}";
target = "{0, 2}";
type = Stem;
}
);
layerId = "10BC12B3-5274-42E3-B5BC-F74F362F0DF4";
paths = (
{
closed = 1;
nodes = (
"1026 -26 OFFCURVE",
"1258 246 OFFCURVE",
"1258 584 CURVE SMOOTH",
"1258 1400 LINE",
"958 1400 LINE",
"958 584 LINE SMOOTH",
"958 412 OFFCURVE",
"862 274 OFFCURVE",
"690 274 CURVE SMOOTH",
"520 274 OFFCURVE",
"420 414 OFFCURVE",
"420 584 CURVE SMOOTH",
"420 1400 LINE",
"120 1400 LINE",
"120 584 LINE SMOOTH",
"120 246 OFFCURVE",
"354 -26 OFFCURVE",
"690 -26 CURVE SMOOTH"
);
}
);
width = 1378;
},
{
anchors = (
{
name = bottom;
position = "{650, 0}";
},
{
name = ogonek;
position = "{739, -16}";
},
{
name = top;
position = "{650, 1400}";
},
{
name = topright;
position = "{1280, 1400}";
}
);
hints = (
{
horizontal = 1;
origin = "{0, 17}";
target = "{0, 8}";
type = Stem;
},
{
horizontal = 1;
origin = "{0, 13}";
target = down;
type = TopGhost;
},
{
origin = "{0, 14}";
target = "{0, 11}";
type = Stem;
},
{
origin = "{0, 5}";
target = "{0, 2}";
type = Stem;
}
);
layerId = "9AF1F7D9-E035-453E-B2A8-46DE370997D0";
paths = (
{
closed = 1;
nodes = (
"986 -26 OFFCURVE",
"1180 246 OFFCURVE",
"1180 584 CURVE SMOOTH",
"1180 1400 LINE",
"1120 1400 LINE",
"1120 584 LINE SMOOTH",
"1120 288 OFFCURVE",
"958 34 OFFCURVE",
"650 34 CURVE SMOOTH",
"346 34 OFFCURVE",
"180 284 OFFCURVE",
"180 584 CURVE SMOOTH",
"180 1400 LINE",
"120 1400 LINE",
"120 584 LINE SMOOTH",
"120 246 OFFCURVE",
"314 -26 OFFCURVE",
"650 -26 CURVE SMOOTH"
);
}
);
width = 1300;
},
{
anchors = (
{
name = bottom;
position = "{453, 0}";
},
{
name = ogonek;
position = "{540, -16}";
},
{
name = top;
position = "{650, 1400}";
},
{
name = topright;
position = "{1280, 1400}";
}
);
hints = (
{
horizontal = 1;
origin = "{0, 17}";
target = "{0, 8}";
type = Stem;
},
{
horizontal = 1;
origin = "{0, 13}";
target = down;
type = TopGhost;
},
{
origin = "{0, 14}";
target = "{0, 11}";
type = Stem;
},
{
origin = "{0, 5}";
target = "{0, 2}";
type = Stem;
}
);
layerId = m003;
paths = (
{
closed = 1;
nodes = (
"786 -26 OFFCURVE",
"1018 246 OFFCURVE",
"1065 584 CURVE SMOOTH",
"1180 1400 LINE",
"1120 1400 LINE",
"1005 584 LINE SMOOTH",
"964 288 OFFCURVE",
"766 34 OFFCURVE",
"458 34 CURVE SMOOTH",
"154 34 OFFCURVE",
"23 284 OFFCURVE",
"65 584 CURVE SMOOTH",
"180 1400 LINE",
"120 1400 LINE",
"5 584 LINE SMOOTH",
"-42 246 OFFCURVE",
"114 -26 OFFCURVE",
"450 -26 CURVE SMOOTH"
);
}
);
width = 1300;
},
{
anchors = (
{
name = bottom;
position = "{492, 0}";
},
{
name = ogonek;
position = "{665, 0}";
},
{
name = top;
position = "{689, 1400}";
},
{
name = topright;
position = "{1358, 1400}";
}
);
hints = (
{
horizontal = 1;
origin = "{0, 17}";
target = "{0, 8}";
type = Stem;
},
{
horizontal = 1;
origin = "{0, 13}";
target = down;
type = TopGhost;
},
{
origin = "{0, 14}";
target = "{0, 11}";
type = Stem;
},
{
origin = "{0, 5}";
target = "{0, 2}";
type = Stem;
}
);
layerId = m004;
paths = (
{
closed = 1;
nodes = (
"826 -26 OFFCURVE",
"1096 246 OFFCURVE",
"1143 584 CURVE SMOOTH",
"1258 1400 LINE",
"958 1400 LINE",
"843 584 LINE SMOOTH",
"819 412 OFFCURVE",
"704 274 OFFCURVE",
"532 274 CURVE SMOOTH",
"362 274 OFFCURVE",
"281 414 OFFCURVE",
"305 584 CURVE SMOOTH",
"420 1400 LINE",
"120 1400 LINE",
"5 584 LINE SMOOTH",
"-42 246 OFFCURVE",
"154 -26 OFFCURVE",
"490 -26 CURVE SMOOTH"
);
}
);
width = 1378;
},
{
anchors = (
{
name = bottom;
position = "{663, 0}";
},
{
name = ogonek;
position = "{780, -11}";
},
{
name = top;
position = "{663, 1400}";
},
{
name = topright;
position = "{1306, 1400}";
}
);
hints = (
{
horizontal = 1;
origin = "{0, 17}";
target = "{0, 8}";
type = Stem;
},
{
horizontal = 1;
origin = "{0, 13}";
target = down;
type = TopGhost;
},
{
origin = "{0, 14}";
target = "{0, 11}";
type = Stem;
},
{
origin = "{0, 5}";
target = "{0, 2}";
type = Stem;
}
);
layerId = "81BB4A08-F3DE-40E2-9BD9-52E47EDF5C1E";
paths = (
{
closed = 1;
nodes = (
"999 -26 OFFCURVE",
"1206 246 OFFCURVE",
"1206 584 CURVE SMOOTH",
"1206 1400 LINE",
"1066 1400 LINE",
"1066 584 LINE SMOOTH",
"1066 329 OFFCURVE",
"926 114 OFFCURVE",
"663 114 CURVE SMOOTH",
"404 114 OFFCURVE",
"260 327 OFFCURVE",
"260 584 CURVE SMOOTH",
"260 1400 LINE",
"120 1400 LINE",
"120 584 LINE SMOOTH",
"120 246 OFFCURVE",
"327 -26 OFFCURVE",
"663 -26 CURVE SMOOTH"
);
}
);
width = 1326;
},
{
anchors = (
{
name = bottom;
position = "{466, 0}";
},
{
name = ogonek;
position = "{582, -11}";
},
{
name = top;
position = "{663, 1400}";
},
{
name = topright;
position = "{1306, 1400}";
}
);
hints = (
{
horizontal = 1;
origin = "{0, 17}";
target = "{0, 8}";
type = Stem;
},
{
horizontal = 1;
origin = "{0, 13}";
target = down;
type = TopGhost;
},
{
origin = "{0, 14}";
target = "{0, 11}";
type = Stem;
},
{
origin = "{0, 5}";
target = "{0, 2}";
type = Stem;
}
);
layerId = "6C2B4A57-296A-49E8-ACE5-0BEFCC4AFC9C";
paths = (
{
closed = 1;
nodes = (
"799 -26 OFFCURVE",
"1044 246 OFFCURVE",
"1091 584 CURVE SMOOTH",
"1206 1400 LINE",
"1066 1400 LINE",
"951 584 LINE SMOOTH",
"916 329 OFFCURVE",
"745 114 OFFCURVE",
"483 114 CURVE SMOOTH",
"223 114 OFFCURVE",
"109 327 OFFCURVE",
"145 584 CURVE SMOOTH",
"260 1400 LINE",
"120 1400 LINE",
"5 584 LINE SMOOTH",
"-42 246 OFFCURVE",
"127 -26 OFFCURVE",
"463 -26 CURVE SMOOTH"
);
}
);
width = 1326;
}
);
leftKerningGroup = U;
rightKerningGroup = U;
unicode = 0055;
},
{
glyphname = V;
lastChange = "2021-08-26 03:05:31 +0000";
layers = (
{
anchors = (
{
name = bottom;
position = "{802, 0}";
},
{
name = top;
position = "{802, 1400}";
}
);
hints = (
{
horizontal = 1;
origin = "{0, 6}";
target = up;
type = BottomGhost;
},
{
horizontal = 1;
origin = "{0, 5}";
target = down;
type = TopGhost;
}
);
layerId = "10BC12B3-5274-42E3-B5BC-F74F362F0DF4";
paths = (
{
closed = 1;
nodes = (
"996 0 LINE",
"1504 1400 LINE",
"1186 1400 LINE",
"802 344 LINE",
"418 1400 LINE",
"100 1400 LINE",
"608 0 LINE"
);
}
);
width = 1604;
},
{
anchors = (
{
name = bottom;
position = "{559, 0}";
},
{
name = top;
position = "{559, 1400}";
}
);
hints = (
{
horizontal = 1;
origin = "{0, 6}";
target = up;
type = BottomGhost;
},
{
horizontal = 1;
origin = "{0, 5}";
target = down;
type = TopGhost;
}
);
layerId = "9AF1F7D9-E035-453E-B2A8-46DE370997D0";
paths = (
{
closed = 1;
nodes = (
"588 0 LINE",
"1098 1400 LINE",
"1034 1400 LINE",
"558 92 LINE",
"84 1400 LINE",
"20 1400 LINE",
"528 0 LINE"
);
}
);
width = 1118;
},
{
anchors = (
{
name = bottom;
position = "{362, 0}";
},
{
name = top;
position = "{559, 1400}";
}
);
hints = (
{
horizontal = 1;
origin = "{0, 6}";
target = up;
type = BottomGhost;
},
{
horizontal = 1;
origin = "{0, 5}";
target = down;
type = TopGhost;
}
);
layerId = m003;
paths = (
{
closed = 1;
nodes = (
"391 0 LINE",
"1098 1400 LINE",
"1034 1400 LINE",
"374 92 LINE",
"84 1400 LINE",
"20 1400 LINE",
"331 0 LINE"
);
}
);
width = 1118;
},
{
anchors = (
{
name = bottom;
position = "{605, 0}";
},
{
name = top;
position = "{802, 1400}";
}
);
hints = (
{
horizontal = 1;
origin = "{0, 6}";
target = up;
type = BottomGhost;
},
{
horizontal = 1;
origin = "{0, 5}";
target = down;
type = TopGhost;
}
);
layerId = m004;
paths = (
{
closed = 1;
nodes = (
"799 0 LINE",
"1504 1400 LINE",
"1186 1400 LINE",
"654 344 LINE",
"418 1400 LINE",
"100 1400 LINE",
"411 0 LINE"
);
}
);
width = 1604;
},
{
anchors = (
{
name = bottom;
position = "{640, 0}";
},
{
name = top;
position = "{640, 1400}";
}
);
hints = (
{
horizontal = 1;
origin = "{0, 6}";
target = up;
type = BottomGhost;
},
{
horizontal = 1;
origin = "{0, 5}";
target = down;
type = TopGhost;
}
);
layerId = "81BB4A08-F3DE-40E2-9BD9-52E47EDF5C1E";
paths = (
{
closed = 1;
nodes = (
"724 0 LINE",
"1233 1400 LINE",
"1085 1400 LINE",
"639 176 LINE",
"195 1400 LINE",
"47 1400 LINE",
"555 0 LINE"
);
}
);
width = 1280;
},
{
anchors = (
{
name = bottom;
position = "{443, 0}";
},
{
name = top;
position = "{640, 1400}";
}
);
hints = (
{
horizontal = 1;
origin = "{0, 6}";
target = up;
type = BottomGhost;
},
{
horizontal = 1;
origin = "{0, 5}";
target = down;
type = TopGhost;
}
);
layerId = "6C2B4A57-296A-49E8-ACE5-0BEFCC4AFC9C";
paths = (
{
closed = 1;
nodes = (
"527 0 LINE",
"1233 1400 LINE",
"1085 1400 LINE",
"467 176 LINE",
"195 1400 LINE",
"47 1400 LINE",
"358 0 LINE"
);
}
);
width = 1280;
}
);
leftKerningGroup = W;
leftMetricsKey = W;
rightKerningGroup = W;
rightMetricsKey = W;
unicode = 0056;
},
{
glyphname = W;
lastChange = "2021-08-26 03:05:31 +0000";
layers = (
{
anchors = (
{
name = bottom;
position = "{980, 0}";
},
{
name = top;
position = "{980, 1400}";
}
);
hints = (
{
horizontal = 1;
origin = "{0, 12}";
target = up;
type = BottomGhost;
},
{
horizontal = 1;
origin = "{0, 11}";
target = down;
type = TopGhost;
}
);
layerId = "10BC12B3-5274-42E3-B5BC-F74F362F0DF4";
paths = (
{
closed = 1;
nodes = (
"796 0 LINE",
"980 726 LINE",
"1166 0 LINE",
"1504 0 LINE",
"1860 1400 LINE",
"1550 1400 LINE",
"1334 552 LINE",
"1118 1400 LINE",
"842 1400 LINE",
"626 552 LINE",
"410 1400 LINE",
"100 1400 LINE",
"458 0 LINE"
);
}
);
width = 1960;
},
{
anchors = (
{
name = bottom;
position = "{776, 0}";
},
{
name = top;
position = "{776, 1400}";
}
);
hints = (
{
horizontal = 1;
origin = "{0, 12}";
target = "{0, 9}";
type = Stem;
},
{
horizontal = 1;
origin = "{0, 11}";
target = down;
type = TopGhost;
}
);
layerId = "9AF1F7D9-E035-453E-B2A8-46DE370997D0";
paths = (
{
closed = 1;
nodes = (
"456 0 LINE",
"776 1250 LINE",
"1096 0 LINE",
"1176 0 LINE",
"1532 1400 LINE",
"1470 1400 LINE",
"1136 86 LINE",
"800 1400 LINE",
"752 1400 LINE",
"418 86 LINE",
"82 1400 LINE",
"20 1400 LINE",
"378 0 LINE"
);
}
);
width = 1552;
},
{
anchors = (
{
name = bottom;
position = "{579, 0}";
},
{
name = top;
position = "{776, 1400}";
}
);
hints = (
{
horizontal = 1;
origin = "{0, 12}";
target = "{0, 9}";
type = Stem;
},
{
horizontal = 1;
origin = "{0, 11}";
target = down;
type = TopGhost;
}
);
layerId = m003;
paths = (
{
closed = 1;
nodes = (
"259 0 LINE",
"755 1250 LINE",
"899 0 LINE",
"979 0 LINE",
"1532 1400 LINE",
"1470 1400 LINE",
"951 86 LINE",
"800 1400 LINE",
"752 1400 LINE",
"233 86 LINE",
"82 1400 LINE",
"20 1400 LINE",
"181 0 LINE"
);
}
);
width = 1552;
},
{
anchors = (
{
name = bottom;
position = "{783, 0}";
},
{
name = top;
position = "{980, 1400}";
}
);
hints = (
{
horizontal = 1;
origin = "{0, 12}";
target = up;
type = BottomGhost;
},
{
horizontal = 1;
origin = "{0, 11}";
target = down;
type = TopGhost;
}
);
layerId = m004;
paths = (
{
closed = 1;
nodes = (
"599 0 LINE",
"885 726 LINE",
"969 0 LINE",
"1307 0 LINE",
"1860 1400 LINE",
"1550 1400 LINE",
"1215 552 LINE",
"1118 1400 LINE",
"842 1400 LINE",
"507 552 LINE",
"410 1400 LINE",
"100 1400 LINE",
"261 0 LINE"
);
}
);
width = 1960;
},
{
anchors = (
{
name = bottom;
position = "{844, 0}";
},
{
name = top;
position = "{844, 1400}";
}
);
hints = (
{
horizontal = 1;
origin = "{0, 12}";
target = "{0, 9}";
type = Stem;
},
{
horizontal = 1;
origin = "{0, 11}";
target = down;
type = TopGhost;
}
);
layerId = "81BB4A08-F3DE-40E2-9BD9-52E47EDF5C1E";
paths = (
{
closed = 1;
nodes = (
"569 0 LINE",
"844 1075 LINE",
"1119 0 LINE",
"1285 0 LINE",
"1641 1400 LINE",
"1497 1400 LINE",
"1202 241 LINE",
"906 1400 LINE",
"782 1400 LINE",
"487 241 LINE",
"191 1400 LINE",
"47 1400 LINE",
"405 0 LINE"
);
}
);
width = 1688;
},
{
anchors = (
{
name = bottom;
position = "{647, 0}";
},
{
name = top;
position = "{844, 1400}";
}
);
hints = (
{
horizontal = 1;
origin = "{0, 12}";
target = "{0, 9}";
type = Stem;
},
{
horizontal = 1;
origin = "{0, 11}";
target = down;
type = TopGhost;
}
);
layerId = "6C2B4A57-296A-49E8-ACE5-0BEFCC4AFC9C";
paths = (
{
closed = 1;
nodes = (
"372 0 LINE",
"798 1075 LINE",
"922 0 LINE",
"1088 0 LINE",
"1641 1400 LINE",
"1497 1400 LINE",
"1039 241 LINE",
"906 1400 LINE",
"782 1400 LINE",
"324 241 LINE",
"191 1400 LINE",
"47 1400 LINE",
"208 0 LINE"
);
}
);
width = 1688;
}
);
leftKerningGroup = W;
rightKerningGroup = W;
unicode = 0057;
},
{
glyphname = X;
lastChange = "2021-08-26 03:05:31 +0000";
layers = (
{
anchors = (
{
name = bottom;
position = "{758, 0}";
},
{
name = top;
position = "{758, 1400}";
}
);
hints = (
{
horizontal = 1;
origin = "{0, 11}";
target = up;
type = BottomGhost;
},
{
horizontal = 1;
origin = "{0, 9}";
target = down;
type = TopGhost;
}
);
layerId = "10BC12B3-5274-42E3-B5BC-F74F362F0DF4";
paths = (
{
closed = 1;
nodes = (
"432 0 LINE",
"758 448 LINE",
"1084 0 LINE",
"1456 0 LINE",
"944 704 LINE",
"1450 1400 LINE",
"1080 1400 LINE",
"758 958 LINE",
"436 1400 LINE",
"66 1400 LINE",
"572 704 LINE",
"60 0 LINE"
);
}
);
width = 1516;
},
{
anchors = (
{
name = bottom;
position = "{610, 0}";
},
{
name = top;
position = "{610, 1400}";
}
);
hints = (
{
horizontal = 1;
origin = "{0, 11}";
target = up;
type = BottomGhost;
},
{
horizontal = 1;
origin = "{0, 9}";
target = down;
type = TopGhost;
}
);
layerId = "9AF1F7D9-E035-453E-B2A8-46DE370997D0";
paths = (
{
closed = 1;
nodes = (
"136 0 LINE",
"610 652 LINE",
"1086 0 LINE",
"1160 0 LINE",
"648 704 LINE",
"1154 1400 LINE",
"1080 1400 LINE",
"610 754 LINE",
"140 1400 LINE",
"66 1400 LINE",
"574 704 LINE",
"60 0 LINE"
);
}
);
width = 1220;
},
{
anchors = (
{
name = bottom;
position = "{413, 0}";
},
{
name = top;
position = "{610, 1400}";
}
);
hints = (
{
horizontal = 1;
origin = "{0, 11}";
target = up;
type = BottomGhost;
},
{
horizontal = 1;
origin = "{0, 9}";
target = down;
type = TopGhost;
}
);
layerId = m003;
paths = (
{
closed = 1;
nodes = (
"-61 0 LINE",
"505 652 LINE",
"889 0 LINE",
"963 0 LINE",
"550 704 LINE",
"1154 1400 LINE",
"1080 1400 LINE",
"519 754 LINE",
"140 1400 LINE",
"66 1400 LINE",
"476 704 LINE",
"-137 0 LINE"
);
}
);
width = 1220;
},
{
anchors = (
{
name = bottom;
position = "{561, 0}";
},
{
name = top;
position = "{758, 1400}";
}
);
hints = (
{
horizontal = 1;
origin = "{0, 11}";
target = up;
type = BottomGhost;
},
{
horizontal = 1;
origin = "{0, 9}";
target = down;
type = TopGhost;
}
);
layerId = m004;
paths = (
{
closed = 1;
nodes = (
"235 0 LINE",
"624 448 LINE",
"887 0 LINE",
"1259 0 LINE",
"846 704 LINE",
"1450 1400 LINE",
"1080 1400 LINE",
"696 958 LINE",
"436 1400 LINE",
"66 1400 LINE",
"474 704 LINE",
"-137 0 LINE"
);
}
);
width = 1516;
},
{
anchors = (
{
name = bottom;
position = "{659, 0}";
},
{
name = top;
position = "{659, 1400}";
}
);
hints = (
{
horizontal = 1;
origin = "{0, 11}";
target = up;
type = BottomGhost;
},
{
horizontal = 1;
origin = "{0, 9}";
target = down;
type = TopGhost;
}
);
layerId = "81BB4A08-F3DE-40E2-9BD9-52E47EDF5C1E";
paths = (
{
closed = 1;
nodes = (
"235 0 LINE",
"659 584 LINE",
"1085 0 LINE",
"1259 0 LINE",
"747 704 LINE",
"1253 1400 LINE",
"1080 1400 LINE",
"659 822 LINE",
"239 1400 LINE",
"66 1400 LINE",
"573 704 LINE",
"60 0 LINE"
);
}
);
width = 1318.66667;
},
{
anchors = (
{
name = bottom;
position = "{462, 0}";
},
{
name = top;
position = "{659, 1400}";
}
);
hints = (
{
horizontal = 1;
origin = "{0, 11}";
target = up;
type = BottomGhost;
},
{
horizontal = 1;
origin = "{0, 9}";
target = down;
type = TopGhost;
}
);
layerId = "6C2B4A57-296A-49E8-ACE5-0BEFCC4AFC9C";
paths = (
{
closed = 1;
nodes = (
"38 0 LINE",
"545 584 LINE",
"888 0 LINE",
"1062 0 LINE",
"649 704 LINE",
"1253 1400 LINE",
"1080 1400 LINE",
"578 822 LINE",
"239 1400 LINE",
"66 1400 LINE",
"475 704 LINE",
"-137 0 LINE"
);
}
);
width = 1318.66667;
}
);
leftKerningGroup = X;
rightKerningGroup = X;
unicode = 0058;
},
{
glyphname = Y;
lastChange = "2021-08-26 03:05:31 +0000";
layers = (
{
anchors = (
{
name = bottom;
position = "{696, 0}";
},
{
name = top;
position = "{696, 1400}";
},
{
name = topleft;
position = "{20, 1400}";
}
);
hints = (
{
horizontal = 1;
origin = "{0, 4}";
target = up;
type = BottomGhost;
},
{
horizontal = 1;
origin = "{0, 2}";
target = down;
type = TopGhost;
},
{
origin = "{0, 4}";
target = "{0, 5}";
type = Stem;
}
);
layerId = "10BC12B3-5274-42E3-B5BC-F74F362F0DF4";
paths = (
{
closed = 1;
nodes = (
"696 956 LINE",
"414 1400 LINE",
"60 1400 LINE",
"546 630 LINE",
"546 0 LINE",
"846 0 LINE",
"846 630 LINE",
"1332 1400 LINE",
"978 1400 LINE"
);
}
);
width = 1392;
},
{
anchors = (
{
name = bottom;
position = "{554, 0}";
},
{
name = top;
position = "{554, 1400}";
},
{
name = topleft;
position = "{20, 1400}";
}
);
hints = (
{
horizontal = 1;
origin = "{0, 4}";
target = up;
type = BottomGhost;
},
{
horizontal = 1;
origin = "{0, 2}";
target = down;
type = TopGhost;
},
{
origin = "{0, 4}";
target = "{0, 5}";
type = Stem;
}
);
layerId = "9AF1F7D9-E035-453E-B2A8-46DE370997D0";
paths = (
{
closed = 1;
nodes = (
"554 702 LINE",
"130 1400 LINE",
"60 1400 LINE",
"524 636 LINE",
"524 0 LINE",
"584 0 LINE",
"584 636 LINE",
"1048 1400 LINE",
"978 1400 LINE"
);
}
);
width = 1108;
},
{
anchors = (
{
name = bottom;
position = "{357, 0}";
},
{
name = top;
position = "{554, 1400}";
},
{
name = topleft;
position = "{20, 1400}";
}
);
hints = (
{
horizontal = 1;
origin = "{0, 4}";
target = up;
type = BottomGhost;
},
{
horizontal = 1;
origin = "{0, 2}";
target = down;
type = TopGhost;
},
{
origin = "{0, 4}";
target = "{0, 5}";
type = Stem;
}
);
layerId = m003;
paths = (
{
closed = 1;
nodes = (
"456 702 LINE",
"130 1400 LINE",
"60 1400 LINE",
"417 636 LINE",
"327 0 LINE",
"387 0 LINE",
"477 636 LINE",
"1048 1400 LINE",
"978 1400 LINE"
);
}
);
width = 1108;
},
{
anchors = (
{
name = bottom;
position = "{499, 0}";
},
{
name = top;
position = "{696, 1400}";
},
{
name = topleft;
position = "{20, 1400}";
}
);
hints = (
{
horizontal = 1;
origin = "{0, 4}";
target = up;
type = BottomGhost;
},
{
horizontal = 1;
origin = "{0, 2}";
target = down;
type = TopGhost;
},
{
origin = "{0, 4}";
target = "{0, 5}";
type = Stem;
}
);
layerId = m004;
paths = (
{
closed = 1;
nodes = (
"634 956 LINE",
"414 1400 LINE",
"60 1400 LINE",
"438 630 LINE",
"349 0 LINE",
"649 0 LINE",
"738 630 LINE",
"1332 1400 LINE",
"978 1400 LINE"
);
}
);
width = 1392;
},
{
anchors = (
{
name = bottom;
position = "{601, 0}";
},
{
name = top;
position = "{601, 1400}";
},
{
name = topleft;
position = "{20, 1400}";
}
);
hints = (
{
horizontal = 1;
origin = "{0, 4}";
target = up;
type = BottomGhost;
},
{
horizontal = 1;
origin = "{0, 2}";
target = down;
type = TopGhost;
},
{
origin = "{0, 4}";
target = "{0, 5}";
type = Stem;
}
);
layerId = "81BB4A08-F3DE-40E2-9BD9-52E47EDF5C1E";
paths = (
{
closed = 1;
nodes = (
"601 787 LINE",
"225 1400 LINE",
"60 1400 LINE",
"531 634 LINE",
"531 0 LINE",
"671 0 LINE",
"671 634 LINE",
"1143 1400 LINE",
"978 1400 LINE"
);
}
);
width = 1202.66667;
},
{
anchors = (
{
name = bottom;
position = "{404, 0}";
},
{
name = top;
position = "{601, 1400}";
},
{
name = topleft;
position = "{20, 1400}";
}
);
hints = (
{
horizontal = 1;
origin = "{0, 4}";
target = up;
type = BottomGhost;
},
{
horizontal = 1;
origin = "{0, 2}";
target = down;
type = TopGhost;
},
{
origin = "{0, 4}";
target = "{0, 5}";
type = Stem;
}
);
layerId = "6C2B4A57-296A-49E8-ACE5-0BEFCC4AFC9C";
paths = (
{
closed = 1;
nodes = (
"515 787 LINE",
"225 1400 LINE",
"60 1400 LINE",
"424 634 LINE",
"334 0 LINE",
"474 0 LINE",
"564 634 LINE",
"1143 1400 LINE",
"978 1400 LINE"
);
}
);
width = 1202.66667;
}
);
leftKerningGroup = Y;
rightKerningGroup = Y;
unicode = 0059;
},
{
glyphname = Z;
lastChange = "2021-08-26 03:05:31 +0000";
layers = (
{
anchors = (
{
name = bottom;
position = "{686, 0}";
},
{
name = center;
position = "{686, 700}";
},
{
name = top;
position = "{686, 1400}";
}
);
hints = (
{
horizontal = 1;
origin = "{0, 9}";
target = "{0, 8}";
type = Stem;
},
{
horizontal = 1;
origin = "{0, 5}";
target = "{0, 6}";
type = Stem;
}
);
layerId = "10BC12B3-5274-42E3-B5BC-F74F362F0DF4";
paths = (
{
closed = 1;
nodes = (
"1252 0 LINE",
"1252 300 LINE",
"526 300 LINE",
"1252 1100 LINE",
"1252 1400 LINE",
"120 1400 LINE",
"120 1100 LINE",
"846 1100 LINE",
"120 300 LINE",
"120 0 LINE"
);
}
);
width = 1372;
},
{
anchors = (
{
name = bottom;
position = "{686, 0}";
},
{
name = center;
position = "{686, 700}";
},
{
name = top;
position = "{686, 1400}";
}
);
hints = (
{
horizontal = 1;
origin = "{0, 9}";
target = "{0, 8}";
type = Stem;
},
{
horizontal = 1;
origin = "{0, 5}";
target = "{0, 6}";
type = Stem;
}
);
layerId = "9AF1F7D9-E035-453E-B2A8-46DE370997D0";
paths = (
{
closed = 1;
nodes = (
"1252 0 LINE",
"1252 60 LINE",
"198 60 LINE",
"1252 1340 LINE",
"1252 1400 LINE",
"120 1400 LINE",
"120 1340 LINE",
"1174 1340 LINE",
"120 60 LINE",
"120 0 LINE"
);
}
);
width = 1372;
},
{
anchors = (
{
name = bottom;
position = "{489, 0}";
},
{
name = center;
position = "{588, 700}";
},
{
name = top;
position = "{686, 1400}";
}
);
hints = (
{
horizontal = 1;
origin = "{0, 9}";
target = "{0, 8}";
type = Stem;
},
{
horizontal = 1;
origin = "{0, 5}";
target = "{0, 6}";
type = Stem;
}
);
layerId = m003;
paths = (
{
closed = 1;
nodes = (
"1055 0 LINE",
"1064 60 LINE",
"10 60 LINE",
"1244 1340 LINE",
"1252 1400 LINE",
"120 1400 LINE",
"112 1340 LINE",
"1166 1340 LINE",
"-68 60 LINE",
"-77 0 LINE"
);
}
);
width = 1372;
},
{
anchors = (
{
name = bottom;
position = "{489, 0}";
},
{
name = center;
position = "{588, 700}";
},
{
name = top;
position = "{686, 1400}";
}
);
hints = (
{
horizontal = 1;
origin = "{0, 9}";
target = "{0, 8}";
type = Stem;
},
{
horizontal = 1;
origin = "{0, 5}";
target = "{0, 6}";
type = Stem;
}
);
layerId = m004;
paths = (
{
closed = 1;
nodes = (
"1055 0 LINE",
"1097 300 LINE",
"371 300 LINE",
"1210 1100 LINE",
"1252 1400 LINE",
"120 1400 LINE",
"78 1100 LINE",
"804 1100 LINE",
"-35 300 LINE",
"-77 0 LINE"
);
}
);
width = 1372;
},
{
anchors = (
{
name = bottom;
position = "{686, 0}";
},
{
name = center;
position = "{686, 700}";
},
{
name = top;
position = "{686, 1400}";
}
);
hints = (
{
horizontal = 1;
origin = "{0, 9}";
target = "{0, 8}";
type = Stem;
},
{
horizontal = 1;
origin = "{0, 5}";
target = "{0, 6}";
type = Stem;
}
);
layerId = "81BB4A08-F3DE-40E2-9BD9-52E47EDF5C1E";
paths = (
{
closed = 1;
nodes = (
"1252 0 LINE",
"1252 140 LINE",
"307 140 LINE",
"1252 1260 LINE",
"1252 1400 LINE",
"120 1400 LINE",
"120 1260 LINE",
"1065 1260 LINE",
"120 140 LINE",
"120 0 LINE"
);
}
);
width = 1372;
},
{
anchors = (
{
name = bottom;
position = "{489, 0}";
},
{
name = center;
position = "{588, 700}";
},
{
name = top;
position = "{686, 1400}";
}
);
hints = (
{
horizontal = 1;
origin = "{0, 9}";
target = "{0, 8}";
type = Stem;
},
{
horizontal = 1;
origin = "{0, 5}";
target = "{0, 6}";
type = Stem;
}
);
layerId = "6C2B4A57-296A-49E8-ACE5-0BEFCC4AFC9C";
paths = (
{
closed = 1;
nodes = (
"1055 0 LINE",
"1075 140 LINE",
"130 140 LINE",
"1233 1260 LINE",
"1252 1400 LINE",
"120 1400 LINE",
"101 1260 LINE",
"1045 1260 LINE",
"-57 140 LINE",
"-77 0 LINE"
);
}
);
width = 1372;
}
);
leftKerningGroup = Z;
rightKerningGroup = Z;
unicode = 005A;
},
{
glyphname = a;
lastChange = "2021-08-26 03:05:48 +0000";
layers = (
{
anchors = (
{
name = bottom;
position = "{623, 0}";
},
{
name = ogonek;
position = "{1138, 0}";
},
{
name = top;
position = "{623, 1000}";
}
);
hints = (
{
horizontal = 1;
origin = "{0, 9}";
target = "{0, 12}";
type = Stem;
},
{
horizontal = 1;
origin = "{0, 16}";
target = down;
type = TopGhost;
},
{
horizontal = 1;
origin = "{0, 3}";
target = "{0, 0}";
type = Stem;
},
{
horizontal = 1;
origin = "{0, 13}";
target = up;
type = BottomGhost;
},
{
origin = "{0, 16}";
target = "{0, 14}";
type = Stem;
}
);
layerId = "10BC12B3-5274-42E3-B5BC-F74F362F0DF4";
paths = (
{
closed = 1;
nodes = (
"852 904 LINE",
"778 974 OFFCURVE",
"685 1028 OFFCURVE",
"570 1028 CURVE SMOOTH",
"287 1028 OFFCURVE",
"59 798 OFFCURVE",
"60 514 CURVE SMOOTH",
"59 216 OFFCURVE",
"300 -26 OFFCURVE",
"598 -26 CURVE SMOOTH",
"698 -26 OFFCURVE",
"773 20 OFFCURVE",
"823 90 CURVE",
"837 0 LINE",
"1138 0 LINE",
"1138 1000 LINE",
"838 1000 LINE"
);
},
{
closed = 1;
nodes = (
"468 262 OFFCURVE",
"368 368 OFFCURVE",
"368 500 CURVE SMOOTH",
"368 632 OFFCURVE",
"465 738 OFFCURVE",
"590 738 CURVE SMOOTH",
"714 738 OFFCURVE",
"814 632 OFFCURVE",
"814 500 CURVE SMOOTH",
"814 368 OFFCURVE",
"714 262 OFFCURVE",
"590 262 CURVE SMOOTH"
);
}
);
width = 1218;
},
{
anchors = (
{
name = bottom;
position = "{582, 0}";
},
{
name = ogonek;
position = "{1054, 0}";
},
{
name = top;
position = "{582, 1000}";
}
);
hints = (
{
horizontal = 1;
origin = "{0, 9}";
target = "{1, 11}";
type = Stem;
},
{
horizontal = 1;
origin = "{0, 16}";
target = down;
type = TopGhost;
},
{
horizontal = 1;
origin = "{0, 3}";
target = "{1, 5}";
type = Stem;
},
{
horizontal = 1;
origin = "{0, 13}";
target = up;
type = BottomGhost;
},
{
origin = "{0, 6}";
target = "{1, 2}";
type = Stem;
},
{
origin = "{0, 13}";
target = "{0, 14}";
type = Stem;
},
{
origin = "{1, 8}";
target = "{0, 14}";
type = Stem;
}
);
layerId = "9AF1F7D9-E035-453E-B2A8-46DE370997D0";
paths = (
{
closed = 1;
nodes = (
"994 768 LINE",
"922 924 OFFCURVE",
"780 1028 OFFCURVE",
"586 1028 CURVE SMOOTH",
"296 1028 OFFCURVE",
"60 792 OFFCURVE",
"60 500 CURVE SMOOTH",
"60 210 OFFCURVE",
"296 -26 OFFCURVE",
"586 -26 CURVE SMOOTH",
"780 -26 OFFCURVE",
"922 78 OFFCURVE",
"994 234 CURVE",
"994 0 LINE",
"1054 0 LINE",
"1054 1000 LINE",
"994 1000 LINE"
);
},
{
closed = 1;
nodes = (
"336 34 OFFCURVE",
"120 238 OFFCURVE",
"120 500 CURVE SMOOTH",
"120 758 OFFCURVE",
"328 968 OFFCURVE",
"586 968 CURVE SMOOTH",
"840 968 OFFCURVE",
"990 762 OFFCURVE",
"990 500 CURVE SMOOTH",
"990 244 OFFCURVE",
"844 34 OFFCURVE",
"586 34 CURVE SMOOTH"
);
}
);
width = 1134;
},
{
anchors = (
{
name = bottom;
position = "{385, 0}";
},
{
name = ogonek;
position = "{857, 0}";
},
{
name = top;
position = "{526, 1000}";
}
);
hints = (
{
horizontal = 1;
origin = "{0, 9}";
target = "{1, 11}";
type = Stem;
},
{
horizontal = 1;
origin = "{0, 16}";
target = down;
type = TopGhost;
},
{
horizontal = 1;
origin = "{0, 3}";
target = "{1, 5}";
type = Stem;
},
{
horizontal = 1;
origin = "{0, 13}";
target = up;
type = BottomGhost;
},
{
origin = "{0, 6}";
target = "{1, 2}";
type = Stem;
},
{
origin = "{0, 13}";
target = "{0, 14}";
type = Stem;
},
{
origin = "{1, 8}";
target = "{0, 14}";
type = Stem;
}
);
layerId = m003;
paths = (
{
closed = 1;
nodes = (
"905 768 LINE",
"855 924 OFFCURVE",
"728 1028 OFFCURVE",
"534 1028 CURVE SMOOTH",
"244 1028 OFFCURVE",
"-25 792 OFFCURVE",
"-66 500 CURVE SMOOTH",
"-107 210 OFFCURVE",
"96 -26 OFFCURVE",
"386 -26 CURVE SMOOTH",
"580 -26 OFFCURVE",
"736 78 OFFCURVE",
"830 234 CURVE",
"797 0 LINE",
"857 0 LINE",
"998 1000 LINE",
"938 1000 LINE"
);
},
{
closed = 1;
nodes = (
"144 34 OFFCURVE",
"-43 238 OFFCURVE",
"-6 500 CURVE SMOOTH",
"30 758 OFFCURVE",
"267 968 OFFCURVE",
"525 968 CURVE SMOOTH",
"779 968 OFFCURVE",
"900 762 OFFCURVE",
"864 500 CURVE SMOOTH",
"828 244 OFFCURVE",
"652 34 OFFCURVE",
"394 34 CURVE SMOOTH"
);
}
);
width = 1134;
},
{
anchors = (
{
name = bottom;
position = "{427, 0}";
},
{
name = ogonek;
position = "{942, 0}";
},
{
name = top;
position = "{568, 1000}";
}
);
hints = (
{
horizontal = 1;
origin = "{0, 9}";
target = "{0, 12}";
type = Stem;
},
{
horizontal = 1;
origin = "{0, 16}";
target = down;
type = TopGhost;
},
{
horizontal = 1;
origin = "{0, 3}";
target = "{0, 0}";
type = Stem;
},
{
horizontal = 1;
origin = "{0, 13}";
target = up;
type = BottomGhost;
},
{
origin = "{0, 16}";
target = "{0, 14}";
type = Stem;
}
);
layerId = m004;
paths = (
{
closed = 1;
nodes = (
"783 904 LINE",
"719 974 OFFCURVE",
"634 1028 OFFCURVE",
"519 1028 CURVE SMOOTH",
"236 1028 OFFCURVE",
"-25 798 OFFCURVE",
"-64 514 CURVE SMOOTH",
"-106 216 OFFCURVE",
"101 -26 OFFCURVE",
"399 -26 CURVE SMOOTH",
"499 -26 OFFCURVE",
"580 20 OFFCURVE",
"640 90 CURVE",
"641 0 LINE",
"942 0 LINE",
"1083 1000 LINE",
"783 1000 LINE"
);
},
{
closed = 1;
nodes = (
"309 262 OFFCURVE",
"224 368 OFFCURVE",
"243 500 CURVE SMOOTH",
"261 632 OFFCURVE",
"373 738 OFFCURVE",
"498 738 CURVE SMOOTH",
"622 738 OFFCURVE",
"707 632 OFFCURVE",
"689 500 CURVE SMOOTH",
"670 368 OFFCURVE",
"555 262 OFFCURVE",
"431 262 CURVE SMOOTH"
);
}
);
width = 1219;
},
{
anchors = (
{
name = bottom;
position = "{596, 0}";
},
{
name = ogonek;
position = "{1082, 0}";
},
{
name = top;
position = "{596, 1000}";
}
);
hints = (
{
horizontal = 1;
origin = "{0, 9}";
target = "{1, 11}";
type = Stem;
},
{
horizontal = 1;
origin = "{0, 16}";
target = down;
type = TopGhost;
},
{
horizontal = 1;
origin = "{0, 3}";
target = "{1, 5}";
type = Stem;
},
{
horizontal = 1;
origin = "{0, 13}";
target = up;
type = BottomGhost;
},
{
origin = "{0, 6}";
target = "{1, 2}";
type = Stem;
},
{
origin = "{0, 13}";
target = "{0, 14}";
type = Stem;
},
{
origin = "{1, 8}";
target = "{0, 14}";
type = Stem;
}
);
layerId = "81BB4A08-F3DE-40E2-9BD9-52E47EDF5C1E";
paths = (
{
closed = 1;
nodes = (
"947 813 LINE",
"874 941 OFFCURVE",
"748 1028 OFFCURVE",
"581 1028 CURVE SMOOTH",
"293 1028 OFFCURVE",
"60 794 OFFCURVE",
"60 505 CURVE SMOOTH",
"60 212 OFFCURVE",
"297 -26 OFFCURVE",
"590 -26 CURVE SMOOTH",
"753 -26 OFFCURVE",
"872 59 OFFCURVE",
"937 186 CURVE",
"942 0 LINE",
"1082 0 LINE",
"1082 1000 LINE",
"942 1000 LINE"
);
},
{
closed = 1;
nodes = (
"380 110 OFFCURVE",
"203 281 OFFCURVE",
"203 500 CURVE SMOOTH",
"203 716 OFFCURVE",
"374 891 OFFCURVE",
"587 891 CURVE SMOOTH",
"798 891 OFFCURVE",
"931 719 OFFCURVE",
"931 500 CURVE SMOOTH",
"931 285 OFFCURVE",
"801 110 OFFCURVE",
"587 110 CURVE SMOOTH"
);
}
);
width = 1162;
},
{
anchors = (
{
name = bottom;
position = "{399, 0}";
},
{
name = ogonek;
position = "{885, 0}";
},
{
name = top;
position = "{540, 1000}";
}
);
hints = (
{
horizontal = 1;
origin = "{0, 9}";
target = "{1, 11}";
type = Stem;
},
{
horizontal = 1;
origin = "{0, 16}";
target = down;
type = TopGhost;
},
{
horizontal = 1;
origin = "{0, 3}";
target = "{1, 5}";
type = Stem;
},
{
horizontal = 1;
origin = "{0, 13}";
target = up;
type = BottomGhost;
},
{
origin = "{0, 6}";
target = "{1, 2}";
type = Stem;
},
{
origin = "{0, 13}";
target = "{0, 14}";
type = Stem;
},
{
origin = "{1, 8}";
target = "{0, 14}";
type = Stem;
}
);
layerId = "6C2B4A57-296A-49E8-ACE5-0BEFCC4AFC9C";
paths = (
{
closed = 1;
nodes = (
"864 813 LINE",
"810 941 OFFCURVE",
"697 1028 OFFCURVE",
"529 1028 CURVE SMOOTH",
"241 1028 OFFCURVE",
"-25 794 OFFCURVE",
"-65 505 CURVE SMOOTH",
"-107 212 OFFCURVE",
"98 -26 OFFCURVE",
"390 -26 CURVE SMOOTH",
"553 -26 OFFCURVE",
"684 59 OFFCURVE",
"767 186 CURVE",
"745 0 LINE",
"885 0 LINE",
"1026 1000 LINE",
"886 1000 LINE"
);
},
{
closed = 1;
nodes = (
"199 110 OFFCURVE",
"46 281 OFFCURVE",
"77 500 CURVE SMOOTH",
"107 716 OFFCURVE",
"302 891 OFFCURVE",
"516 891 CURVE SMOOTH",
"727 891 OFFCURVE",
"836 719 OFFCURVE",
"806 500 CURVE SMOOTH",
"775 285 OFFCURVE",
"620 110 OFFCURVE",
"406 110 CURVE SMOOTH"
);
}
);
width = 1162;
}
);
leftKerningGroup = o;
leftMetricsKey = o;
rightKerningGroup = n;
rightMetricsKey = n;
unicode = 0061;
},
{
glyphname = ae;
lastChange = "2021-08-26 03:05:31 +0000";
layers = (
{
anchors = (
{
name = bottom;
position = "{909, 0}";
},
{
name = top;
position = "{909, 1000}";
}
);
hints = (
{
horizontal = 1;
origin = "{0, 43}";
target = "{1, 10}";
type = Stem;
},
{
horizontal = 1;
origin = "{1, 5}";
target = "{0, 37}";
type = Stem;
},
{
horizontal = 1;
origin = "{0, 26}";
target = "{0, 33}";
type = Stem;
},
{
horizontal = 1;
origin = "{0, 26}";
target = "{2, 2}";
type = Stem;
},
{
origin = "{0, 40}";
target = "{1, 2}";
type = Stem;
}
);
layerId = "10BC12B3-5274-42E3-B5BC-F74F362F0DF4";
paths = (
{
closed = 1;
nodes = (
"630 -26 LINE SMOOTH",
"764 -26 OFFCURVE",
"844 14 OFFCURVE",
"930 102 CURVE",
"1018 22 OFFCURVE",
"1132 -26 OFFCURVE",
"1258 -26 CURVE SMOOTH",
"1458 -26 OFFCURVE",
"1630 98 OFFCURVE",
"1710 276 CURVE",
"1404 348 LINE",
"1368 302 OFFCURVE",
"1316 274 OFFCURVE",
"1258 274 CURVE SMOOTH",
"1164 276 OFFCURVE",
"1110 330 OFFCURVE",
"1082 402 CURVE",
"1748 402 LINE",
"1808 722 OFFCURVE",
"1576 1028 OFFCURVE",
"1258 1028 CURVE SMOOTH",
"1134 1028 OFFCURVE",
"1022 982 OFFCURVE",
"934 904 CURVE",
"846 990 OFFCURVE",
"714 1028 OFFCURVE",
"552 1028 CURVE SMOOTH",
"356 1028 OFFCURVE",
"214 1004 OFFCURVE",
"118 838 CURVE",
"376 686 LINE",
"394 716 OFFCURVE",
"416 756 OFFCURVE",
"552 756 CURVE SMOOTH",
"664 756 OFFCURVE",
"746 708 OFFCURVE",
"762 622 CURVE",
"358 622 LINE SMOOTH",
"198 622 OFFCURVE",
"80 502 OFFCURVE",
"80 344 CURVE SMOOTH",
"80 118 OFFCURVE",
"220 -26 OFFCURVE",
"504 -26 CURVE SMOOTH"
);
},
{
closed = 1;
nodes = (
"438 154 OFFCURVE",
"370 214 OFFCURVE",
"370 310 CURVE SMOOTH",
"370 392 OFFCURVE",
"442 402 OFFCURVE",
"530 402 CURVE SMOOTH",
"752 402 LINE",
"752 344 LINE SMOOTH",
"752 246 OFFCURVE",
"662 154 OFFCURVE",
"550 154 CURVE SMOOTH"
);
},
{
closed = 1;
nodes = (
"1098 708 OFFCURVE",
"1172 768 OFFCURVE",
"1258 768 CURVE SMOOTH",
"1344 768 OFFCURVE",
"1416 708 OFFCURVE",
"1444 622 CURVE",
"1070 622 LINE"
);
}
);
width = 1818;
},
{
anchors = (
{
name = bottom;
position = "{954, 0}";
},
{
name = top;
position = "{954, 1000}";
}
);
hints = (
{
horizontal = 1;
origin = "{0, 43}";
target = "{1, 10}";
type = Stem;
},
{
horizontal = 1;
origin = "{1, 5}";
target = "{0, 37}";
type = Stem;
},
{
horizontal = 1;
origin = "{0, 33}";
target = "{0, 26}";
type = Stem;
},
{
origin = "{0, 40}";
target = "{1, 2}";
type = Stem;
},
{
origin = "{1, 7}";
target = "{0, 16}";
type = Stem;
},
{
origin = "{2, 5}";
target = "{0, 17}";
type = Stem;
},
{
origin = "{0, 36}";
target = "{0, 16}";
type = Stem;
}
);
layerId = "9AF1F7D9-E035-453E-B2A8-46DE370997D0";
paths = (
{
closed = 1;
nodes = (
"572 0 LINE SMOOTH",
"740 0 OFFCURVE",
"880 122 OFFCURVE",
"904 284 CURVE",
"988 116 OFFCURVE",
"1154 0 OFFCURVE",
"1348 0 CURVE SMOOTH",
"1548 0 OFFCURVE",
"1720 124 OFFCURVE",
"1800 302 CURVE",
"1740 316 LINE",
"1660 156 OFFCURVE",
"1518 60 OFFCURVE",
"1348 60 CURVE SMOOTH",
"1118 60 OFFCURVE",
"928 246 OFFCURVE",
"908 496 CURVE",
"1846 496 LINE",
"1840 830 OFFCURVE",
"1634 1054 OFFCURVE",
"1348 1054 CURVE SMOOTH",
"1142 1054 OFFCURVE",
"964 922 OFFCURVE",
"888 734 CURVE",
"858 914 OFFCURVE",
"778 1054 OFFCURVE",
"530 1054 CURVE SMOOTH",
"398 1054 OFFCURVE",
"234 1014 OFFCURVE",
"160 888 CURVE",
"212 858 LINE",
"276 964 OFFCURVE",
"420 994 OFFCURVE",
"530 994 CURVE SMOOTH",
"826 994 OFFCURVE",
"830 796 OFFCURVE",
"846 556 CURVE",
"426 556 LINE SMOOTH",
"246 556 OFFCURVE",
"80 516 OFFCURVE",
"70 318 CURVE",
"74 92 OFFCURVE",
"280 0 OFFCURVE",
"460 0 CURVE SMOOTH"
);
},
{
closed = 1;
nodes = (
"312 60 OFFCURVE",
"134 112 OFFCURVE",
"130 318 CURVE",
"136 458 OFFCURVE",
"250 496 OFFCURVE",
"426 496 CURVE SMOOTH",
"848 496 LINE",
"848 384 LINE SMOOTH",
"848 330 OFFCURVE",
"858 60 OFFCURVE",
"518 60 CURVE SMOOTH"
);
},
{
closed = 1;
nodes = (
"924 798 OFFCURVE",
"1110 994 OFFCURVE",
"1348 994 CURVE SMOOTH",
"1584 994 OFFCURVE",
"1778 790 OFFCURVE",
"1786 556 CURVE",
"908 556 LINE"
);
}
);
width = 1907;
},
{
anchors = (
{
name = bottom;
position = "{757, 0}";
},
{
name = top;
position = "{898, 1000}";
}
);
hints = (
{
horizontal = 1;
origin = "{0, 43}";
target = "{1, 10}";
type = Stem;
},
{
horizontal = 1;
origin = "{1, 5}";
target = "{0, 37}";
type = Stem;
},
{
horizontal = 1;
origin = "{0, 33}";
target = "{0, 26}";
type = Stem;
},
{
origin = "{0, 40}";
target = "{1, 2}";
type = Stem;
},
{
origin = "{1, 7}";
target = "{0, 16}";
type = Stem;
},
{
origin = "{2, 5}";
target = "{0, 17}";
type = Stem;
},
{
origin = "{0, 36}";
target = "{0, 16}";
type = Stem;
}
);
layerId = m003;
paths = (
{
closed = 1;
nodes = (
"375 0 LINE SMOOTH",
"543 0 OFFCURVE",
"700 122 OFFCURVE",
"747 284 CURVE",
"808 116 OFFCURVE",
"957 0 OFFCURVE",
"1151 0 CURVE SMOOTH",
"1351 0 OFFCURVE",
"1541 124 OFFCURVE",
"1646 302 CURVE",
"1588 316 LINE",
"1485 156 OFFCURVE",
"1330 60 OFFCURVE",
"1160 60 CURVE SMOOTH",
"930 60 OFFCURVE",
"766 246 OFFCURVE",
"781 496 CURVE",
"1719 496 LINE",
"1760 830 OFFCURVE",
"1585 1054 OFFCURVE",
"1299 1054 CURVE SMOOTH",
"1093 1054 OFFCURVE",
"897 922 OFFCURVE",
"794 734 CURVE",
"790 914 OFFCURVE",
"729 1054 OFFCURVE",
"481 1054 CURVE SMOOTH",
"349 1054 OFFCURVE",
"180 1014 OFFCURVE",
"88 888 CURVE",
"136 858 LINE",
"215 964 OFFCURVE",
"363 994 OFFCURVE",
"473 994 CURVE SMOOTH",
"769 994 OFFCURVE",
"745 796 OFFCURVE",
"727 556 CURVE",
"307 556 LINE SMOOTH",
"127 556 OFFCURVE",
"-44 516 OFFCURVE",
"-82 318 CURVE",
"-110 92 OFFCURVE",
"83 0 OFFCURVE",
"263 0 CURVE SMOOTH"
);
},
{
closed = 1;
nodes = (
"124 60 OFFCURVE",
"-47 112 OFFCURVE",
"-22 318 CURVE",
"4 458 OFFCURVE",
"123 496 OFFCURVE",
"299 496 CURVE SMOOTH",
"721 496 LINE",
"705 384 LINE SMOOTH",
"698 330 OFFCURVE",
"670 60 OFFCURVE",
"330 60 CURVE SMOOTH"
);
},
{
closed = 1;
nodes = (
"839 798 OFFCURVE",
"1053 994 OFFCURVE",
"1291 994 CURVE SMOOTH",
"1527 994 OFFCURVE",
"1692 790 OFFCURVE",
"1667 556 CURVE",
"789 556 LINE"
);
}
);
width = 1907;
},
{
anchors = (
{
name = bottom;
position = "{712, 0}";
},
{
name = top;
position = "{853, 1000}";
}
);
hints = (
{
horizontal = 1;
origin = "{0, 43}";
target = "{1, 10}";
type = Stem;
},
{
horizontal = 1;
origin = "{1, 5}";
target = "{0, 37}";
type = Stem;
},
{
horizontal = 1;
origin = "{0, 26}";
target = "{0, 33}";
type = Stem;
},
{
horizontal = 1;
origin = "{0, 26}";
target = "{2, 2}";
type = Stem;
},
{
origin = "{0, 40}";
target = "{1, 2}";
type = Stem;
}
);
layerId = m004;
paths = (
{
closed = 1;
nodes = (
"430 -26 LINE SMOOTH",
"564 -26 OFFCURVE",
"649 14 OFFCURVE",
"748 102 CURVE",
"824 22 OFFCURVE",
"932 -26 OFFCURVE",
"1058 -26 CURVE SMOOTH",
"1258 -26 OFFCURVE",
"1447 98 OFFCURVE",
"1552 276 CURVE",
"1256 348 LINE",
"1214 302 OFFCURVE",
"1158 274 OFFCURVE",
"1100 274 CURVE SMOOTH",
"1006 276 OFFCURVE",
"960 330 OFFCURVE",
"942 402 CURVE",
"1608 402 LINE",
"1713 722 OFFCURVE",
"1524 1028 OFFCURVE",
"1206 1028 CURVE SMOOTH",
"1082 1028 OFFCURVE",
"963 982 OFFCURVE",
"864 904 CURVE",
"788 990 OFFCURVE",
"662 1028 OFFCURVE",
"500 1028 CURVE SMOOTH",
"304 1028 OFFCURVE",
"158 1004 OFFCURVE",
"39 838 CURVE",
"276 686 LINE",
"298 716 OFFCURVE",
"325 756 OFFCURVE",
"461 756 CURVE SMOOTH",
"573 756 OFFCURVE",
"649 708 OFFCURVE",
"653 622 CURVE",
"249 622 LINE SMOOTH",
"89 622 OFFCURVE",
"-46 502 OFFCURVE",
"-68 344 CURVE SMOOTH",
"-100 118 OFFCURVE",
"20 -26 OFFCURVE",
"304 -26 CURVE SMOOTH"
);
},
{
closed = 1;
nodes = (
"263 154 OFFCURVE",
"203 214 OFFCURVE",
"217 310 CURVE SMOOTH",
"228 392 OFFCURVE",
"302 402 OFFCURVE",
"390 402 CURVE SMOOTH",
"612 402 LINE",
"604 344 LINE SMOOTH",
"590 246 OFFCURVE",
"487 154 OFFCURVE",
"375 154 CURVE SMOOTH"
);
},
{
closed = 1;
nodes = (
"1001 708 OFFCURVE",
"1083 768 OFFCURVE",
"1169 768 CURVE SMOOTH",
"1255 768 OFFCURVE",
"1319 708 OFFCURVE",
"1335 622 CURVE",
"961 622 LINE"
);
}
);
width = 1818;
},
{
anchors = (
{
name = bottom;
position = "{939, 0}";
},
{
name = top;
position = "{939, 1000}";
}
);
hints = (
{
horizontal = 1;
origin = "{0, 43}";
target = "{1, 10}";
type = Stem;
},
{
horizontal = 1;
origin = "{1, 5}";
target = "{0, 37}";
type = Stem;
},
{
horizontal = 1;
origin = "{0, 33}";
target = "{0, 26}";
type = Stem;
},
{
origin = "{0, 40}";
target = "{1, 2}";
type = Stem;
},
{
origin = "{1, 7}";
target = "{0, 16}";
type = Stem;
},
{
origin = "{2, 5}";
target = "{0, 17}";
type = Stem;
},
{
origin = "{0, 36}";
target = "{0, 16}";
type = Stem;
}
);
layerId = "81BB4A08-F3DE-40E2-9BD9-52E47EDF5C1E";
paths = (
{
closed = 1;
nodes = (
"591 -9 LINE SMOOTH",
"748 -9 OFFCURVE",
"868 86 OFFCURVE",
"913 223 CURVE",
"998 85 OFFCURVE",
"1147 -9 OFFCURVE",
"1318 -9 CURVE SMOOTH",
"1518 -9 OFFCURVE",
"1690 115 OFFCURVE",
"1770 293 CURVE",
"1628 327 LINE",
"1563 205 OFFCURVE",
"1451 131 OFFCURVE",
"1318 131 CURVE SMOOTH",
"1133 132 OFFCURVE",
"989 274 OFFCURVE",
"966 465 CURVE",
"1813 465 LINE",
"1829 794 OFFCURVE",
"1615 1045 OFFCURVE",
"1318 1045 CURVE SMOOTH",
"1139 1045 OFFCURVE",
"983 942 OFFCURVE",
"903 791 CURVE",
"854 939 OFFCURVE",
"757 1045 OFFCURVE",
"537 1045 CURVE SMOOTH",
"384 1045 OFFCURVE",
"227 1011 OFFCURVE",
"146 871 CURVE",
"267 801 LINE",
"315 881 OFFCURVE",
"419 915 OFFCURVE",
"537 915 CURVE SMOOTH",
"772 915 OFFCURVE",
"802 767 OFFCURVE",
"818 578 CURVE",
"403 578 LINE SMOOTH",
"230 578 OFFCURVE",
"80 511 OFFCURVE",
"73 327 CURVE",
"76 101 OFFCURVE",
"260 -9 OFFCURVE",
"475 -9 CURVE SMOOTH"
);
},
{
closed = 1;
nodes = (
"354 91 OFFCURVE",
"213 146 OFFCURVE",
"210 315 CURVE",
"214 436 OFFCURVE",
"314 465 OFFCURVE",
"461 465 CURVE SMOOTH",
"816 465 LINE",
"816 371 LINE SMOOTH",
"816 302 OFFCURVE",
"793 91 OFFCURVE",
"529 91 CURVE SMOOTH"
);
},
{
closed = 1;
nodes = (
"982 768 OFFCURVE",
"1131 919 OFFCURVE",
"1318 919 CURVE SMOOTH",
"1504 919 OFFCURVE",
"1657 763 OFFCURVE",
"1672 578 CURVE",
"962 578 LINE"
);
}
);
width = 1877.33333;
},
{
anchors = (
{
name = bottom;
position = "{742, 0}";
},
{
name = top;
position = "{883, 1000}";
}
);
hints = (
{
horizontal = 1;
origin = "{0, 43}";
target = "{1, 10}";
type = Stem;
},
{
horizontal = 1;
origin = "{1, 5}";
target = "{0, 37}";
type = Stem;
},
{
horizontal = 1;
origin = "{0, 33}";
target = "{0, 26}";
type = Stem;
},
{
origin = "{0, 40}";
target = "{1, 2}";
type = Stem;
},
{
origin = "{1, 7}";
target = "{0, 16}";
type = Stem;
},
{
origin = "{2, 5}";
target = "{0, 17}";
type = Stem;
},
{
origin = "{0, 36}";
target = "{0, 16}";
type = Stem;
}
);
layerId = "6C2B4A57-296A-49E8-ACE5-0BEFCC4AFC9C";
paths = (
{
closed = 1;
nodes = (
"393 -9 LINE SMOOTH",
"550 -9 OFFCURVE",
"683 86 OFFCURVE",
"747 223 CURVE",
"813 85 OFFCURVE",
"949 -9 OFFCURVE",
"1120 -9 CURVE SMOOTH",
"1320 -9 OFFCURVE",
"1510 115 OFFCURVE",
"1615 293 CURVE",
"1477 327 LINE",
"1395 205 OFFCURVE",
"1273 131 OFFCURVE",
"1140 131 CURVE SMOOTH",
"955 132 OFFCURVE",
"831 274 OFFCURVE",
"835 465 CURVE",
"1682 465 LINE",
"1744 794 OFFCURVE",
"1565 1045 OFFCURVE",
"1268 1045 CURVE SMOOTH",
"1089 1045 OFFCURVE",
"919 942 OFFCURVE",
"817 791 CURVE",
"789 939 OFFCURVE",
"707 1045 OFFCURVE",
"487 1045 CURVE SMOOTH",
"334 1045 OFFCURVE",
"173 1011 OFFCURVE",
"72 871 CURVE",
"183 801 LINE",
"243 881 OFFCURVE",
"350 915 OFFCURVE",
"469 915 CURVE SMOOTH",
"704 915 OFFCURVE",
"713 767 OFFCURVE",
"702 578 CURVE",
"288 578 LINE SMOOTH",
"114 578 OFFCURVE",
"-45 511 OFFCURVE",
"-77 327 CURVE",
"-107 101 OFFCURVE",
"62 -9 OFFCURVE",
"277 -9 CURVE SMOOTH"
);
},
{
closed = 1;
nodes = (
"170 91 OFFCURVE",
"36 146 OFFCURVE",
"58 315 CURVE",
"79 436 OFFCURVE",
"183 465 OFFCURVE",
"329 465 CURVE SMOOTH",
"685 465 LINE",
"671 371 LINE SMOOTH",
"662 302 OFFCURVE",
"609 91 OFFCURVE",
"345 91 CURVE SMOOTH"
);
},
{
closed = 1;
nodes = (
"893 768 OFFCURVE",
"1063 919 OFFCURVE",
"1250 919 CURVE SMOOTH",
"1436 919 OFFCURVE",
"1568 763 OFFCURVE",
"1556 578 CURVE",
"846 578 LINE"
);
}
);
width = 1877.33333;
}
);
leftKerningGroup = o;
rightKerningGroup = e;
unicode = 00E6;
},
